Wong Sans-Regular.ufo
<glyph name="uni0021" format="2">
	<advance width="201"/>
	<unicode hex="0021"/>
	<note>
		uni0021
	</note>
	<outline>
		<contour>
			<point x="101" y="4" type="qcurve" smooth="yes"/>
			<point x="127" y="4"/>
			<point x="160" y="34"/>
			<point x="160" y="57" type="qcurve" smooth="yes"/>
			<point x="160" y="80"/>
			<point x="127" y="111"/>
			<point x="101" y="111" type="qcurve" smooth="yes"/>
			<point x="76" y="111"/>
			<point x="42" y="80"/>
			<point x="42" y="57" type="qcurve" smooth="yes"/>
			<point x="42" y="34"/>
			<point x="76" y="4"/>
		</contour>
		<contour>
			<point x="56" y="187" type="line"/>
			<point x="151" y="187" type="line"/>
			<point x="151" y="759" type="line"/>
			<point x="56" y="759" type="line"/>
		</contour>
	</outline>
</glyph>
<glyph name="uni0022" format="2">
	<advance width="339"/>
	<unicode hex="0022"/>
	<note>
		uni0022
	</note>
	<outline>
		<contour>
			<point x="143" y="477" type="line"/>
			<point x="144" y="541"/>
			<point x="146" y="666"/>
			<point x="147" y="729" type="qcurve"/>
			<point x="63" y="729" type="line"/>
			<point x="63" y="477" type="line"/>
		</contour>
		<contour>
			<point x="278" y="477" type="line"/>
			<point x="279" y="541"/>
			<point x="281" y="666"/>
			<point x="282" y="729" type="qcurve"/>
			<point x="198" y="729" type="line"/>
			<point x="198" y="477" type="line"/>
		</contour>
	</outline>
</glyph>
<glyph name="uni0023" format="2">
	<advance width="578"/>
	<unicode hex="0023"/>
	<note>
		uni0023
	</note>
	<outline>
		<contour>
			<point x="162" y="664" type="line"/>
			<point x="156" y="615"/>
			<point x="144" y="519"/>
			<point x="138" y="470" type="qcurve"/>
			<point x="45" y="470" type="line"/>
			<point x="42" y="450"/>
			<point x="39" y="397"/>
			<point x="36" y="376" type="qcurve"/>
			<point x="131" y="375" type="line"/>
			<point x="128" y="350"/>
			<point x="120" y="311"/>
			<point x="117" y="285" type="qcurve"/>
			<point x="23" y="285" type="line"/>
			<point x="21" y="265"/>
			<point x="16" y="211"/>
			<point x="13" y="190" type="qcurve"/>
			<point x="106" y="190" type="line"/>
			<point x="101" y="143"/>
			<point x="90" y="48"/>
			<point x="84" y="0" type="qcurve"/>
			<point x="181" y="0" type="line"/>
			<point x="186" y="48"/>
			<point x="198" y="143"/>
			<point x="203" y="190" type="qcurve"/>
			<point x="293" y="190" type="line"/>
			<point x="288" y="143"/>
			<point x="276" y="48"/>
			<point x="271" y="0" type="qcurve"/>
			<point x="367" y="0" type="line"/>
			<point x="373" y="48"/>
			<point x="384" y="143"/>
			<point x="389" y="190" type="qcurve"/>
			<point x="493" y="190" type="line"/>
			<point x="495" y="211"/>
			<point x="500" y="265"/>
			<point x="503" y="285" type="qcurve"/>
			<point x="400" y="285" type="line"/>
			<point x="403" y="311"/>
			<point x="409" y="351"/>
			<point x="412" y="376" type="qcurve"/>
			<point x="516" y="376" type="line"/>
			<point x="519" y="397"/>
			<point x="522" y="450"/>
			<point x="524" y="470" type="qcurve"/>
			<point x="421" y="470" type="line"/>
			<point x="427" y="519"/>
			<point x="439" y="615"/>
			<point x="445" y="664" type="qcurve"/>
			<point x="348" y="664" type="line"/>
			<point x="343" y="615"/>
			<point x="330" y="519"/>
			<point x="325" y="470" type="qcurve"/>
			<point x="234" y="470" type="line"/>
			<point x="241" y="519"/>
			<point x="252" y="615"/>
			<point x="259" y="664" type="qcurve"/>
		</contour>
		<contour>
			<point x="315" y="376" type="line"/>
			<point x="312" y="351"/>
			<point x="307" y="311"/>
			<point x="303" y="285" type="qcurve"/>
			<point x="213" y="285" type="line"/>
			<point x="216" y="311"/>
			<point x="223" y="351"/>
			<point x="225" y="376" type="qcurve"/>
		</contour>
	</outline>
</glyph>
<glyph name="uni0024" format="2">
	<advance width="567"/>
	<unicode hex="0024"/>
	<note>
		uni0024
	</note>
	<outline>
		<contour>
			<point x="515" y="668" type="line"/>
			<point x="474" y="693"/>
			<point x="367" y="727"/>
			<point x="297" y="727" type="qcurve" smooth="yes"/>
			<point x="235" y="725"/>
			<point x="139" y="676"/>
			<point x="84" y="591"/>
			<point x="84" y="534" type="qcurve" smooth="yes"/>
			<point x="84" y="487"/>
			<point x="120" y="421"/>
			<point x="180" y="376"/>
			<point x="250" y="345"/>
			<point x="284" y="332" type="qcurve" smooth="yes"/>
			<point x="320" y="318"/>
			<point x="384" y="283"/>
			<point x="423" y="234"/>
			<point x="423" y="197" type="qcurve" smooth="yes"/>
			<point x="423" y="154"/>
			<point x="379" y="102"/>
			<point x="312" y="77"/>
			<point x="278" y="77" type="qcurve" smooth="yes"/>
			<point x="246" y="77"/>
			<point x="178" y="96"/>
			<point x="116" y="127"/>
			<point x="92" y="144" type="qcurve"/>
			<point x="49" y="68" type="line"/>
			<point x="78" y="49"/>
			<point x="152" y="14"/>
			<point x="239" y="-8"/>
			<point x="287" y="-8" type="qcurve" smooth="yes"/>
			<point x="360" y="-8"/>
			<point x="466" y="46"/>
			<point x="523" y="140"/>
			<point x="523" y="197" type="qcurve" smooth="yes"/>
			<point x="523" y="249"/>
			<point x="492" y="319"/>
			<point x="439" y="367"/>
			<point x="373" y="399"/>
			<point x="339" y="412" type="qcurve" smooth="yes"/>
			<point x="300" y="427"/>
			<point x="228" y="461"/>
			<point x="184" y="508"/>
			<point x="184" y="542" type="qcurve" smooth="yes"/>
			<point x="184" y="587"/>
			<point x="253" y="641"/>
			<point x="311" y="641" type="qcurve" smooth="yes"/>
			<point x="353" y="641"/>
			<point x="441" y="613"/>
			<point x="478" y="594" type="qcurve"/>
		</contour>
		<contour>
			<point x="319" y="-68" type="line"/>
			<point x="319" y="347" type="line"/>
			<point x="338" y="389" type="line"/>
			<point x="338" y="789" type="line"/>
			<point x="280" y="789" type="line"/>
			<point x="280" y="402" type="line"/>
			<point x="260" y="370" type="line"/>
			<point x="260" y="-68" type="line"/>
		</contour>
	</outline>
</glyph>
<glyph name="uni0025" format="2">
	<advance width="780"/>
	<unicode hex="0025"/>
	<note>
		uni0025
	</note>
	<outline>
		<contour>
			<point x="205" y="267" type="qcurve" smooth="yes"/>
			<point x="250" y="267"/>
			<point x="313" y="310"/>
			<point x="347" y="387"/>
			<point x="347" y="438" type="qcurve" smooth="yes"/>
			<point x="347" y="488"/>
			<point x="313" y="565"/>
			<point x="250" y="608"/>
			<point x="205" y="608" type="qcurve" smooth="yes"/>
			<point x="159" y="608"/>
			<point x="95" y="565"/>
			<point x="63" y="488"/>
			<point x="63" y="438" type="qcurve" smooth="yes"/>
			<point x="63" y="387"/>
			<point x="95" y="310"/>
			<point x="159" y="267"/>
		</contour>
		<contour>
			<point x="145" y="437" type="qcurve" smooth="yes"/>
			<point x="145" y="490"/>
			<point x="176" y="541"/>
			<point x="205" y="541" type="qcurve" smooth="yes"/>
			<point x="234" y="541"/>
			<point x="264" y="489"/>
			<point x="264" y="437" type="qcurve" smooth="yes"/>
			<point x="264" y="389"/>
			<point x="234" y="333"/>
			<point x="205" y="333" type="qcurve" smooth="yes"/>
			<point x="176" y="333"/>
			<point x="145" y="389"/>
		</contour>
		<contour>
			<point x="580" y="-16" type="qcurve" smooth="yes"/>
			<point x="626" y="-16"/>
			<point x="689" y="27"/>
			<point x="723" y="104"/>
			<point x="723" y="155" type="qcurve" smooth="yes"/>
			<point x="723" y="205"/>
			<point x="689" y="282"/>
			<point x="626" y="325"/>
			<point x="580" y="325" type="qcurve" smooth="yes"/>
			<point x="534" y="325"/>
			<point x="471" y="282"/>
			<point x="438" y="205"/>
			<point x="438" y="155" type="qcurve" smooth="yes"/>
			<point x="438" y="104"/>
			<point x="471" y="28"/>
			<point x="534" y="-16"/>
		</contour>
		<contour>
			<point x="520" y="154" type="qcurve" smooth="yes"/>
			<point x="520" y="207"/>
			<point x="551" y="258"/>
			<point x="580" y="258" type="qcurve" smooth="yes"/>
			<point x="609" y="258"/>
			<point x="640" y="206"/>
			<point x="640" y="154" type="qcurve" smooth="yes"/>
			<point x="640" y="106"/>
			<point x="609" y="50"/>
			<point x="580" y="50" type="qcurve" smooth="yes"/>
			<point x="551" y="50"/>
			<point x="520" y="106"/>
		</contour>
		<contour>
			<point x="559" y="609" type="line"/>
			<point x="144" y="0" type="line"/>
			<point x="236" y="-1" type="line"/>
			<point x="653" y="609" type="line"/>
		</contour>
	</outline>
</glyph>
<glyph name="uni0026" format="2">
	<advance width="725"/>
	<unicode hex="0026"/>
	<note>
		uni0026
	</note>
	<outline>
		<contour>
			<point x="295" y="500" type="line"/>
			<point x="293" y="504"/>
			<point x="278" y="530"/>
			<point x="263" y="568"/>
			<point x="263" y="586" type="qcurve" smooth="yes"/>
			<point x="263" y="623"/>
			<point x="312" y="676"/>
			<point x="356" y="676" type="qcurve" smooth="yes"/>
			<point x="385" y="676"/>
			<point x="444" y="643"/>
			<point x="474" y="615" type="qcurve"/>
			<point x="523" y="680" type="line"/>
			<point x="493" y="711"/>
			<point x="400" y="757"/>
			<point x="341" y="757" type="qcurve" smooth="yes"/>
			<point x="284" y="757"/>
			<point x="205" y="711"/>
			<point x="163" y="636"/>
			<point x="163" y="593" type="qcurve" smooth="yes"/>
			<point x="163" y="566"/>
			<point x="180" y="515"/>
			<point x="204" y="473"/>
			<point x="213" y="459" type="qcurve"/>
			<point x="560" y="0" type="line"/>
			<point x="560" y="0"/>
			<point x="588" y="0"/>
			<point x="627" y="0"/>
			<point x="664" y="0"/>
			<point x="672" y="0" type="qcurve"/>
		</contour>
		<contour>
			<point x="304" y="424" type="line"/>
			<point x="257" y="423"/>
			<point x="170" y="389"/>
			<point x="99" y="330"/>
			<point x="57" y="250"/>
			<point x="57" y="203" type="qcurve" smooth="yes"/>
			<point x="57" y="142"/>
			<point x="120" y="46"/>
			<point x="228" y="-10"/>
			<point x="296" y="-10" type="qcurve" smooth="yes"/>
			<point x="378" y="-10"/>
			<point x="491" y="58"/>
			<point x="518" y="108" type="qcurve"/>
			<point x="456" y="162" type="line"/>
			<point x="446" y="139"/>
			<point x="404" y="100"/>
			<point x="346" y="77"/>
			<point x="308" y="77" type="qcurve" smooth="yes"/>
			<point x="267" y="77"/>
			<point x="198" y="110"/>
			<point x="157" y="169"/>
			<point x="157" y="208" type="qcurve" smooth="yes"/>
			<point x="157" y="237"/>
			<point x="182" y="288"/>
			<point x="224" y="326"/>
			<point x="278" y="348"/>
			<point x="306" y="348" type="qcurve"/>
		</contour>
		<contour>
			<point x="459" y="168" type="line"/>
			<point x="529" y="124" type="line"/>
			<point x="646" y="424" type="line"/>
			<point x="557" y="424" type="line"/>
		</contour>
	</outline>
</glyph>
<glyph name="uni0027" format="2">
	<advance width="164"/>
	<unicode hex="0027"/>
	<note>
		uni0027
	</note>
	<outline>
		<contour>
			<point x="123" y="477" type="line"/>
			<point x="124" y="541"/>
			<point x="126" y="666"/>
			<point x="127" y="729" type="qcurve"/>
			<point x="43" y="729" type="line"/>
			<point x="43" y="477" type="line"/>
		</contour>
	</outline>
</glyph>
<glyph name="uni0028" format="2">
	<advance width="403"/>
	<unicode hex="0028"/>
	<note>
		uni0028
	</note>
	<outline>
		<contour>
			<point x="102" y="295" type="qcurve" smooth="yes"/>
			<point x="102" y="193"/>
			<point x="150" y="18"/>
			<point x="227" y="-121"/>
			<point x="269" y="-166" type="qcurve"/>
			<point x="359" y="-124" type="line"/>
			<point x="320" y="-79"/>
			<point x="255" y="44"/>
			<point x="216" y="201"/>
			<point x="216" y="294" type="qcurve" smooth="yes"/>
			<point x="216" y="387"/>
			<point x="255" y="545"/>
			<point x="320" y="669"/>
			<point x="359" y="714" type="qcurve"/>
			<point x="269" y="755" type="line"/>
			<point x="227" y="710"/>
			<point x="150" y="572"/>
			<point x="102" y="396"/>
		</contour>
	</outline>
</glyph>
<glyph name="uni0029" format="2">
	<advance width="405"/>
	<unicode hex="0029"/>
	<note>
		uni0029
	</note>
	<outline>
		<contour>
			<point x="313" y="294" type="qcurve" smooth="yes"/>
			<point x="313" y="396"/>
			<point x="264" y="571"/>
			<point x="189" y="710"/>
			<point x="146" y="755" type="qcurve"/>
			<point x="61" y="713" type="line"/>
			<point x="100" y="669"/>
			<point x="177" y="545"/>
			<point x="204" y="387"/>
			<point x="204" y="294" type="qcurve" smooth="yes"/>
			<point x="204" y="201"/>
			<point x="165" y="44"/>
			<point x="100" y="-80"/>
			<point x="61" y="-124" type="qcurve"/>
			<point x="146" y="-166" type="line"/>
			<point x="189" y="-121"/>
			<point x="264" y="17"/>
			<point x="313" y="193"/>
		</contour>
	</outline>
</glyph>
<glyph name="uni002A" format="2">
	<advance width="335"/>
	<unicode hex="002A"/>
	<note>
		uni002A
	</note>
	<outline>
		<contour>
			<point x="198" y="417" type="line"/>
			<point x="198" y="443"/>
			<point x="199" y="493"/>
			<point x="199" y="519" type="qcurve"/>
			<point x="222" y="506"/>
			<point x="266" y="479"/>
			<point x="288" y="465" type="qcurve"/>
			<point x="297" y="480"/>
			<point x="314" y="509"/>
			<point x="322" y="522" type="qcurve"/>
			<point x="299" y="536"/>
			<point x="254" y="561"/>
			<point x="232" y="575" type="qcurve"/>
			<point x="232" y="575" type="line"/>
			<point x="255" y="588"/>
			<point x="301" y="615"/>
			<point x="323" y="628" type="qcurve"/>
			<point x="315" y="642"/>
			<point x="301" y="667"/>
			<point x="293" y="681" type="qcurve"/>
			<point x="271" y="669"/>
			<point x="224" y="643"/>
			<point x="200" y="629" type="qcurve"/>
			<point x="201" y="656"/>
			<point x="201" y="710"/>
			<point x="203" y="737" type="qcurve"/>
			<point x="136" y="737" type="line"/>
			<point x="136" y="629" type="line"/>
			<point x="113" y="643"/>
			<point x="67" y="670"/>
			<point x="45" y="682" type="qcurve"/>
			<point x="37" y="669"/>
			<point x="23" y="643"/>
			<point x="15" y="629" type="qcurve"/>
			<point x="37" y="616"/>
			<point x="82" y="589"/>
			<point x="103" y="576" type="qcurve"/>
			<point x="81" y="564"/>
			<point x="37" y="538"/>
			<point x="14" y="526" type="qcurve"/>
			<point x="23" y="512"/>
			<point x="40" y="483"/>
			<point x="47" y="469" type="qcurve"/>
			<point x="70" y="481"/>
			<point x="114" y="507"/>
			<point x="136" y="519" type="qcurve"/>
			<point x="136" y="417" type="line"/>
		</contour>
	</outline>
</glyph>
<glyph name="uni002B" format="2">
	<advance width="550"/>
	<unicode hex="002B"/>
	<note>
		uni002B
	</note>
	<outline>
		<contour>
			<point x="451" y="286" type="line"/>
			<point x="324" y="286" type="line"/>
			<point x="324" y="416" type="line"/>
			<point x="227" y="416" type="line"/>
			<point x="227" y="286" type="line"/>
			<point x="92" y="286" type="line"/>
			<point x="92" y="193" type="line"/>
			<point x="227" y="193" type="line"/>
			<point x="227" y="54" type="line"/>
			<point x="324" y="54" type="line"/>
			<point x="324" y="193" type="line"/>
			<point x="451" y="193" type="line"/>
		</contour>
	</outline>
</glyph>
<glyph name="uni002C" format="2">
	<advance width="203"/>
	<unicode hex="002C"/>
	<note>
		uni002C
	</note>
	<outline>
		<contour>
			<point x="81" y="87" type="line"/>
			<point x="61" y="35"/>
			<point x="23" y="-68"/>
			<point x="3" y="-121" type="qcurve"/>
			<point x="97" y="-121" type="line"/>
			<point x="119" y="-68"/>
			<point x="162" y="35"/>
			<point x="184" y="87" type="qcurve"/>
		</contour>
	</outline>
</glyph>
<glyph name="uni002D" format="2">
	<advance width="304"/>
	<unicode hex="002D"/>
	<note>
		uni002D
	</note>
	<outline>
		<contour>
			<point x="53" y="174" type="line"/>
			<point x="240" y="174" type="line"/>
			<point x="240" y="269" type="line"/>
			<point x="53" y="269" type="line"/>
		</contour>
	</outline>
</glyph>
<glyph name="uni002E" format="2">
	<advance width="134"/>
	<unicode hex="002E"/>
	<note>
		uni002E
	</note>
	<outline>
		<contour>
			<point x="6" y="60" type="qcurve" smooth="yes"/>
			<point x="6" y="33"/>
			<point x="43" y="0"/>
			<point x="66" y="0" type="qcurve" smooth="yes"/>
			<point x="87" y="0"/>
			<point x="124" y="33"/>
			<point x="124" y="60" type="qcurve" smooth="yes"/>
			<point x="124" y="85"/>
			<point x="87" y="120"/>
			<point x="66" y="120" type="qcurve" smooth="yes"/>
			<point x="43" y="120"/>
			<point x="6" y="85"/>
		</contour>
	</outline>
</glyph>
<glyph name="uni002F" format="2">
	<advance width="384"/>
	<unicode hex="002F"/>
	<note>
		uni002F
	</note>
	<outline>
		<contour>
			<point x="282" y="745" type="line"/>
			<point x="211" y="554"/>
			<point x="71" y="172"/>
			<point x="0" y="-19" type="qcurve"/>
			<point x="102" y="-19" type="line"/>
			<point x="173" y="172"/>
			<point x="313" y="554"/>
			<point x="383" y="745" type="qcurve"/>
		</contour>
	</outline>
</glyph>
<glyph name="zero" format="2">
	<advance width="543"/>
	<unicode hex="0030"/>
	<note>
		zero
	</note>
	<outline>
		<contour>
			<point x="442" y="631" type="qcurve" smooth="yes"/>
			<point x="372" y="721"/>
			<point x="272" y="721" type="qcurve" smooth="yes"/>
			<point x="171" y="721"/>
			<point x="102" y="631" type="qcurve" smooth="yes"/>
			<point x="24" y="532"/>
			<point x="24" y="365" type="qcurve" smooth="yes"/>
			<point x="24" y="190"/>
			<point x="102" y="91" type="qcurve" smooth="yes"/>
			<point x="173" y="1"/>
			<point x="272" y="1" type="qcurve" smooth="yes"/>
			<point x="372" y="1"/>
			<point x="442" y="91" type="qcurve" smooth="yes"/>
			<point x="519" y="191"/>
			<point x="519" y="361" type="qcurve" smooth="yes"/>
			<point x="519" y="531"/>
		</contour>
		<contour>
			<point x="175" y="177" type="qcurve" smooth="yes"/>
			<point x="136" y="250"/>
			<point x="136" y="365" type="qcurve" smooth="yes"/>
			<point x="136" y="474"/>
			<point x="175" y="546" type="qcurve" smooth="yes"/>
			<point x="214" y="617"/>
			<point x="272" y="617" type="qcurve" smooth="yes"/>
			<point x="330" y="617"/>
			<point x="369" y="546" type="qcurve" smooth="yes"/>
			<point x="408" y="472"/>
			<point x="408" y="361" type="qcurve" smooth="yes"/>
			<point x="408" y="249"/>
			<point x="369" y="177" type="qcurve" smooth="yes"/>
			<point x="330" y="105"/>
			<point x="272" y="105" type="qcurve" smooth="yes"/>
			<point x="213" y="105"/>
		</contour>
	</outline>
</glyph>
<glyph name="one" format="2">
	<advance width="243"/>
	<unicode hex="0031"/>
	<note>
		one
	</note>
	<outline>
		<contour>
			<point x="95" y="612" type="line"/>
			<point x="95" y="2" type="line"/>
			<point x="203" y="2" type="line"/>
			<point x="203" y="722" type="line"/>
			<point x="69" y="722" type="line"/>
			<point x="5" y="612" type="line"/>
		</contour>
	</outline>
</glyph>
<glyph name="two" format="2">
	<advance width="461"/>
	<unicode hex="0032"/>
	<note>
		two
	</note>
	<outline>
		<contour>
			<point x="182" y="100" type="line"/>
			<point x="288" y="217" type="line" smooth="yes"/>
			<point x="297" y="226"/>
			<point x="305" y="236"/>
			<point x="312" y="245" type="curve" smooth="yes"/>
			<point x="336" y="275"/>
			<point x="356" y="301"/>
			<point x="373" y="324" type="curve" smooth="yes"/>
			<point x="392" y="350"/>
			<point x="407" y="373"/>
			<point x="417" y="392" type="curve" smooth="yes"/>
			<point x="436" y="429"/>
			<point x="446" y="466"/>
			<point x="446" y="505" type="curve" smooth="yes"/>
			<point x="446" y="565"/>
			<point x="425" y="616"/>
			<point x="383" y="656" type="curve" smooth="yes"/>
			<point x="342" y="697"/>
			<point x="290" y="718"/>
			<point x="229" y="718" type="curve" smooth="yes"/>
			<point x="228" y="718" type="line" smooth="yes"/>
			<point x="215" y="718"/>
			<point x="203" y="717"/>
			<point x="191" y="715" type="curve" smooth="yes"/>
			<point x="191" y="715" type="line" smooth="yes"/>
			<point x="191" y="715"/>
			<point x="190" y="715"/>
			<point x="190" y="715" type="curve" smooth="yes"/>
			<point x="138" y="708"/>
			<point x="96" y="685"/>
			<point x="66" y="647" type="curve" smooth="yes"/>
			<point x="35" y="612"/>
			<point x="17" y="563"/>
			<point x="13" y="502" type="curve" smooth="yes"/>
			<point x="13" y="500"/>
			<point x="13" y="498"/>
			<point x="12" y="496" type="curve"/>
			<point x="13" y="496" type="line"/>
			<point x="12" y="482"/>
			<point x="12" y="467"/>
			<point x="13" y="451" type="curve"/>
			<point x="116" y="471" type="line"/>
			<point x="115" y="493"/>
			<point x="116" y="512"/>
			<point x="119" y="529" type="curve" smooth="yes"/>
			<point x="127" y="559"/>
			<point x="139" y="582"/>
			<point x="156" y="597" type="curve" smooth="yes"/>
			<point x="166" y="605"/>
			<point x="178" y="612"/>
			<point x="191" y="616" type="curve" smooth="yes"/>
			<point x="203" y="620"/>
			<point x="217" y="622"/>
			<point x="231" y="622" type="curve" smooth="yes"/>
			<point x="264" y="622"/>
			<point x="292" y="611"/>
			<point x="314" y="589" type="curve" smooth="yes"/>
			<point x="336" y="566"/>
			<point x="348" y="538"/>
			<point x="348" y="505" type="curve" smooth="yes"/>
			<point x="348" y="482"/>
			<point x="339" y="456"/>
			<point x="322" y="428" type="curve" smooth="yes"/>
			<point x="314" y="413"/>
			<point x="302" y="395"/>
			<point x="287" y="373" type="curve" smooth="yes"/>
			<point x="275" y="358"/>
			<point x="262" y="340"/>
			<point x="246" y="320" type="curve" smooth="yes"/>
			<point x="235" y="305"/>
			<point x="223" y="291"/>
			<point x="210" y="277" type="curve" smooth="yes"/>
			<point x="15" y="63" type="line"/>
			<point x="15" y="1" type="line"/>
			<point x="447" y="0" type="line"/>
			<point x="447" y="99" type="line"/>
		</contour>
	</outline>
</glyph>
<glyph name="three" format="2">
	<advance width="546"/>
	<unicode hex="0033"/>
	<note>
		three
	</note>
	<outline>
		<contour>
			<point x="454" y="418" type="curve" smooth="yes"/>
			<point x="421" y="450"/>
			<point x="382" y="471"/>
			<point x="336" y="480" type="curve"/>
			<point x="461" y="723" type="line"/>
			<point x="461" y="723" type="line"/>
			<point x="461" y="723" type="line"/>
			<point x="461" y="723" type="line"/>
			<point x="461" y="723" type="line"/>
			<point x="77" y="723" type="line"/>
			<point x="77" y="614" type="line"/>
			<point x="284" y="614" type="line"/>
			<point x="171" y="385" type="line"/>
			<point x="268" y="385" type="line" smooth="yes"/>
			<point x="302" y="385"/>
			<point x="336" y="373"/>
			<point x="361" y="350" type="curve" smooth="yes"/>
			<point x="363" y="349"/>
			<point x="365" y="347"/>
			<point x="366" y="346" type="curve" smooth="yes"/>
			<point x="379" y="334"/>
			<point x="388" y="321"/>
			<point x="395" y="306" type="curve" smooth="yes"/>
			<point x="405" y="287"/>
			<point x="410" y="266"/>
			<point x="410" y="243" type="curve" smooth="yes"/>
			<point x="410" y="193"/>
			<point x="382" y="148"/>
			<point x="340" y="123" type="curve" smooth="yes"/>
			<point x="335" y="120"/>
			<point x="330" y="117"/>
			<point x="324" y="114" type="curve" smooth="yes"/>
			<point x="304" y="105"/>
			<point x="281" y="100"/>
			<point x="257" y="100" type="curve" smooth="yes"/>
			<point x="203" y="100"/>
			<point x="154" y="127"/>
			<point x="127" y="168" type="curve" smooth="yes"/>
			<point x="127" y="168" type="line"/>
			<point x="106" y="196" type="line"/>
			<point x="24" y="131" type="line"/>
			<point x="27" y="127" type="line" smooth="yes"/>
			<point x="81" y="43"/>
			<point x="157" y="0"/>
			<point x="252" y="0" type="curve" smooth="yes"/>
			<point x="329" y="0"/>
			<point x="394" y="23"/>
			<point x="445" y="70" type="curve" smooth="yes"/>
			<point x="496" y="116"/>
			<point x="522" y="176"/>
			<point x="522" y="247" type="curve" smooth="yes"/>
			<point x="522" y="316"/>
			<point x="499" y="374"/>
		</contour>
	</outline>
</glyph>
<glyph name="four" format="2">
	<advance width="512"/>
	<unicode hex="0034"/>
	<note>
		four
	</note>
	<outline>
		<contour>
			<point x="426" y="222" type="line"/>
			<point x="426" y="721" type="line"/>
			<point x="278" y="721" type="line"/>
			<point x="0" y="189" type="line"/>
			<point x="0" y="118" type="line"/>
			<point x="321" y="118" type="line"/>
			<point x="321" y="0" type="line"/>
			<point x="426" y="0" type="line"/>
			<point x="426" y="118" type="line"/>
			<point x="492" y="118" type="line"/>
			<point x="492" y="222" type="line"/>
		</contour>
		<contour>
			<point x="321" y="222" type="line"/>
			<point x="135" y="222" type="line"/>
			<point x="320" y="583" type="line"/>
		</contour>
	</outline>
</glyph>
<glyph name="five" format="2">
	<advance width="516"/>
	<unicode hex="0035"/>
	<note>
		five
	</note>
	<outline>
		<contour>
			<point x="431" y="410" type="qcurve" smooth="yes"/>
			<point x="365" y="476"/>
			<point x="260" y="476" type="qcurve" smooth="yes"/>
			<point x="247" y="476" type="line"/>
			<point x="238" y="475" type="line"/>
			<point x="225" y="475" type="line"/>
			<point x="249" y="613" type="line"/>
			<point x="465" y="613" type="line"/>
			<point x="465" y="717" type="line"/>
			<point x="161" y="717" type="line"/>
			<point x="94" y="372" type="line"/>
			<point x="174" y="376" type="line"/>
			<point x="230" y="378" type="line"/>
			<point x="241" y="379" type="line"/>
			<point x="303" y="379"/>
			<point x="344" y="338" type="qcurve" smooth="yes"/>
			<point x="385" y="301"/>
			<point x="385" y="239" type="qcurve" smooth="yes"/>
			<point x="385" y="180"/>
			<point x="344" y="137" type="qcurve" smooth="yes"/>
			<point x="301" y="97"/>
			<point x="241" y="97" type="qcurve" smooth="yes"/>
			<point x="193" y="97"/>
			<point x="162" y="118" type="qcurve" smooth="yes"/>
			<point x="128" y="140"/>
			<point x="97" y="191" type="qcurve" smooth="yes"/>
			<point x="94" y="196" type="line"/>
			<point x="6" y="126" type="line"/>
			<point x="9" y="122" type="line" smooth="yes"/>
			<point x="90" y="-3"/>
			<point x="232" y="-3" type="qcurve" smooth="yes"/>
			<point x="346" y="-3"/>
			<point x="422" y="65" type="qcurve" smooth="yes"/>
			<point x="498" y="135"/>
			<point x="498" y="241" type="qcurve" smooth="yes"/>
			<point x="498" y="343"/>
		</contour>
	</outline>
</glyph>
<glyph name="six" format="2">
	<advance width="492"/>
	<unicode hex="0036"/>
	<note>
		six
	</note>
	<outline>
		<contour>
			<point x="465" y="268" type="qcurve" smooth="yes"/>
			<point x="452" y="354"/>
			<point x="381" y="408" type="qcurve" smooth="yes"/>
			<point x="326" y="450"/>
			<point x="261" y="450" type="qcurve" smooth="yes"/>
			<point x="245" y="450"/>
			<point x="228" y="447" type="qcurve" smooth="yes"/>
			<point x="214" y="444" type="line"/>
			<point x="203" y="441" type="line"/>
			<point x="322" y="676" type="line"/>
			<point x="231" y="723" type="line"/>
			<point x="50" y="367" type="line" smooth="yes"/>
			<point x="10" y="285"/>
			<point x="10" y="221" type="qcurve" smooth="yes"/>
			<point x="10" y="204"/>
			<point x="13" y="187" type="qcurve" smooth="yes"/>
			<point x="28" y="99"/>
			<point x="107" y="44" type="qcurve" smooth="yes"/>
			<point x="169" y="3"/>
			<point x="238" y="3" type="qcurve" smooth="yes"/>
			<point x="259" y="3"/>
			<point x="278" y="6" type="qcurve" smooth="yes"/>
			<point x="371" y="21"/>
			<point x="425" y="98" type="qcurve" smooth="yes"/>
			<point x="468" y="159"/>
			<point x="468" y="229" type="qcurve" smooth="yes"/>
			<point x="468" y="249"/>
		</contour>
		<contour>
			<point x="238" y="104" type="qcurve" smooth="yes"/>
			<point x="200" y="104"/>
			<point x="169" y="126" type="qcurve" smooth="yes"/>
			<point x="118" y="163"/>
			<point x="118" y="228" type="qcurve" smooth="yes"/>
			<point x="118" y="265"/>
			<point x="140" y="296" type="qcurve" smooth="yes"/>
			<point x="170" y="336"/>
			<point x="220" y="345" type="qcurve" smooth="yes"/>
			<point x="234" y="347"/>
			<point x="241" y="347" type="qcurve" smooth="yes"/>
			<point x="277" y="347"/>
			<point x="311" y="324" type="qcurve" smooth="yes"/>
			<point x="351" y="296"/>
			<point x="360" y="244" type="qcurve" smooth="yes"/>
			<point x="362" y="230"/>
			<point x="362" y="224" type="qcurve" smooth="yes"/>
			<point x="362" y="187"/>
			<point x="339" y="155" type="qcurve" smooth="yes"/>
			<point x="308" y="113"/>
			<point x="260" y="106" type="qcurve" smooth="yes"/>
			<point x="252" y="104"/>
		</contour>
	</outline>
</glyph>
<glyph name="seven" format="2">
	<advance width="462"/>
	<unicode hex="0037"/>
	<note>
		seven
	</note>
	<outline>
		<contour>
			<point x="310" y="600" type="line"/>
			<point x="34" y="61" type="line"/>
			<point x="144" y="14" type="line"/>
			<point x="502" y="714" type="line"/>
			<point x="24" y="714" type="line"/>
			<point x="24" y="600" type="line"/>
		</contour>
	</outline>
</glyph>
<glyph name="eight" format="2">
	<advance width="490"/>
	<unicode hex="0038"/>
	<note>
		eight
	</note>
	<outline>
		<contour>
			<point x="441" y="310" type="qcurve" smooth="yes"/>
			<point x="418" y="352"/>
			<point x="381" y="374" type="qcurve"/>
			<point x="452" y="430"/>
			<point x="452" y="518" type="qcurve" smooth="yes"/>
			<point x="452" y="604"/>
			<point x="394" y="662" type="qcurve" smooth="yes"/>
			<point x="336" y="719"/>
			<point x="248" y="719" type="qcurve" smooth="yes"/>
			<point x="160" y="719"/>
			<point x="100" y="662" type="qcurve" smooth="yes"/>
			<point x="42" y="604"/>
			<point x="42" y="518" type="qcurve" smooth="yes"/>
			<point x="42" y="427"/>
			<point x="113" y="373" type="qcurve"/>
			<point x="24" y="325"/>
			<point x="24" y="210" type="qcurve" smooth="yes"/>
			<point x="24" y="120"/>
			<point x="88" y="59" type="qcurve" smooth="yes"/>
			<point x="151" y="-1"/>
			<point x="249" y="-1" type="qcurve" smooth="yes"/>
			<point x="344" y="-1"/>
			<point x="405" y="59" type="qcurve" smooth="yes"/>
			<point x="466" y="118"/>
			<point x="466" y="212" type="qcurve" smooth="yes"/>
			<point x="466" y="267"/>
		</contour>
		<contour>
			<point x="320" y="444" type="qcurve" smooth="yes"/>
			<point x="289" y="413"/>
			<point x="247" y="413" type="qcurve" smooth="yes"/>
			<point x="204" y="413"/>
			<point x="173" y="444" type="qcurve" smooth="yes"/>
			<point x="143" y="474"/>
			<point x="143" y="519" type="qcurve" smooth="yes"/>
			<point x="143" y="560"/>
			<point x="174" y="590" type="qcurve" smooth="yes"/>
			<point x="204" y="621"/>
			<point x="247" y="621" type="qcurve" smooth="yes"/>
			<point x="290" y="621"/>
			<point x="320" y="590" type="qcurve" smooth="yes"/>
			<point x="351" y="559"/>
			<point x="351" y="517" type="qcurve" smooth="yes"/>
			<point x="351" y="475"/>
		</contour>
		<contour>
			<point x="129" y="214" type="qcurve" smooth="yes"/>
			<point x="129" y="261"/>
			<point x="163" y="295" type="qcurve" smooth="yes"/>
			<point x="196" y="329"/>
			<point x="245" y="329" type="qcurve" smooth="yes"/>
			<point x="294" y="329"/>
			<point x="327" y="295" type="qcurve" smooth="yes"/>
			<point x="361" y="261"/>
			<point x="361" y="213" type="qcurve" smooth="yes"/>
			<point x="361" y="166"/>
			<point x="327" y="130" type="qcurve" smooth="yes"/>
			<point x="293" y="96"/>
			<point x="245" y="96" type="qcurve" smooth="yes"/>
			<point x="198" y="96"/>
			<point x="162" y="130" type="qcurve" smooth="yes"/>
			<point x="129" y="164"/>
		</contour>
	</outline>
</glyph>
<glyph name="nine" format="2">
	<advance width="497"/>
	<unicode hex="0039"/>
	<note>
		nine
	</note>
	<outline>
		<contour>
			<point x="473" y="492" type="qcurve" smooth="yes"/>
			<point x="473" y="554"/>
			<point x="410" y="661"/>
			<point x="304" y="724"/>
			<point x="242" y="724" type="qcurve" smooth="yes"/>
			<point x="180" y="724"/>
			<point x="73" y="661"/>
			<point x="10" y="554"/>
			<point x="10" y="492" type="qcurve" smooth="yes"/>
			<point x="10" y="430"/>
			<point x="73" y="323"/>
			<point x="180" y="261"/>
			<point x="242" y="261" type="qcurve"/>
			<point x="242" y="261" type="line"/>
			<point x="256" y="261" type="line"/>
			<point x="129" y="22" type="line"/>
			<point x="234" y="-23" type="line"/>
			<point x="436" y="365" type="line"/>
			<point x="473" y="429"/>
		</contour>
		<contour>
			<point x="242" y="369" type="qcurve" smooth="yes"/>
			<point x="191" y="369"/>
			<point x="122" y="441"/>
			<point x="122" y="492" type="qcurve" smooth="yes"/>
			<point x="122" y="542"/>
			<point x="191" y="612"/>
			<point x="242" y="612" type="qcurve" smooth="yes"/>
			<point x="292" y="612"/>
			<point x="361" y="542"/>
			<point x="361" y="492" type="qcurve" smooth="yes"/>
			<point x="361" y="441"/>
			<point x="292" y="369"/>
		</contour>
	</outline>
</glyph>
<glyph name="uni003A" format="2">
	<advance width="177"/>
	<unicode hex="003A"/>
	<note>
		uni003A
	</note>
	<outline>
		<contour>
			<point x="34" y="327" type="qcurve" smooth="yes"/>
			<point x="34" y="301"/>
			<point x="70" y="269"/>
			<point x="91" y="269" type="qcurve" smooth="yes"/>
			<point x="111" y="269"/>
			<point x="147" y="301"/>
			<point x="147" y="327" type="qcurve" smooth="yes"/>
			<point x="147" y="352"/>
			<point x="111" y="385"/>
			<point x="91" y="385" type="qcurve" smooth="yes"/>
			<point x="70" y="385"/>
			<point x="34" y="351"/>
		</contour>
		<contour>
			<point x="34" y="58" type="qcurve" smooth="yes"/>
			<point x="34" y="32"/>
			<point x="70" y="0"/>
			<point x="91" y="0" type="qcurve" smooth="yes"/>
			<point x="111" y="0"/>
			<point x="147" y="32"/>
			<point x="147" y="58" type="qcurve" smooth="yes"/>
			<point x="147" y="82"/>
			<point x="111" y="115"/>
			<point x="91" y="115" type="qcurve" smooth="yes"/>
			<point x="70" y="115"/>
			<point x="34" y="82"/>
		</contour>
	</outline>
</glyph>
<glyph name="uni003B" format="2">
	<advance width="203"/>
	<unicode hex="003B"/>
	<note>
		uni003B
	</note>
	<outline>
		<contour>
			<point x="65" y="295" type="qcurve" smooth="yes"/>
			<point x="65" y="266"/>
			<point x="105" y="231"/>
			<point x="128" y="231" type="qcurve" smooth="yes"/>
			<point x="152" y="231"/>
			<point x="191" y="266"/>
			<point x="191" y="295" type="qcurve" smooth="yes"/>
			<point x="191" y="323"/>
			<point x="152" y="359"/>
			<point x="128" y="359" type="qcurve" smooth="yes"/>
			<point x="105" y="359"/>
			<point x="65" y="322"/>
		</contour>
		<contour>
			<point x="66" y="87" type="line"/>
			<point x="47" y="35"/>
			<point x="8" y="-69"/>
			<point x="-12" y="-121" type="qcurve"/>
			<point x="88" y="-121" type="line"/>
			<point x="110" y="-68"/>
			<point x="153" y="35"/>
			<point x="175" y="87" type="qcurve"/>
		</contour>
	</outline>
</glyph>
<glyph name="uni003C" format="2">
	<advance width="601"/>
	<unicode hex="003C"/>
	<note>
		uni003C
	</note>
	<outline>
		<contour>
			<point x="508" y="395" type="line"/>
			<point x="508" y="499" type="line"/>
			<point x="65" y="241" type="line"/>
			<point x="508" y="-19" type="line"/>
			<point x="508" y="87" type="line"/>
			<point x="245" y="241" type="line"/>
		</contour>
	</outline>
</glyph>
<glyph name="uni003D" format="2">
	<advance width="717"/>
	<unicode hex="003D"/>
	<note>
		uni003D
	</note>
	<outline>
		<contour>
			<point x="101" y="310" type="line"/>
			<point x="613" y="310" type="line"/>
			<point x="613" y="395" type="line"/>
			<point x="101" y="395" type="line"/>
		</contour>
		<contour>
			<point x="101" y="114" type="line"/>
			<point x="613" y="114" type="line"/>
			<point x="613" y="198" type="line"/>
			<point x="101" y="198" type="line"/>
		</contour>
	</outline>
</glyph>
<glyph name="uni003E" format="2">
	<advance width="590"/>
	<unicode hex="003E"/>
	<note>
		uni003E
	</note>
	<outline>
		<contour>
			<point x="536" y="241" type="line"/>
			<point x="93" y="499" type="line"/>
			<point x="93" y="395" type="line"/>
			<point x="356" y="241" type="line"/>
			<point x="93" y="87" type="line"/>
			<point x="93" y="-19" type="line"/>
		</contour>
	</outline>
</glyph>
<glyph name="uni003F" format="2">
	<advance width="459"/>
	<unicode hex="003F"/>
	<note>
		uni003F
	</note>
	<outline>
		<contour>
			<point x="260" y="227" type="line"/>
			<point x="260" y="267"/>
			<point x="280" y="316"/>
			<point x="315" y="351"/>
			<point x="336" y="369" type="qcurve" smooth="yes"/>
			<point x="361" y="392"/>
			<point x="404" y="440"/>
			<point x="432" y="504"/>
			<point x="432" y="552" type="qcurve" smooth="yes"/>
			<point x="432" y="613"/>
			<point x="379" y="697"/>
			<point x="289" y="741"/>
			<point x="232" y="741" type="qcurve" smooth="yes"/>
			<point x="184" y="741"/>
			<point x="110" y="710"/>
			<point x="58" y="662"/>
			<point x="25" y="609"/>
			<point x="18" y="587" type="qcurve"/>
			<point x="95" y="551" type="line"/>
			<point x="105" y="579"/>
			<point x="139" y="626"/>
			<point x="190" y="655"/>
			<point x="223" y="655" type="qcurve" smooth="yes"/>
			<point x="252" y="655"/>
			<point x="302" y="627"/>
			<point x="333" y="577"/>
			<point x="333" y="544" type="qcurve" smooth="yes"/>
			<point x="333" y="498"/>
			<point x="288" y="441"/>
			<point x="257" y="415" type="qcurve" smooth="yes"/>
			<point x="235" y="396"/>
			<point x="193" y="356"/>
			<point x="167" y="297"/>
			<point x="167" y="248" type="qcurve" smooth="yes"/>
			<point x="167" y="185" type="line"/>
			<point x="260" y="185" type="line"/>
		</contour>
		<contour>
			<point x="215" y="4" type="qcurve" smooth="yes"/>
			<point x="240" y="4"/>
			<point x="273" y="34"/>
			<point x="273" y="58" type="qcurve" smooth="yes"/>
			<point x="273" y="80"/>
			<point x="240" y="111"/>
			<point x="215" y="111" type="qcurve" smooth="yes"/>
			<point x="189" y="111"/>
			<point x="155" y="80"/>
			<point x="155" y="58" type="qcurve" smooth="yes"/>
			<point x="155" y="34"/>
			<point x="189" y="4"/>
		</contour>
	</outline>
</glyph>
<glyph name="uni0040" format="2">
	<advance width="1027"/>
	<unicode hex="0040"/>
	<note>
		uni0040
	</note>
	<outline>
		<contour>
			<point x="862" y="371" type="qcurve" smooth="yes"/>
			<point x="862" y="443"/>
			<point x="806" y="570"/>
			<point x="753" y="617" type="qcurve" smooth="yes"/>
			<point x="706" y="658"/>
			<point x="587" y="702"/>
			<point x="523" y="702" type="qcurve" smooth="yes"/>
			<point x="511" y="702" type="line" smooth="yes"/>
			<point x="413" y="699"/>
			<point x="248" y="602"/>
			<point x="152" y="443"/>
			<point x="152" y="350" type="qcurve" smooth="yes"/>
			<point x="152" y="268"/>
			<point x="224" y="125"/>
			<point x="289" y="76" type="qcurve" smooth="yes"/>
			<point x="380" y="10"/>
			<point x="489" y="10" type="qcurve" smooth="yes"/>
			<point x="533" y="10"/>
			<point x="575" y="22" type="qcurve" smooth="yes"/>
			<point x="584" y="24" type="line"/>
			<point x="561" y="108" type="line"/>
			<point x="553" y="106" type="line" smooth="yes"/>
			<point x="522" y="97"/>
			<point x="489" y="97" type="qcurve" smooth="yes"/>
			<point x="408" y="97"/>
			<point x="341" y="146" type="qcurve" smooth="yes"/>
			<point x="293" y="181"/>
			<point x="238" y="288"/>
			<point x="238" y="348" type="qcurve" smooth="yes"/>
			<point x="238" y="400"/>
			<point x="277" y="493"/>
			<point x="315" y="531" type="qcurve" smooth="yes"/>
			<point x="355" y="570"/>
			<point x="458" y="614"/>
			<point x="514" y="615" type="qcurve" smooth="yes"/>
			<point x="523" y="615" type="line" smooth="yes"/>
			<point x="572" y="615"/>
			<point x="661" y="583"/>
			<point x="695" y="552" type="qcurve" smooth="yes"/>
			<point x="735" y="518"/>
			<point x="776" y="424"/>
			<point x="776" y="371" type="qcurve" smooth="yes"/>
			<point x="776" y="304"/>
			<point x="725" y="215"/>
			<point x="689" y="197" type="qcurve" smooth="yes"/>
			<point x="673" y="188"/>
			<point x="656" y="188" type="qcurve" smooth="yes"/>
			<point x="645" y="188"/>
			<point x="638" y="193" type="qcurve" smooth="yes"/>
			<point x="635" y="196"/>
			<point x="635" y="202" type="qcurve" smooth="yes"/>
			<point x="635" y="205" type="line"/>
			<point x="697" y="500" type="line"/>
			<point x="612" y="500" type="line"/>
			<point x="608" y="487" type="line"/>
			<point x="608" y="487"/>
			<point x="604" y="491" type="qcurve"/>
			<point x="576" y="511"/>
			<point x="529" y="511" type="qcurve" smooth="yes"/>
			<point x="487" y="511"/>
			<point x="442" y="490" type="qcurve" smooth="yes"/>
			<point x="401" y="469"/>
			<point x="368" y="432" type="qcurve"/>
			<point x="338" y="393"/>
			<point x="326" y="340" type="qcurve" smooth="yes"/>
			<point x="321" y="320"/>
			<point x="321" y="296" type="qcurve" smooth="yes"/>
			<point x="321" y="266"/>
			<point x="329" y="249" type="qcurve" smooth="yes"/>
			<point x="345" y="209"/>
			<point x="378" y="192" type="qcurve" smooth="yes"/>
			<point x="410" y="174"/>
			<point x="459" y="174" type="qcurve" smooth="yes"/>
			<point x="491" y="174"/>
			<point x="513" y="181" type="qcurve" smooth="yes"/>
			<point x="535" y="189"/>
			<point x="546" y="195" type="qcurve"/>
			<point x="546" y="192"/>
			<point x="547" y="191" type="qcurve"/>
			<point x="547" y="187" type="line"/>
			<point x="554" y="151"/>
			<point x="581" y="128" type="qcurve" smooth="yes"/>
			<point x="613" y="101"/>
			<point x="656" y="101" type="qcurve" smooth="yes"/>
			<point x="688" y="101"/>
			<point x="727" y="118" type="qcurve" smooth="yes"/>
			<point x="783" y="146"/>
			<point x="862" y="276"/>
		</contour>
		<contour>
			<point x="557" y="287" type="line"/>
			<point x="555" y="280" type="line"/>
			<point x="521" y="248"/>
			<point x="481" y="248" type="qcurve" smooth="yes"/>
			<point x="446" y="248"/>
			<point x="428" y="272" type="qcurve" smooth="yes"/>
			<point x="412" y="293"/>
			<point x="412" y="320" type="qcurve" smooth="yes"/>
			<point x="412" y="350"/>
			<point x="445" y="403"/>
			<point x="497" y="435"/>
			<point x="524" y="435" type="qcurve" smooth="yes"/>
			<point x="547" y="435"/>
			<point x="581" y="413"/>
			<point x="589" y="393" type="qcurve"/>
			<point x="567" y="293" type="line"/>
			<point x="561" y="286" type="line"/>
		</contour>
	</outline>
</glyph>
<glyph name="A" format="2">
	<advance width="624"/>
	<unicode hex="0041"/>
	<note>
		A
	</note>
	<outline>
		<contour>
			<point x="369" y="575" type="line"/>
			<point x="256" y="575" type="line"/>
			<point x="12" y="0" type="line"/>
			<point x="119" y="0" type="line"/>
			<point x="186" y="163" type="line"/>
			<point x="426" y="163" type="line"/>
			<point x="490" y="0" type="line"/>
			<point x="612" y="0" type="line"/>
		</contour>
		<contour>
			<point x="394" y="257" type="line"/>
			<point x="230" y="257" type="line"/>
			<point x="314" y="460" type="line"/>
		</contour>
	</outline>
</glyph>
<glyph name="B" format="2">
	<advance width="491"/>
	<unicode hex="0042"/>
	<note>
		B
	</note>
	<outline>
		<contour>
			<point x="440" y="256" type="qcurve" smooth="yes"/>
			<point x="416" y="284"/>
			<point x="379" y="302" type="qcurve"/>
			<point x="403" y="318"/>
			<point x="419" y="342" type="qcurve" smooth="yes"/>
			<point x="443" y="378"/>
			<point x="443" y="427" type="qcurve" smooth="yes"/>
			<point x="443" y="503"/>
			<point x="387" y="541" type="qcurve" smooth="yes"/>
			<point x="334" y="577"/>
			<point x="242" y="577" type="qcurve" smooth="yes"/>
			<point x="38" y="577" type="line"/>
			<point x="38" y="2" type="line"/>
			<point x="265" y="2" type="line" smooth="yes"/>
			<point x="304" y="2"/>
			<point x="340" y="11" type="qcurve" smooth="yes"/>
			<point x="375" y="20"/>
			<point x="406" y="40" type="qcurve" smooth="yes"/>
			<point x="436" y="62"/>
			<point x="453" y="93" type="qcurve" smooth="yes"/>
			<point x="471" y="125"/>
			<point x="471" y="170" type="qcurve" smooth="yes"/>
			<point x="471" y="219"/>
		</contour>
		<contour>
			<point x="264" y="483" type="line"/>
			<point x="298" y="483"/>
			<point x="345" y="439"/>
			<point x="345" y="407" type="qcurve" smooth="yes"/>
			<point x="345" y="386"/>
			<point x="322" y="351"/>
			<point x="302" y="341" type="qcurve" smooth="yes"/>
			<point x="300" y="340" type="line" smooth="yes"/>
			<point x="296" y="338"/>
			<point x="294" y="338" type="qcurve"/>
			<point x="281" y="332"/>
			<point x="264" y="332" type="qcurve" smooth="yes"/>
			<point x="139" y="332" type="line"/>
			<point x="139" y="483" type="line"/>
		</contour>
		<contour>
			<point x="282" y="239" type="line"/>
			<point x="320" y="239"/>
			<point x="373" y="196"/>
			<point x="373" y="165" type="qcurve" smooth="yes"/>
			<point x="373" y="135"/>
			<point x="319" y="92"/>
			<point x="282" y="92" type="qcurve" smooth="yes"/>
			<point x="139" y="92" type="line"/>
			<point x="139" y="239" type="line"/>
		</contour>
	</outline>
</glyph>
<glyph name="C" format="2">
	<advance width="567"/>
	<unicode hex="0043"/>
	<note>
		C
	</note>
	<outline>
		<contour>
			<point x="488" y="141" type="line"/>
			<point x="462" y="124"/>
			<point x="431" y="113" type="qcurve" smooth="yes"/>
			<point x="393" y="102"/>
			<point x="349" y="102" type="qcurve" smooth="yes"/>
			<point x="345" y="102" type="line"/>
			<point x="343" y="102" type="line" smooth="yes"/>
			<point x="283" y="102"/>
			<point x="183" y="153"/>
			<point x="124" y="239"/>
			<point x="124" y="290" type="qcurve" smooth="yes"/>
			<point x="124" y="341"/>
			<point x="183" y="427"/>
			<point x="283" y="478"/>
			<point x="343" y="478" type="qcurve" smooth="yes"/>
			<point x="344" y="478" type="line"/>
			<point x="345" y="478" type="line" smooth="yes"/>
			<point x="385" y="478"/>
			<point x="415" y="468" type="qcurve" smooth="yes"/>
			<point x="442" y="459"/>
			<point x="457" y="451" type="qcurve" smooth="yes"/>
			<point x="461" y="449"/>
			<point x="475" y="442"/>
			<point x="482" y="437" type="qcurve" smooth="yes"/>
			<point x="495" y="430" type="line"/>
			<point x="542" y="526" type="line"/>
			<point x="532" y="531" type="line" smooth="yes"/>
			<point x="497" y="550"/>
			<point x="451" y="563" type="qcurve" smooth="yes"/>
			<point x="405" y="577"/>
			<point x="342" y="577" type="qcurve" smooth="yes"/>
			<point x="270" y="577"/>
			<point x="212" y="556" type="qcurve" smooth="yes"/>
			<point x="150" y="532"/>
			<point x="109" y="494" type="qcurve" smooth="yes"/>
			<point x="65" y="454"/>
			<point x="41" y="401" type="qcurve" smooth="yes"/>
			<point x="18" y="347"/>
			<point x="18" y="285" type="qcurve" smooth="yes"/>
			<point x="18" y="226"/>
			<point x="41" y="177" type="qcurve" smooth="yes"/>
			<point x="63" y="127"/>
			<point x="106" y="87" type="qcurve" smooth="yes"/>
			<point x="150" y="47"/>
			<point x="210" y="25" type="qcurve" smooth="yes"/>
			<point x="273" y="3"/>
			<point x="347" y="2" type="qcurve" smooth="yes"/>
			<point x="355" y="2" type="line" smooth="yes"/>
			<point x="394" y="2"/>
			<point x="432" y="10" type="qcurve" smooth="yes"/>
			<point x="472" y="20"/>
			<point x="499" y="31" type="qcurve" smooth="yes"/>
			<point x="532" y="45"/>
			<point x="541" y="51" type="qcurve" smooth="yes"/>
			<point x="551" y="56" type="line"/>
			<point x="500" y="149" type="line"/>
		</contour>
	</outline>
</glyph>
<glyph name="D" format="2">
	<advance width="569"/>
	<unicode hex="0044"/>
	<note>
		D
	</note>
	<outline>
		<contour>
			<point x="539" y="387" type="qcurve" smooth="yes"/>
			<point x="521" y="440"/>
			<point x="482" y="482" type="qcurve" smooth="yes"/>
			<point x="443" y="526"/>
			<point x="380" y="551" type="qcurve" smooth="yes"/>
			<point x="316" y="577"/>
			<point x="229" y="577" type="qcurve" smooth="yes"/>
			<point x="38" y="577" type="line"/>
			<point x="38" y="2" type="line"/>
			<point x="257" y="2" type="line" smooth="yes"/>
			<point x="314" y="2"/>
			<point x="371" y="21" type="qcurve" smooth="yes"/>
			<point x="426" y="41"/>
			<point x="466" y="78" type="qcurve" smooth="yes"/>
			<point x="507" y="113"/>
			<point x="532" y="166" type="qcurve" smooth="yes"/>
			<point x="556" y="217"/>
			<point x="556" y="282" type="qcurve" smooth="yes"/>
			<point x="556" y="333"/>
		</contour>
		<contour>
			<point x="436" y="207" type="qcurve" smooth="yes"/>
			<point x="421" y="172"/>
			<point x="392" y="147" type="qcurve" smooth="yes"/>
			<point x="364" y="122"/>
			<point x="326" y="110" type="qcurve" smooth="yes"/>
			<point x="284" y="97"/>
			<point x="241" y="97" type="qcurve" smooth="yes"/>
			<point x="140" y="97" type="line"/>
			<point x="140" y="482" type="line"/>
			<point x="252" y="482" type="line" smooth="yes"/>
			<point x="290" y="482"/>
			<point x="324" y="470" type="qcurve" smooth="yes"/>
			<point x="358" y="460"/>
			<point x="388" y="435" type="qcurve" smooth="yes"/>
			<point x="418" y="409"/>
			<point x="434" y="374" type="qcurve" smooth="yes"/>
			<point x="451" y="340"/>
			<point x="451" y="288" type="qcurve" smooth="yes"/>
			<point x="451" y="242"/>
		</contour>
	</outline>
</glyph>
<glyph name="E" format="2">
	<advance width="557"/>
	<unicode hex="0045"/>
	<note>
		E
	</note>
	<outline>
		<contour>
			<point x="148" y="103" type="line"/>
			<point x="544" y="103" type="line"/>
			<point x="544" y="2" type="line"/>
			<point x="38" y="2" type="line"/>
			<point x="38" y="577" type="line"/>
			<point x="529" y="577" type="line"/>
			<point x="529" y="476" type="line"/>
			<point x="148" y="476" type="line"/>
			<point x="148" y="335" type="line"/>
			<point x="487" y="335" type="line"/>
			<point x="487" y="234" type="line"/>
			<point x="148" y="234" type="line"/>
		</contour>
	</outline>
</glyph>
<glyph name="F" format="2">
	<advance width="514"/>
	<unicode hex="0046"/>
	<note>
		F
	</note>
	<outline>
		<contour>
			<point x="149" y="-1" type="line"/>
			<point x="38" y="-1" type="line"/>
			<point x="38" y="574" type="line"/>
			<point x="490" y="574" type="line"/>
			<point x="490" y="472" type="line"/>
			<point x="149" y="472" type="line"/>
			<point x="149" y="332" type="line"/>
			<point x="447" y="332" type="line"/>
			<point x="447" y="231" type="line"/>
			<point x="149" y="231" type="line"/>
		</contour>
	</outline>
</glyph>
<glyph name="G" format="2">
	<advance width="574"/>
	<unicode hex="0047"/>
	<note>
		G
	</note>
	<outline>
		<contour>
			<point x="453" y="228" type="line"/>
			<point x="453" y="125" type="line"/>
			<point x="451" y="124"/>
			<point x="426" y="114" type="qcurve"/>
			<point x="390" y="103"/>
			<point x="345" y="103" type="qcurve" smooth="yes"/>
			<point x="340" y="103" type="line"/>
			<point x="339" y="103" type="line" smooth="yes"/>
			<point x="279" y="103"/>
			<point x="179" y="154"/>
			<point x="120" y="240"/>
			<point x="120" y="291" type="qcurve" smooth="yes"/>
			<point x="120" y="342"/>
			<point x="179" y="428"/>
			<point x="279" y="479"/>
			<point x="339" y="479" type="qcurve" smooth="yes"/>
			<point x="340" y="479" type="line"/>
			<point x="341" y="479" type="line" smooth="yes"/>
			<point x="380" y="479"/>
			<point x="410" y="469" type="qcurve" smooth="yes"/>
			<point x="440" y="459"/>
			<point x="453" y="452" type="qcurve" smooth="yes"/>
			<point x="457" y="450"/>
			<point x="471" y="443"/>
			<point x="478" y="438" type="qcurve" smooth="yes"/>
			<point x="491" y="431" type="line"/>
			<point x="537" y="527" type="line"/>
			<point x="528" y="532" type="line" smooth="yes"/>
			<point x="494" y="550"/>
			<point x="446" y="564" type="qcurve" smooth="yes"/>
			<point x="401" y="578"/>
			<point x="337" y="578" type="qcurve" smooth="yes"/>
			<point x="266" y="578"/>
			<point x="208" y="557" type="qcurve" smooth="yes"/>
			<point x="148" y="534"/>
			<point x="104" y="495" type="qcurve" smooth="yes"/>
			<point x="61" y="457"/>
			<point x="37" y="402" type="qcurve" smooth="yes"/>
			<point x="13" y="350"/>
			<point x="13" y="286" type="qcurve" smooth="yes"/>
			<point x="13" y="229"/>
			<point x="37" y="178" type="qcurve" smooth="yes"/>
			<point x="59" y="128"/>
			<point x="102" y="88" type="qcurve" smooth="yes"/>
			<point x="147" y="48"/>
			<point x="206" y="26" type="qcurve" smooth="yes"/>
			<point x="267" y="5"/>
			<point x="343" y="3" type="qcurve" smooth="yes"/>
			<point x="351" y="3" type="line" smooth="yes"/>
			<point x="390" y="3"/>
			<point x="428" y="11" type="qcurve" smooth="yes"/>
			<point x="466" y="20"/>
			<point x="494" y="32" type="qcurve" smooth="yes"/>
			<point x="526" y="46"/>
			<point x="537" y="52" type="qcurve" smooth="yes"/>
			<point x="545" y="56" type="line"/>
			<point x="546" y="56" type="line"/>
			<point x="546" y="321" type="line"/>
			<point x="319" y="321" type="line"/>
			<point x="319" y="228" type="line"/>
		</contour>
	</outline>
</glyph>
<glyph name="H" format="2">
	<advance width="594"/>
	<unicode hex="0048"/>
	<note>
		H
	</note>
	<outline>
		<contour>
			<point x="146" y="577" type="line"/>
			<point x="146" y="340" type="line"/>
			<point x="448" y="340" type="line"/>
			<point x="448" y="577" type="line"/>
			<point x="556" y="577" type="line"/>
			<point x="556" y="2" type="line"/>
			<point x="448" y="2" type="line"/>
			<point x="448" y="240" type="line"/>
			<point x="146" y="240" type="line"/>
			<point x="146" y="2" type="line"/>
			<point x="38" y="2" type="line"/>
			<point x="38" y="577" type="line"/>
		</contour>
	</outline>
</glyph>
<glyph name="I" format="2">
	<advance width="292"/>
	<unicode hex="0049"/>
	<note>
		I
	</note>
	<outline>
		<contour>
			<point x="255" y="0" type="line"/>
			<point x="255" y="94" type="line"/>
			<point x="199" y="94" type="line"/>
			<point x="199" y="482" type="line"/>
			<point x="255" y="482" type="line"/>
			<point x="255" y="575" type="line"/>
			<point x="37" y="575" type="line"/>
			<point x="37" y="482" type="line"/>
			<point x="94" y="482" type="line"/>
			<point x="94" y="94" type="line"/>
			<point x="37" y="94" type="line"/>
			<point x="37" y="0" type="line"/>
		</contour>
	</outline>
</glyph>
<glyph name="J" format="2">
	<advance width="255"/>
	<unicode hex="004A"/>
	<note>
		J
	</note>
	<outline>
		<contour>
			<point x="221" y="230" type="line"/>
			<point x="221" y="160"/>
			<point x="193" y="111" type="qcurve" smooth="yes"/>
			<point x="164" y="60"/>
			<point x="115" y="35" type="qcurve" smooth="yes"/>
			<point x="64" y="9"/>
			<point x="2" y="6" type="qcurve"/>
			<point x="2" y="95" type="line"/>
			<point x="52" y="104"/>
			<point x="92" y="132" type="qcurve" smooth="yes"/>
			<point x="129" y="158"/>
			<point x="129" y="239" type="qcurve" smooth="yes"/>
			<point x="129" y="581" type="line"/>
			<point x="221" y="581" type="line"/>
		</contour>
	</outline>
</glyph>
<glyph name="K" format="2">
	<advance width="497"/>
	<unicode hex="004B"/>
	<note>
		K
	</note>
	<outline>
		<contour>
			<point x="141" y="1" type="line"/>
			<point x="141" y="229" type="line"/>
			<point x="177" y="263" type="line"/>
			<point x="382" y="1" type="line"/>
			<point x="511" y="1" type="line"/>
			<point x="258" y="321" type="line"/>
			<point x="511" y="558" type="line"/>
			<point x="369" y="558" type="line"/>
			<point x="140" y="345" type="line"/>
			<point x="141" y="348" type="line"/>
			<point x="141" y="576" type="line"/>
			<point x="38" y="576" type="line"/>
			<point x="38" y="1" type="line"/>
		</contour>
	</outline>
</glyph>
<glyph name="L" format="2">
	<advance width="410"/>
	<unicode hex="004C"/>
	<note>
		L
	</note>
	<outline>
		<contour>
			<point x="143" y="101" type="line"/>
			<point x="409" y="101" type="line"/>
			<point x="409" y="5" type="line"/>
			<point x="38" y="5" type="line"/>
			<point x="38" y="580" type="line"/>
			<point x="143" y="580" type="line"/>
		</contour>
	</outline>
</glyph>
<glyph name="M" format="2">
	<advance width="809"/>
	<unicode hex="004D"/>
	<note>
		M
	</note>
	<outline>
		<contour>
			<point x="664" y="3" type="line"/>
			<point x="771" y="3" type="line"/>
			<point x="771" y="578" type="line"/>
			<point x="647" y="578" type="line"/>
			<point x="407" y="242" type="line"/>
			<point x="167" y="578" type="line"/>
			<point x="38" y="578" type="line"/>
			<point x="38" y="3" type="line"/>
			<point x="148" y="3" type="line"/>
			<point x="148" y="438" type="line"/>
			<point x="406" y="78" type="line"/>
			<point x="408" y="74" type="line"/>
			<point x="664" y="423" type="line"/>
		</contour>
	</outline>
</glyph>
<glyph name="N" format="2">
	<advance width="645"/>
	<unicode hex="004E"/>
	<note>
		N
	</note>
	<outline>
		<contour>
			<point x="607" y="4" type="line"/>
			<point x="607" y="579" type="line"/>
			<point x="499" y="579" type="line"/>
			<point x="501" y="149" type="line"/>
			<point x="154" y="577" type="line"/>
			<point x="38" y="577" type="line"/>
			<point x="38" y="4" type="line"/>
			<point x="147" y="4" type="line"/>
			<point x="144" y="435" type="line"/>
			<point x="491" y="4" type="line"/>
		</contour>
	</outline>
</glyph>
<glyph name="O" format="2">
	<advance width="637"/>
	<unicode hex="004F"/>
	<note>
		O
	</note>
	<outline>
		<contour>
			<point x="597" y="401" type="qcurve" smooth="yes"/>
			<point x="573" y="453"/>
			<point x="531" y="493" type="qcurve" smooth="yes"/>
			<point x="490" y="533"/>
			<point x="434" y="556" type="qcurve" smooth="yes"/>
			<point x="379" y="579"/>
			<point x="318" y="579" type="qcurve" smooth="yes"/>
			<point x="258" y="579"/>
			<point x="201" y="556" type="qcurve" smooth="yes"/>
			<point x="146" y="533"/>
			<point x="106" y="493" type="qcurve" smooth="yes"/>
			<point x="66" y="455"/>
			<point x="41" y="401" type="qcurve" smooth="yes"/>
			<point x="18" y="347"/>
			<point x="18" y="291" type="qcurve" smooth="yes"/>
			<point x="18" y="230"/>
			<point x="41" y="178" type="qcurve" smooth="yes"/>
			<point x="66" y="123"/>
			<point x="106" y="86" type="qcurve" smooth="yes"/>
			<point x="144" y="49"/>
			<point x="202" y="25" type="qcurve" smooth="yes"/>
			<point x="256" y="4"/>
			<point x="318" y="4" type="qcurve" smooth="yes"/>
			<point x="381" y="4"/>
			<point x="435" y="26" type="qcurve" smooth="yes"/>
			<point x="490" y="47"/>
			<point x="531" y="87" type="qcurve" smooth="yes"/>
			<point x="574" y="128"/>
			<point x="597" y="179" type="qcurve" smooth="yes"/>
			<point x="620" y="231"/>
			<point x="620" y="291" type="qcurve" smooth="yes"/>
			<point x="620" y="347"/>
		</contour>
		<contour>
			<point x="121" y="291" type="qcurve" smooth="yes"/>
			<point x="121" y="329"/>
			<point x="135" y="366" type="qcurve" smooth="yes"/>
			<point x="150" y="401"/>
			<point x="177" y="428" type="qcurve" smooth="yes"/>
			<point x="206" y="455"/>
			<point x="241" y="470" type="qcurve" smooth="yes"/>
			<point x="278" y="486"/>
			<point x="319" y="486" type="qcurve" smooth="yes"/>
			<point x="358" y="486"/>
			<point x="396" y="470" type="qcurve" smooth="yes"/>
			<point x="434" y="454"/>
			<point x="460" y="428" type="qcurve" smooth="yes"/>
			<point x="489" y="397"/>
			<point x="502" y="366" type="qcurve" smooth="yes"/>
			<point x="518" y="333"/>
			<point x="518" y="291" type="qcurve" smooth="yes"/>
			<point x="518" y="250"/>
			<point x="503" y="215" type="qcurve" smooth="yes"/>
			<point x="487" y="180"/>
			<point x="460" y="153" type="qcurve" smooth="yes"/>
			<point x="432" y="127"/>
			<point x="398" y="112" type="qcurve" smooth="yes"/>
			<point x="362" y="97"/>
			<point x="321" y="97" type="qcurve" smooth="yes"/>
			<point x="279" y="97"/>
			<point x="243" y="112" type="qcurve" smooth="yes"/>
			<point x="206" y="127"/>
			<point x="179" y="153" type="qcurve" smooth="yes"/>
			<point x="151" y="181"/>
			<point x="136" y="215" type="qcurve" smooth="yes"/>
			<point x="121" y="250"/>
		</contour>
	</outline>
</glyph>
<glyph name="P" format="2">
	<advance width="527"/>
	<unicode hex="0050"/>
	<note>
		P
	</note>
	<outline>
		<contour>
			<point x="288" y="574" type="line"/>
			<point x="358" y="574"/>
			<point x="406" y="552" type="qcurve" smooth="yes"/>
			<point x="456" y="529"/>
			<point x="481" y="488" type="qcurve" smooth="yes"/>
			<point x="507" y="445"/>
			<point x="507" y="387" type="qcurve" smooth="yes"/>
			<point x="507" y="354"/>
			<point x="496" y="318" type="qcurve" smooth="yes"/>
			<point x="486" y="286"/>
			<point x="461" y="256" type="qcurve" smooth="yes"/>
			<point x="437" y="229"/>
			<point x="396" y="211" type="qcurve" smooth="yes"/>
			<point x="358" y="195"/>
			<point x="299" y="195" type="qcurve" smooth="yes"/>
			<point x="146" y="195" type="line"/>
			<point x="146" y="-1" type="line"/>
			<point x="38" y="-1" type="line"/>
			<point x="38" y="574" type="line"/>
		</contour>
		<contour>
			<point x="305" y="289" type="line"/>
			<point x="336" y="289"/>
			<point x="355" y="299" type="qcurve" smooth="yes"/>
			<point x="374" y="307"/>
			<point x="387" y="323" type="qcurve" smooth="yes"/>
			<point x="398" y="337"/>
			<point x="403" y="354" type="qcurve" smooth="yes"/>
			<point x="408" y="372"/>
			<point x="408" y="383" type="qcurve" smooth="yes"/>
			<point x="408" y="395"/>
			<point x="403" y="413" type="qcurve" smooth="yes"/>
			<point x="398" y="430"/>
			<point x="387" y="443" type="qcurve" smooth="yes"/>
			<point x="376" y="457"/>
			<point x="357" y="466" type="qcurve" smooth="yes"/>
			<point x="337" y="475"/>
			<point x="308" y="475" type="qcurve" smooth="yes"/>
			<point x="146" y="475" type="line"/>
			<point x="146" y="289" type="line"/>
		</contour>
	</outline>
</glyph>
<glyph name="Q" format="2">
	<advance width="640"/>
	<unicode hex="0051"/>
	<note>
		Q
	</note>
	<outline>
		<contour>
			<point x="540" y="102" type="line"/>
			<point x="573" y="138"/>
			<point x="592" y="179" type="qcurve" smooth="yes"/>
			<point x="615" y="233"/>
			<point x="615" y="291" type="qcurve" smooth="yes"/>
			<point x="615" y="347"/>
			<point x="592" y="401" type="qcurve" smooth="yes"/>
			<point x="567" y="454"/>
			<point x="526" y="492" type="qcurve" smooth="yes"/>
			<point x="484" y="532"/>
			<point x="430" y="555" type="qcurve" smooth="yes"/>
			<point x="375" y="578"/>
			<point x="314" y="578" type="qcurve" smooth="yes"/>
			<point x="253" y="578"/>
			<point x="198" y="555" type="qcurve" smooth="yes"/>
			<point x="144" y="532"/>
			<point x="102" y="492" type="qcurve" smooth="yes"/>
			<point x="66" y="457"/>
			<point x="41" y="401" type="qcurve" smooth="yes"/>
			<point x="18" y="351"/>
			<point x="18" y="291" type="qcurve" smooth="yes"/>
			<point x="18" y="228"/>
			<point x="41" y="178" type="qcurve" smooth="yes"/>
			<point x="65" y="123"/>
			<point x="102" y="87" type="qcurve" smooth="yes"/>
			<point x="143" y="49"/>
			<point x="198" y="26" type="qcurve" smooth="yes"/>
			<point x="252" y="5"/>
			<point x="314" y="5" type="qcurve" smooth="yes"/>
			<point x="377" y="5"/>
			<point x="430" y="27" type="qcurve" smooth="yes"/>
			<point x="438" y="30"/>
			<point x="458" y="39"/>
			<point x="463" y="42" type="qcurve"/>
			<point x="495" y="5" type="line"/>
			<point x="624" y="3" type="line"/>
		</contour>
		<contour>
			<point x="393" y="112" type="line"/>
			<point x="357" y="98"/>
			<point x="316" y="98" type="qcurve" smooth="yes"/>
			<point x="276" y="98"/>
			<point x="239" y="112" type="qcurve" smooth="yes"/>
			<point x="201" y="128"/>
			<point x="175" y="154" type="qcurve" smooth="yes"/>
			<point x="150" y="178"/>
			<point x="132" y="215" type="qcurve" smooth="yes"/>
			<point x="117" y="250"/>
			<point x="117" y="291" type="qcurve" smooth="yes"/>
			<point x="117" y="330"/>
			<point x="132" y="366" type="qcurve" smooth="yes"/>
			<point x="145" y="399"/>
			<point x="174" y="428" type="qcurve" smooth="yes"/>
			<point x="201" y="455"/>
			<point x="237" y="470" type="qcurve" smooth="yes"/>
			<point x="271" y="485"/>
			<point x="315" y="485" type="qcurve" smooth="yes"/>
			<point x="356" y="485"/>
			<point x="392" y="470" type="qcurve" smooth="yes"/>
			<point x="428" y="455"/>
			<point x="455" y="428" type="qcurve" smooth="yes"/>
			<point x="482" y="401"/>
			<point x="497" y="366" type="qcurve" smooth="yes"/>
			<point x="513" y="333"/>
			<point x="513" y="291" type="qcurve" smooth="yes"/>
			<point x="513" y="250"/>
			<point x="498" y="215" type="qcurve" smooth="yes"/>
			<point x="492" y="201"/>
			<point x="476" y="177" type="qcurve"/>
			<point x="443" y="215" type="line"/>
			<point x="315" y="217" type="line"/>
			<point x="401" y="116" type="line"/>
		</contour>
	</outline>
</glyph>
<glyph name="R" format="2">
	<advance width="524"/>
	<unicode hex="0052"/>
	<note>
		R
	</note>
	<outline>
		<contour>
			<point x="370" y="219" type="line"/>
			<point x="376" y="222"/>
			<point x="396" y="232"/>
			<point x="418" y="247"/>
			<point x="433" y="262" type="qcurve" smooth="yes"/>
			<point x="457" y="289"/>
			<point x="468" y="323" type="qcurve" smooth="yes"/>
			<point x="479" y="359"/>
			<point x="479" y="391" type="qcurve" smooth="yes"/>
			<point x="479" y="435"/>
			<point x="462" y="471" type="qcurve" smooth="yes"/>
			<point x="447" y="504"/>
			<point x="417" y="528" type="qcurve" smooth="yes"/>
			<point x="387" y="552"/>
			<point x="347" y="564" type="qcurve" smooth="yes"/>
			<point x="307" y="576"/>
			<point x="260" y="576" type="qcurve" smooth="yes"/>
			<point x="38" y="576" type="line"/>
			<point x="38" y="1" type="line"/>
			<point x="140" y="1" type="line"/>
			<point x="140" y="202" type="line"/>
			<point x="259" y="202" type="line"/>
			<point x="395" y="1" type="line"/>
			<point x="513" y="1" type="line"/>
		</contour>
		<contour>
			<point x="323" y="472" type="qcurve" smooth="yes"/>
			<point x="341" y="464"/>
			<point x="354" y="449" type="qcurve" smooth="yes"/>
			<point x="365" y="434"/>
			<point x="370" y="419" type="qcurve" smooth="yes"/>
			<point x="375" y="402"/>
			<point x="375" y="389" type="qcurve" smooth="yes"/>
			<point x="375" y="375"/>
			<point x="370" y="358" type="qcurve" smooth="yes"/>
			<point x="366" y="343"/>
			<point x="354" y="328" type="qcurve" smooth="yes"/>
			<point x="342" y="314"/>
			<point x="322" y="305" type="qcurve" smooth="yes"/>
			<point x="299" y="295"/>
			<point x="269" y="295" type="qcurve" smooth="yes"/>
			<point x="140" y="295" type="line"/>
			<point x="140" y="482" type="line"/>
			<point x="274" y="482" type="line" smooth="yes"/>
			<point x="304" y="482"/>
		</contour>
	</outline>
</glyph>
<glyph name="S" format="2">
	<advance width="523"/>
	<unicode hex="0053"/>
	<note>
		S
	</note>
	<outline>
		<contour>
			<point x="486" y="237" type="qcurve" smooth="yes"/>
			<point x="472" y="264"/>
			<point x="444" y="285" type="qcurve" smooth="yes"/>
			<point x="412" y="306"/>
			<point x="385" y="316" type="qcurve" smooth="yes"/>
			<point x="357" y="328"/>
			<point x="322" y="338" type="qcurve" smooth="yes"/>
			<point x="278" y="352"/>
			<point x="252" y="362" type="qcurve" smooth="yes"/>
			<point x="219" y="374"/>
			<point x="199" y="391" type="qcurve" smooth="yes"/>
			<point x="181" y="406"/>
			<point x="181" y="426" type="qcurve" smooth="yes"/>
			<point x="181" y="454"/>
			<point x="209" y="472" type="qcurve" smooth="yes"/>
			<point x="238" y="490"/>
			<point x="290" y="490" type="qcurve" smooth="yes"/>
			<point x="330" y="490"/>
			<point x="370" y="480" type="qcurve" smooth="yes"/>
			<point x="409" y="470"/>
			<point x="447" y="454" type="qcurve" smooth="yes"/>
			<point x="453" y="452" type="line"/>
			<point x="501" y="527" type="line"/>
			<point x="493" y="531" type="line" smooth="yes"/>
			<point x="454" y="550"/>
			<point x="399" y="564" type="qcurve" smooth="yes"/>
			<point x="345" y="578"/>
			<point x="275" y="578" type="qcurve" smooth="yes"/>
			<point x="210" y="575"/>
			<point x="164" y="556" type="qcurve" smooth="yes"/>
			<point x="115" y="536"/>
			<point x="88" y="502" type="qcurve" smooth="yes"/>
			<point x="60" y="467"/>
			<point x="60" y="420" type="qcurve" smooth="yes"/>
			<point x="60" y="379"/>
			<point x="79" y="353" type="qcurve" smooth="yes"/>
			<point x="96" y="327"/>
			<point x="128" y="308" type="qcurve" smooth="yes"/>
			<point x="153" y="294"/>
			<point x="191" y="278" type="qcurve"/>
			<point x="258" y="256" type="line" smooth="yes"/>
			<point x="286" y="248"/>
			<point x="320" y="234" type="qcurve" smooth="yes"/>
			<point x="347" y="222"/>
			<point x="364" y="205" type="qcurve" smooth="yes"/>
			<point x="380" y="189"/>
			<point x="380" y="167" type="qcurve" smooth="yes"/>
			<point x="380" y="141"/>
			<point x="362" y="124" type="qcurve" smooth="yes"/>
			<point x="346" y="108"/>
			<point x="315" y="98" type="qcurve" smooth="yes"/>
			<point x="283" y="90"/>
			<point x="254" y="90" type="qcurve" smooth="yes"/>
			<point x="226" y="90"/>
			<point x="195" y="96" type="qcurve" smooth="yes"/>
			<point x="161" y="104"/>
			<point x="135" y="115" type="qcurve" smooth="yes"/>
			<point x="106" y="125"/>
			<point x="83" y="139" type="qcurve" smooth="yes"/>
			<point x="77" y="142" type="line"/>
			<point x="21" y="66" type="line"/>
			<point x="29" y="62" type="line" smooth="yes"/>
			<point x="58" y="46"/>
			<point x="97" y="32" type="qcurve" smooth="yes"/>
			<point x="144" y="17"/>
			<point x="177" y="11" type="qcurve" smooth="yes"/>
			<point x="222" y="3"/>
			<point x="264" y="3" type="qcurve" smooth="yes"/>
			<point x="339" y="3"/>
			<point x="391" y="24" type="qcurve" smooth="yes"/>
			<point x="445" y="47"/>
			<point x="473" y="83" type="qcurve" smooth="yes"/>
			<point x="502" y="121"/>
			<point x="502" y="168" type="qcurve" smooth="yes"/>
			<point x="502" y="209"/>
		</contour>
	</outline>
</glyph>
<glyph name="T" format="2">
	<advance width="478"/>
	<unicode hex="0054"/>
	<note>
		T
	</note>
	<outline>
		<contour>
			<point x="-5" y="577" type="line"/>
			<point x="494" y="577" type="line"/>
			<point x="494" y="476" type="line"/>
			<point x="297" y="476" type="line"/>
			<point x="297" y="2" type="line"/>
			<point x="186" y="2" type="line"/>
			<point x="186" y="476" type="line"/>
			<point x="-5" y="476" type="line"/>
		</contour>
	</outline>
</glyph>
<glyph name="U" format="2">
	<advance width="608"/>
	<unicode hex="0055"/>
	<note>
		U
	</note>
	<outline>
		<contour>
			<point x="139" y="265" type="line"/>
			<point x="139" y="221"/>
			<point x="162" y="184" type="qcurve" smooth="yes"/>
			<point x="182" y="149"/>
			<point x="220" y="127" type="qcurve" smooth="yes"/>
			<point x="257" y="106"/>
			<point x="302" y="106" type="qcurve" smooth="yes"/>
			<point x="351" y="106"/>
			<point x="388" y="127" type="qcurve" smooth="yes"/>
			<point x="426" y="148"/>
			<point x="448" y="184" type="qcurve" smooth="yes"/>
			<point x="469" y="220"/>
			<point x="469" y="265" type="qcurve" smooth="yes"/>
			<point x="469" y="581" type="line"/>
			<point x="571" y="581" type="line"/>
			<point x="571" y="262" type="line" smooth="yes"/>
			<point x="571" y="186"/>
			<point x="535" y="127" type="qcurve" smooth="yes"/>
			<point x="498" y="69"/>
			<point x="438" y="38" type="qcurve" smooth="yes"/>
			<point x="377" y="6"/>
			<point x="302" y="6" type="qcurve" smooth="yes"/>
			<point x="230" y="6"/>
			<point x="168" y="38" type="qcurve" smooth="yes"/>
			<point x="108" y="69"/>
			<point x="72" y="127" type="qcurve" smooth="yes"/>
			<point x="37" y="186"/>
			<point x="37" y="262" type="qcurve" smooth="yes"/>
			<point x="37" y="581" type="line"/>
			<point x="139" y="581" type="line"/>
		</contour>
	</outline>
</glyph>
<glyph name="V" format="2">
	<advance width="649"/>
	<unicode hex="0056"/>
	<note>
		V
	</note>
	<outline>
		<contour>
			<point x="665" y="575" type="line"/>
			<point x="540" y="575" type="line"/>
			<point x="331" y="155" type="line"/>
			<point x="114" y="575" type="line"/>
			<point x="-5" y="575" type="line"/>
			<point x="288" y="0" type="line"/>
			<point x="371" y="0" type="line"/>
		</contour>
	</outline>
</glyph>
<glyph name="W" format="2">
	<advance width="905"/>
	<unicode hex="0057"/>
	<note>
		W
	</note>
	<outline>
		<contour>
			<point x="364" y="574" type="line"/>
			<point x="414" y="448" type="line"/>
			<point x="289" y="130" type="line"/>
			<point x="130" y="574" type="line"/>
			<point x="7" y="574" type="line"/>
			<point x="229" y="-1" type="line"/>
			<point x="328" y="-1" type="line"/>
			<point x="467" y="314" type="line"/>
			<point x="593" y="-1" type="line"/>
			<point x="684" y="-1" type="line"/>
			<point x="903" y="574" type="line"/>
			<point x="790" y="574" type="line"/>
			<point x="642" y="141" type="line"/>
			<point x="471" y="574" type="line"/>
		</contour>
	</outline>
</glyph>
<glyph name="X" format="2">
	<advance width="537"/>
	<unicode hex="0058"/>
	<note>
		X
	</note>
	<outline>
		<contour>
			<point x="12" y="3" type="line"/>
			<point x="130" y="3" type="line"/>
			<point x="275" y="219" type="line"/>
			<point x="412" y="3" type="line"/>
			<point x="525" y="3" type="line"/>
			<point x="330" y="293" type="line"/>
			<point x="518" y="578" type="line"/>
			<point x="411" y="578" type="line"/>
			<point x="275" y="373" type="line"/>
			<point x="133" y="578" type="line"/>
			<point x="20" y="578" type="line"/>
			<point x="215" y="293" type="line"/>
		</contour>
	</outline>
</glyph>
<glyph name="Y" format="2">
	<advance width="556"/>
	<unicode hex="0059"/>
	<note>
		Y
	</note>
	<outline>
		<contour>
			<point x="235" y="-2" type="line"/>
			<point x="235" y="187" type="line"/>
			<point x="-5" y="573" type="line"/>
			<point x="113" y="573" type="line"/>
			<point x="286" y="283" type="line"/>
			<point x="456" y="573" type="line"/>
			<point x="572" y="573" type="line"/>
			<point x="331" y="187" type="line"/>
			<point x="331" y="-2" type="line"/>
		</contour>
	</outline>
</glyph>
<glyph name="Z" format="2">
	<advance width="545"/>
	<unicode hex="005A"/>
	<note>
		Z
	</note>
	<outline>
		<contour>
			<point x="179" y="85" type="line"/>
			<point x="182" y="88"/>
			<point x="185" y="92"/>
			<point x="187" y="94" type="qcurve" smooth="yes"/>
			<point x="205" y="118"/>
			<point x="229" y="154" type="qcurve" smooth="yes"/>
			<point x="265" y="204"/>
			<point x="283" y="230" type="qcurve" smooth="yes"/>
			<point x="342" y="316" type="line"/>
			<point x="401" y="402" type="line" smooth="yes"/>
			<point x="412" y="418"/>
			<point x="432" y="447" type="qcurve" smooth="yes"/>
			<point x="521" y="573" type="line"/>
			<point x="522" y="575" type="line"/>
			<point x="57" y="576" type="line"/>
			<point x="57" y="492" type="line"/>
			<point x="359" y="491" type="line"/>
			<point x="351" y="483" type="line"/>
			<point x="272" y="370"/>
			<point x="255" y="346" type="qcurve" smooth="yes"/>
			<point x="196" y="260" type="line"/>
			<point x="137" y="175" type="line"/>
			<point x="106" y="130" type="line"/>
			<point x="24" y="3" type="line"/>
			<point x="23" y="2" type="line"/>
			<point x="15" y="1" type="line"/>
			<point x="530" y="2" type="line"/>
			<point x="530" y="85" type="line"/>
		</contour>
	</outline>
</glyph>
<glyph name="uni005B" format="2">
	<advance width="362"/>
	<unicode hex="005B"/>
	<note>
		uni005B
	</note>
	<outline>
		<contour>
			<point x="104" y="-151" type="line"/>
			<point x="312" y="-151" type="line"/>
			<point x="312" y="-61" type="line"/>
			<point x="205" y="-61" type="line"/>
			<point x="205" y="665" type="line"/>
			<point x="312" y="665" type="line"/>
			<point x="312" y="755" type="line"/>
			<point x="104" y="755" type="line"/>
		</contour>
	</outline>
</glyph>
<glyph name="uni005C" format="2">
	<advance width="389"/>
	<unicode hex="005C"/>
	<note>
		uni005C
	</note>
	<outline>
		<contour>
			<point x="1" y="745" type="line"/>
			<point x="72" y="554"/>
			<point x="211" y="172"/>
			<point x="282" y="-19" type="qcurve"/>
			<point x="390" y="-19" type="line"/>
			<point x="320" y="172"/>
			<point x="180" y="554"/>
			<point x="110" y="745" type="qcurve"/>
		</contour>
	</outline>
</glyph>
<glyph name="uni005D" format="2">
	<advance width="362"/>
	<unicode hex="005D"/>
	<note>
		uni005D
	</note>
	<outline>
		<contour>
			<point x="258" y="755" type="line"/>
			<point x="47" y="755" type="line"/>
			<point x="47" y="666" type="line"/>
			<point x="157" y="666" type="line"/>
			<point x="157" y="-61" type="line"/>
			<point x="47" y="-61" type="line"/>
			<point x="47" y="-151" type="line"/>
			<point x="258" y="-151" type="line"/>
		</contour>
	</outline>
</glyph>
<glyph name="uni005E" format="2">
	<advance width="475"/>
	<unicode hex="005E"/>
	<note>
		uni005E
	</note>
	<outline>
		<contour>
			<point x="356" y="485" type="line"/>
			<point x="326" y="531"/>
			<point x="265" y="622"/>
			<point x="234" y="668" type="qcurve"/>
			<point x="234" y="668" type="line"/>
			<point x="204" y="622"/>
			<point x="144" y="531"/>
			<point x="113" y="485" type="qcurve"/>
			<point x="173" y="485" type="line"/>
			<point x="179" y="495"/>
			<point x="204" y="528"/>
			<point x="228" y="561"/>
			<point x="234" y="571" type="qcurve"/>
			<point x="241" y="561"/>
			<point x="266" y="528"/>
			<point x="291" y="495"/>
			<point x="297" y="485" type="qcurve"/>
		</contour>
	</outline>
</glyph>
<glyph name="uni005F" format="2">
	<advance width="607"/>
	<unicode hex="005F"/>
	<note>
		uni005F
	</note>
	<outline>
		<contour>
			<point x="101" y="0" type="line"/>
			<point x="506" y="0" type="line"/>
			<point x="506" y="97" type="line"/>
			<point x="101" y="97" type="line"/>
		</contour>
	</outline>
</glyph>
<glyph name="a" format="2">
	<advance width="475"/>
	<unicode hex="0061"/>
	<note>
		a
	</note>
	<outline>
		<contour>
			<point x="347" y="381" type="line"/>
			<point x="326" y="396"/>
			<point x="326" y="396" type="qcurve"/>
			<point x="288" y="421"/>
			<point x="228" y="421" type="qcurve" smooth="yes"/>
			<point x="169" y="421"/>
			<point x="124" y="394" type="qcurve"/>
			<point x="76" y="370"/>
			<point x="47" y="321" type="qcurve" smooth="yes"/>
			<point x="17" y="273"/>
			<point x="17" y="206" type="qcurve" smooth="yes"/>
			<point x="17" y="137"/>
			<point x="45" y="93" type="qcurve" smooth="yes"/>
			<point x="69" y="50"/>
			<point x="120" y="22" type="qcurve" smooth="yes"/>
			<point x="167" y="0"/>
			<point x="225" y="0" type="qcurve" smooth="yes"/>
			<point x="264" y="0"/>
			<point x="291" y="10" type="qcurve"/>
			<point x="319" y="17"/>
			<point x="340" y="35" type="qcurve" smooth="yes"/>
			<point x="347" y="41" type="line"/>
			<point x="347" y="9" type="line"/>
			<point x="445" y="9" type="line"/>
			<point x="445" y="408" type="line"/>
			<point x="347" y="408" type="line"/>
		</contour>
		<contour>
			<point x="238" y="83" type="qcurve" smooth="yes"/>
			<point x="205" y="83"/>
			<point x="151" y="117"/>
			<point x="119" y="174"/>
			<point x="119" y="208" type="qcurve" smooth="yes"/>
			<point x="119" y="260"/>
			<point x="187" y="334"/>
			<point x="238" y="334" type="qcurve" smooth="yes"/>
			<point x="271" y="334"/>
			<point x="333" y="293"/>
			<point x="347" y="265" type="qcurve"/>
			<point x="347" y="152" type="line"/>
			<point x="333" y="124"/>
			<point x="271" y="83"/>
		</contour>
	</outline>
</glyph>
<glyph name="b" format="2">
	<advance width="540"/>
	<unicode hex="0062"/>
	<note>
		b
	</note>
	<outline>
		<contour>
			<point x="301" y="2" type="qcurve" smooth="yes"/>
			<point x="243" y="2"/>
			<point x="201" y="25" type="qcurve" smooth="yes"/>
			<point x="177" y="37"/>
			<point x="155" y="54"/>
			<point x="143" y="70" type="qcurve"/>
			<point x="142" y="11" type="line"/>
			<point x="35" y="11" type="line"/>
			<point x="35" y="722" type="line"/>
			<point x="141" y="722" type="line"/>
			<point x="142" y="369" type="line"/>
			<point x="153" y="384"/>
			<point x="185" y="404"/>
			<point x="210" y="415" type="qcurve" smooth="yes"/>
			<point x="258" y="435"/>
			<point x="315" y="435" type="qcurve" smooth="yes"/>
			<point x="369" y="435"/>
			<point x="419" y="409" type="qcurve" smooth="yes"/>
			<point x="467" y="381"/>
			<point x="493" y="334" type="qcurve" smooth="yes"/>
			<point x="521" y="287"/>
			<point x="521" y="221" type="qcurve" smooth="yes"/>
			<point x="521" y="154"/>
			<point x="491" y="104" type="qcurve" smooth="yes"/>
			<point x="461" y="54"/>
			<point x="410" y="27" type="qcurve" smooth="yes"/>
			<point x="360" y="2"/>
		</contour>
		<contour>
			<point x="278" y="93" type="qcurve" smooth="yes"/>
			<point x="316" y="93"/>
			<point x="345" y="110" type="qcurve" smooth="yes"/>
			<point x="374" y="126"/>
			<point x="393" y="156" type="qcurve" smooth="yes"/>
			<point x="410" y="186"/>
			<point x="410" y="222" type="qcurve" smooth="yes"/>
			<point x="410" y="257"/>
			<point x="393" y="285" type="qcurve" smooth="yes"/>
			<point x="374" y="315"/>
			<point x="345" y="331" type="qcurve" smooth="yes"/>
			<point x="316" y="348"/>
			<point x="278" y="348" type="qcurve" smooth="yes"/>
			<point x="246" y="348"/>
			<point x="220" y="336" type="qcurve" smooth="yes"/>
			<point x="193" y="326"/>
			<point x="173" y="306" type="qcurve"/>
			<point x="154" y="282"/>
			<point x="148" y="262" type="qcurve"/>
			<point x="148" y="179" type="line"/>
			<point x="155" y="159"/>
			<point x="173" y="135" type="qcurve"/>
			<point x="192" y="116"/>
			<point x="219" y="105" type="qcurve" smooth="yes"/>
			<point x="250" y="93"/>
		</contour>
	</outline>
</glyph>
<glyph name="c" format="2">
	<advance width="417"/>
	<unicode hex="0063"/>
	<note>
		c
	</note>
	<outline>
		<contour>
			<point x="400" y="50" type="line"/>
			<point x="374" y="30"/>
			<point x="332" y="15" type="qcurve" smooth="yes"/>
			<point x="292" y="3"/>
			<point x="252" y="3" type="qcurve" smooth="yes"/>
			<point x="181" y="3"/>
			<point x="130" y="29" type="qcurve" smooth="yes"/>
			<point x="76" y="55"/>
			<point x="48" y="102" type="qcurve" smooth="yes"/>
			<point x="19" y="147"/>
			<point x="19" y="214" type="qcurve" smooth="yes"/>
			<point x="19" y="279"/>
			<point x="50" y="325" type="qcurve" smooth="yes"/>
			<point x="81" y="373"/>
			<point x="132" y="398" type="qcurve" smooth="yes"/>
			<point x="184" y="424"/>
			<point x="241" y="424" type="qcurve" smooth="yes"/>
			<point x="293" y="424"/>
			<point x="333" y="410" type="qcurve" smooth="yes"/>
			<point x="374" y="396"/>
			<point x="403" y="373" type="qcurve"/>
			<point x="352" y="309" type="line"/>
			<point x="333" y="323"/>
			<point x="309" y="333" type="qcurve" smooth="yes"/>
			<point x="285" y="343"/>
			<point x="250" y="343" type="qcurve" smooth="yes"/>
			<point x="213" y="343"/>
			<point x="186" y="326" type="qcurve" smooth="yes"/>
			<point x="157" y="310"/>
			<point x="139" y="280" type="qcurve" smooth="yes"/>
			<point x="122" y="251"/>
			<point x="122" y="214" type="qcurve" smooth="yes"/>
			<point x="122" y="178"/>
			<point x="140" y="148" type="qcurve" smooth="yes"/>
			<point x="159" y="117"/>
			<point x="189" y="101" type="qcurve" smooth="yes"/>
			<point x="219" y="83"/>
			<point x="260" y="83" type="qcurve" smooth="yes"/>
			<point x="286" y="83"/>
			<point x="308" y="91" type="qcurve" smooth="yes"/>
			<point x="329" y="97"/>
			<point x="348" y="111" type="qcurve"/>
		</contour>
	</outline>
</glyph>
<glyph name="d" format="2">
	<advance width="540"/>
	<unicode hex="0064"/>
	<note>
		d
	</note>
	<outline>
		<contour>
			<point x="229" y="0" type="qcurve" smooth="yes"/>
			<point x="169" y="0"/>
			<point x="121" y="27" type="qcurve" smooth="yes"/>
			<point x="75" y="52"/>
			<point x="46" y="103" type="qcurve" smooth="yes"/>
			<point x="19" y="151"/>
			<point x="19" y="218" type="qcurve" smooth="yes"/>
			<point x="19" y="284"/>
			<point x="48" y="333" type="qcurve" smooth="yes"/>
			<point x="79" y="382"/>
			<point x="128" y="407" type="qcurve" smooth="yes"/>
			<point x="177" y="432"/>
			<point x="241" y="432" type="qcurve" smooth="yes"/>
			<point x="289" y="432"/>
			<point x="334" y="414" type="qcurve" smooth="yes"/>
			<point x="374" y="396"/>
			<point x="398" y="366" type="qcurve" smooth="yes"/>
			<point x="399" y="365"/>
			<point x="399" y="542" type="qcurve" smooth="yes"/>
			<point x="399" y="720" type="line"/>
			<point x="505" y="720" type="line"/>
			<point x="505" y="10" type="line"/>
			<point x="398" y="10" type="line"/>
			<point x="398" y="67" type="line"/>
			<point x="361" y="37"/>
			<point x="332" y="23" type="qcurve" smooth="yes"/>
			<point x="286" y="0"/>
		</contour>
		<contour>
			<point x="255" y="83" type="qcurve" smooth="yes"/>
			<point x="290" y="83"/>
			<point x="317" y="95" type="qcurve" smooth="yes"/>
			<point x="345" y="107"/>
			<point x="363" y="127" type="qcurve" smooth="yes"/>
			<point x="383" y="150"/>
			<point x="390" y="178" type="qcurve"/>
			<point x="390" y="257" type="line"/>
			<point x="384" y="284"/>
			<point x="363" y="305" type="qcurve" smooth="yes"/>
			<point x="344" y="326"/>
			<point x="316" y="336" type="qcurve" smooth="yes"/>
			<point x="289" y="348"/>
			<point x="255" y="348" type="qcurve" smooth="yes"/>
			<point x="219" y="348"/>
			<point x="188" y="331" type="qcurve" smooth="yes"/>
			<point x="159" y="317"/>
			<point x="139" y="285" type="qcurve" smooth="yes"/>
			<point x="120" y="253"/>
			<point x="120" y="217" type="qcurve" smooth="yes"/>
			<point x="120" y="182"/>
			<point x="139" y="149" type="qcurve" smooth="yes"/>
			<point x="158" y="117"/>
			<point x="188" y="101" type="qcurve" smooth="yes"/>
			<point x="220" y="83"/>
		</contour>
	</outline>
</glyph>
<glyph name="e" format="2">
	<advance width="476"/>
	<unicode hex="0065"/>
	<note>
		e
	</note>
	<outline>
		<contour>
			<point x="302" y="93" type="qcurve" smooth="yes"/>
			<point x="277" y="84"/>
			<point x="251" y="84" type="qcurve" smooth="yes"/>
			<point x="212" y="85"/>
			<point x="183" y="101" type="qcurve" smooth="yes"/>
			<point x="156" y="116"/>
			<point x="140" y="136" type="qcurve"/>
			<point x="463" y="242" type="line"/>
			<point x="443" y="326"/>
			<point x="389" y="376" type="qcurve" smooth="yes"/>
			<point x="333" y="423"/>
			<point x="251" y="423" type="qcurve" smooth="yes"/>
			<point x="188" y="423"/>
			<point x="133" y="394" type="qcurve" smooth="yes"/>
			<point x="80" y="365"/>
			<point x="49" y="318" type="qcurve" smooth="yes"/>
			<point x="18" y="272"/>
			<point x="18" y="212" type="qcurve" smooth="yes"/>
			<point x="18" y="150"/>
			<point x="46" y="103" type="qcurve" smooth="yes"/>
			<point x="73" y="55"/>
			<point x="125" y="29" type="qcurve" smooth="yes"/>
			<point x="176" y="2"/>
			<point x="249" y="2" type="qcurve" smooth="yes"/>
			<point x="284" y="2"/>
			<point x="323" y="13" type="qcurve" smooth="yes"/>
			<point x="358" y="24"/>
			<point x="394" y="45" type="qcurve"/>
			<point x="348" y="117" type="line"/>
			<point x="325" y="102"/>
		</contour>
		<contour>
			<point x="137" y="278" type="qcurve" smooth="yes"/>
			<point x="153" y="304"/>
			<point x="182" y="319" type="qcurve" smooth="yes"/>
			<point x="210" y="333"/>
			<point x="247" y="333" type="qcurve" smooth="yes"/>
			<point x="291" y="333"/>
			<point x="317" y="313" type="qcurve"/>
			<point x="330" y="305"/>
			<point x="342" y="286" type="qcurve"/>
			<point x="122" y="217" type="line"/>
			<point x="122" y="228"/>
			<point x="128" y="262"/>
		</contour>
	</outline>
</glyph>
<glyph name="f" format="2">
	<advance width="335"/>
	<unicode hex="0066"/>
	<note>
		f
	</note>
	<outline>
		<contour>
			<point x="80" y="414" type="line"/>
			<point x="80" y="536" type="line" smooth="yes"/>
			<point x="80" y="626"/>
			<point x="126" y="673" type="qcurve" smooth="yes"/>
			<point x="172" y="720"/>
			<point x="254" y="721" type="qcurve" smooth="yes"/>
			<point x="278" y="721"/>
			<point x="305" y="714" type="qcurve" smooth="yes"/>
			<point x="332" y="708"/>
			<point x="354" y="694" type="qcurve"/>
			<point x="309" y="610" type="line"/>
			<point x="300" y="619"/>
			<point x="288" y="624" type="qcurve" smooth="yes"/>
			<point x="277" y="629"/>
			<point x="264" y="629" type="qcurve" smooth="yes"/>
			<point x="227" y="629"/>
			<point x="207" y="606" type="qcurve" smooth="yes"/>
			<point x="188" y="583"/>
			<point x="188" y="528" type="qcurve" smooth="yes"/>
			<point x="188" y="414" type="line"/>
			<point x="323" y="414" type="line"/>
			<point x="323" y="322" type="line"/>
			<point x="188" y="322" type="line"/>
			<point x="188" y="1" type="line"/>
			<point x="80" y="1" type="line"/>
			<point x="80" y="322" type="line"/>
			<point x="7" y="322" type="line"/>
			<point x="7" y="414" type="line"/>
		</contour>
	</outline>
</glyph>
<glyph name="g" format="2">
	<advance width="535"/>
	<unicode hex="0067"/>
	<note>
		g
	</note>
	<outline>
		<contour>
			<point x="259" y="-190" type="qcurve" smooth="yes"/>
			<point x="211" y="-190"/>
			<point x="173" y="-179" type="qcurve" smooth="yes"/>
			<point x="136" y="-168"/>
			<point x="110" y="-150" type="qcurve" smooth="yes"/>
			<point x="84" y="-134"/>
			<point x="56" y="-112" type="qcurve"/>
			<point x="116" y="-43" type="line"/>
			<point x="144" y="-68"/>
			<point x="180" y="-88" type="qcurve" smooth="yes"/>
			<point x="211" y="-104"/>
			<point x="256" y="-104" type="qcurve" smooth="yes"/>
			<point x="299" y="-104"/>
			<point x="332" y="-91" type="qcurve"/>
			<point x="364" y="-75"/>
			<point x="379" y="-53" type="qcurve" smooth="yes"/>
			<point x="397" y="-26"/>
			<point x="397" y="7" type="qcurve" smooth="yes"/>
			<point x="397" y="76" type="line"/>
			<point x="381" y="49"/>
			<point x="343" y="25" type="qcurve"/>
			<point x="291" y="-2"/>
			<point x="230" y="-2" type="qcurve" smooth="yes"/>
			<point x="173" y="-2"/>
			<point x="125" y="26" type="qcurve" smooth="yes"/>
			<point x="80" y="51"/>
			<point x="48" y="99" type="qcurve"/>
			<point x="19" y="151"/>
			<point x="19" y="208" type="qcurve" smooth="yes"/>
			<point x="19" y="271"/>
			<point x="49" y="319" type="qcurve" smooth="yes"/>
			<point x="78" y="367"/>
			<point x="130" y="394" type="qcurve" smooth="yes"/>
			<point x="182" y="423"/>
			<point x="235" y="423" type="qcurve" smooth="yes"/>
			<point x="280" y="423"/>
			<point x="335" y="403" type="qcurve"/>
			<point x="374" y="384"/>
			<point x="397" y="355" type="qcurve"/>
			<point x="405" y="404" type="line"/>
			<point x="500" y="404" type="line"/>
			<point x="500" y="6" type="line" smooth="yes"/>
			<point x="500" y="-46"/>
			<point x="469" y="-94" type="qcurve" smooth="yes"/>
			<point x="441" y="-137"/>
			<point x="385" y="-164" type="qcurve" smooth="yes"/>
			<point x="331" y="-190"/>
		</contour>
		<contour>
			<point x="129" y="210" type="qcurve" smooth="yes"/>
			<point x="129" y="178"/>
			<point x="145" y="146" type="qcurve" smooth="yes"/>
			<point x="161" y="118"/>
			<point x="193" y="102" type="qcurve" smooth="yes"/>
			<point x="218" y="87"/>
			<point x="258" y="87" type="qcurve" smooth="yes"/>
			<point x="291" y="87"/>
			<point x="316" y="95" type="qcurve"/>
			<point x="339" y="106"/>
			<point x="360" y="127" type="qcurve" smooth="yes"/>
			<point x="384" y="151"/>
			<point x="386" y="171" type="qcurve"/>
			<point x="386" y="249" type="line"/>
			<point x="376" y="281"/>
			<point x="360" y="294" type="qcurve" smooth="yes"/>
			<point x="339" y="311"/>
			<point x="315" y="323" type="qcurve" smooth="yes"/>
			<point x="291" y="334"/>
			<point x="258" y="334" type="qcurve" smooth="yes"/>
			<point x="219" y="334"/>
			<point x="193" y="318" type="qcurve"/>
			<point x="161" y="302"/>
			<point x="145" y="273" type="qcurve" smooth="yes"/>
			<point x="129" y="246"/>
		</contour>
	</outline>
</glyph>
<glyph name="h" format="2">
	<advance width="481"/>
	<unicode hex="0068"/>
	<note>
		h
	</note>
	<outline>
		<contour>
			<point x="139" y="333" type="line"/>
			<point x="159" y="370"/>
			<point x="203" y="396" type="qcurve" smooth="yes"/>
			<point x="247" y="423"/>
			<point x="307" y="422" type="qcurve" smooth="yes"/>
			<point x="368" y="422"/>
			<point x="406" y="387" type="qcurve" smooth="yes"/>
			<point x="446" y="352"/>
			<point x="446" y="299" type="qcurve" smooth="yes"/>
			<point x="446" y="-1" type="line"/>
			<point x="342" y="-1" type="line"/>
			<point x="342" y="264" type="line"/>
			<point x="340" y="297"/>
			<point x="322" y="315" type="qcurve" smooth="yes"/>
			<point x="304" y="334"/>
			<point x="266" y="336" type="qcurve" smooth="yes"/>
			<point x="232" y="336"/>
			<point x="203" y="316" type="qcurve" smooth="yes"/>
			<point x="174" y="296"/>
			<point x="158" y="262" type="qcurve" smooth="yes"/>
			<point x="142" y="229"/>
			<point x="142" y="184" type="qcurve" smooth="yes"/>
			<point x="142" y="-1" type="line"/>
			<point x="36" y="-1" type="line"/>
			<point x="36" y="717" type="line"/>
			<point x="139" y="717" type="line"/>
		</contour>
	</outline>
</glyph>
<glyph name="i" format="2">
	<advance width="199"/>
	<unicode hex="0069"/>
	<note>
		i
	</note>
	<outline>
		<contour>
			<point x="40" y="521" type="qcurve" smooth="yes"/>
			<point x="40" y="545"/>
			<point x="59" y="559" type="qcurve"/>
			<point x="76" y="575"/>
			<point x="99" y="575" type="qcurve" smooth="yes"/>
			<point x="124" y="575"/>
			<point x="140" y="559" type="qcurve"/>
			<point x="159" y="545"/>
			<point x="159" y="521" type="qcurve" smooth="yes"/>
			<point x="159" y="500"/>
			<point x="140" y="484" type="qcurve" smooth="yes"/>
			<point x="123" y="470"/>
			<point x="99" y="470" type="qcurve" smooth="yes"/>
			<point x="78" y="470"/>
			<point x="59" y="484" type="qcurve" smooth="yes"/>
			<point x="40" y="500"/>
		</contour>
		<contour>
			<point x="45" y="424" type="line"/>
			<point x="149" y="424" type="line"/>
			<point x="149" y="0" type="line"/>
			<point x="45" y="0" type="line"/>
		</contour>
	</outline>
</glyph>
<glyph name="j" format="2">
	<advance width="207"/>
	<unicode hex="006A"/>
	<note>
		j
	</note>
	<outline>
		<contour>
			<point x="46" y="522" type="qcurve" smooth="yes"/>
			<point x="46" y="547"/>
			<point x="66" y="561" type="qcurve" smooth="yes"/>
			<point x="86" y="575"/>
			<point x="108" y="576" type="qcurve" smooth="yes"/>
			<point x="130" y="576"/>
			<point x="149" y="561" type="qcurve" smooth="yes"/>
			<point x="167" y="546"/>
			<point x="167" y="522" type="qcurve" smooth="yes"/>
			<point x="167" y="497"/>
			<point x="151" y="483" type="qcurve" smooth="yes"/>
			<point x="133" y="468"/>
			<point x="108" y="468" type="qcurve" smooth="yes"/>
			<point x="84" y="468"/>
			<point x="66" y="483" type="qcurve"/>
			<point x="46" y="496"/>
		</contour>
		<contour>
			<point x="0" y="-114" type="line"/>
			<point x="25" y="-95"/>
			<point x="43" y="-57" type="qcurve" smooth="yes"/>
			<point x="60" y="-23"/>
			<point x="60" y="20" type="qcurve" smooth="yes"/>
			<point x="60" y="423" type="line"/>
			<point x="158" y="423" type="line"/>
			<point x="158" y="16" type="line" smooth="yes"/>
			<point x="158" y="-53"/>
			<point x="134" y="-101" type="qcurve" smooth="yes"/>
			<point x="107" y="-150"/>
			<point x="53" y="-177" type="qcurve"/>
		</contour>
	</outline>
</glyph>
<glyph name="k" format="2">
	<advance width="438"/>
	<unicode hex="006B"/>
	<note>
		k
	</note>
	<outline>
		<contour>
			<point x="36" y="-1" type="line"/>
			<point x="141" y="-1" type="line"/>
			<point x="141" y="163" type="line"/>
			<point x="167" y="183" type="line"/>
			<point x="320" y="-1" type="line"/>
			<point x="443" y="-1" type="line"/>
			<point x="240" y="239" type="line"/>
			<point x="424" y="378" type="line"/>
			<point x="359" y="441" type="line"/>
			<point x="141" y="278" type="line"/>
			<point x="141" y="719" type="line"/>
			<point x="36" y="719" type="line"/>
		</contour>
	</outline>
</glyph>
<glyph name="l" format="2">
	<advance width="189"/>
	<unicode hex="006C"/>
	<note>
		l
	</note>
	<outline>
		<contour>
			<point x="40" y="721" type="line"/>
			<point x="149" y="721" type="line"/>
			<point x="149" y="1" type="line"/>
			<point x="40" y="1" type="line"/>
		</contour>
	</outline>
</glyph>
<glyph name="m" format="2">
	<advance width="753"/>
	<unicode hex="006D"/>
	<note>
		m
	</note>
	<outline>
		<contour>
			<point x="135" y="331" type="line"/>
			<point x="158" y="372"/>
			<point x="199" y="397" type="qcurve" smooth="yes"/>
			<point x="240" y="422"/>
			<point x="297" y="422" type="qcurve" smooth="yes"/>
			<point x="333" y="422"/>
			<point x="360" y="412" type="qcurve" smooth="yes"/>
			<point x="386" y="402"/>
			<point x="406" y="382" type="qcurve" smooth="yes"/>
			<point x="422" y="365"/>
			<point x="428" y="338" type="qcurve"/>
			<point x="455" y="376"/>
			<point x="491" y="398" type="qcurve" smooth="yes"/>
			<point x="533" y="422"/>
			<point x="581" y="422" type="qcurve" smooth="yes"/>
			<point x="643" y="422"/>
			<point x="680" y="389" type="qcurve" smooth="yes"/>
			<point x="717" y="354"/>
			<point x="718" y="302" type="qcurve" smooth="yes"/>
			<point x="718" y="1" type="line"/>
			<point x="614" y="1" type="line"/>
			<point x="614" y="264" type="line" smooth="yes"/>
			<point x="614" y="294"/>
			<point x="600" y="314" type="qcurve" smooth="yes"/>
			<point x="585" y="335"/>
			<point x="551" y="336" type="qcurve" smooth="yes"/>
			<point x="516" y="336"/>
			<point x="487" y="315" type="qcurve" smooth="yes"/>
			<point x="458" y="293"/>
			<point x="444" y="260" type="qcurve" smooth="yes"/>
			<point x="430" y="228"/>
			<point x="428" y="188" type="qcurve"/>
			<point x="428" y="1" type="line"/>
			<point x="324" y="1" type="line"/>
			<point x="324" y="264" type="line"/>
			<point x="322" y="295"/>
			<point x="308" y="314" type="qcurve" smooth="yes"/>
			<point x="295" y="334"/>
			<point x="259" y="336" type="qcurve" smooth="yes"/>
			<point x="222" y="336"/>
			<point x="195" y="315" type="qcurve" smooth="yes"/>
			<point x="168" y="294"/>
			<point x="153" y="260" type="qcurve" smooth="yes"/>
			<point x="138" y="226"/>
			<point x="138" y="188" type="qcurve" smooth="yes"/>
			<point x="138" y="1" type="line"/>
			<point x="34" y="1" type="line"/>
			<point x="34" y="406" type="line"/>
			<point x="127" y="406" type="line"/>
		</contour>
	</outline>
</glyph>
<glyph name="n" format="2">
	<advance width="486"/>
	<unicode hex="006E"/>
	<note>
		n
	</note>
	<outline>
		<contour>
			<point x="145" y="330" type="line"/>
			<point x="166" y="368"/>
			<point x="207" y="395" type="qcurve" smooth="yes"/>
			<point x="251" y="424"/>
			<point x="313" y="422" type="qcurve" smooth="yes"/>
			<point x="371" y="422"/>
			<point x="411" y="388" type="qcurve" smooth="yes"/>
			<point x="451" y="353"/>
			<point x="451" y="300" type="qcurve" smooth="yes"/>
			<point x="451" y="1" type="line"/>
			<point x="347" y="1" type="line"/>
			<point x="347" y="265" type="line"/>
			<point x="345" y="297"/>
			<point x="328" y="316" type="qcurve" smooth="yes"/>
			<point x="310" y="336"/>
			<point x="271" y="337" type="qcurve" smooth="yes"/>
			<point x="237" y="337"/>
			<point x="208" y="317" type="qcurve" smooth="yes"/>
			<point x="182" y="299"/>
			<point x="165" y="263" type="qcurve" smooth="yes"/>
			<point x="149" y="231"/>
			<point x="149" y="185" type="qcurve" smooth="yes"/>
			<point x="149" y="1" type="line"/>
			<point x="43" y="1" type="line"/>
			<point x="43" y="405" type="line"/>
			<point x="138" y="405" type="line"/>
		</contour>
	</outline>
</glyph>
<glyph name="o" format="2">
	<advance width="497"/>
	<unicode hex="006F"/>
	<note>
		o
	</note>
	<outline>
		<contour>
			<point x="19" y="212" type="qcurve" smooth="yes"/>
			<point x="19" y="273"/>
			<point x="48" y="319" type="qcurve" smooth="yes"/>
			<point x="78" y="367"/>
			<point x="130" y="394" type="qcurve" smooth="yes"/>
			<point x="182" y="422"/>
			<point x="250" y="422" type="qcurve" smooth="yes"/>
			<point x="320" y="422"/>
			<point x="370" y="394" type="qcurve" smooth="yes"/>
			<point x="422" y="367"/>
			<point x="450" y="319" type="qcurve" smooth="yes"/>
			<point x="478" y="272"/>
			<point x="478" y="212" type="qcurve" smooth="yes"/>
			<point x="478" y="153"/>
			<point x="450" y="104" type="qcurve" smooth="yes"/>
			<point x="422" y="57"/>
			<point x="370" y="28" type="qcurve" smooth="yes"/>
			<point x="319" y="1"/>
			<point x="249" y="1" type="qcurve" smooth="yes"/>
			<point x="182" y="1"/>
			<point x="131" y="26" type="qcurve" smooth="yes"/>
			<point x="79" y="51"/>
			<point x="49" y="99" type="qcurve" smooth="yes"/>
			<point x="19" y="147"/>
		</contour>
		<contour>
			<point x="122" y="211" type="qcurve" smooth="yes"/>
			<point x="122" y="173"/>
			<point x="138" y="145" type="qcurve" smooth="yes"/>
			<point x="156" y="114"/>
			<point x="184" y="97" type="qcurve" smooth="yes"/>
			<point x="213" y="80"/>
			<point x="248" y="80" type="qcurve" smooth="yes"/>
			<point x="283" y="80"/>
			<point x="314" y="97" type="qcurve" smooth="yes"/>
			<point x="343" y="115"/>
			<point x="359" y="145" type="qcurve" smooth="yes"/>
			<point x="375" y="173"/>
			<point x="375" y="211" type="qcurve" smooth="yes"/>
			<point x="375" y="249"/>
			<point x="359" y="277" type="qcurve" smooth="yes"/>
			<point x="343" y="305"/>
			<point x="314" y="324" type="qcurve" smooth="yes"/>
			<point x="284" y="342"/>
			<point x="248" y="342" type="qcurve" smooth="yes"/>
			<point x="212" y="342"/>
			<point x="183" y="324" type="qcurve" smooth="yes"/>
			<point x="154" y="305"/>
			<point x="138" y="277" type="qcurve" smooth="yes"/>
			<point x="122" y="248"/>
		</contour>
	</outline>
</glyph>
<glyph name="p" format="2">
	<advance width="531"/>
	<unicode hex="0070"/>
	<note>
		p
	</note>
	<outline>
		<contour>
			<point x="287" y="-1" type="qcurve" smooth="yes"/>
			<point x="240" y="-1"/>
			<point x="199" y="18" type="qcurve" smooth="yes"/>
			<point x="162" y="36"/>
			<point x="138" y="64" type="qcurve"/>
			<point x="138" y="-183" type="line"/>
			<point x="35" y="-183" type="line"/>
			<point x="35" y="413" type="line"/>
			<point x="125" y="413" type="line"/>
			<point x="133" y="356" type="line"/>
			<point x="161" y="384"/>
			<point x="204" y="400" type="qcurve"/>
			<point x="249" y="423"/>
			<point x="305" y="423" type="qcurve" smooth="yes"/>
			<point x="364" y="423"/>
			<point x="411" y="397" type="qcurve" smooth="yes"/>
			<point x="458" y="370"/>
			<point x="485" y="322" type="qcurve" smooth="yes"/>
			<point x="512" y="273"/>
			<point x="512" y="208" type="qcurve" smooth="yes"/>
			<point x="512" y="143"/>
			<point x="482" y="96" type="qcurve" smooth="yes"/>
			<point x="452" y="48"/>
			<point x="402" y="24" type="qcurve" smooth="yes"/>
			<point x="352" y="-1"/>
		</contour>
		<contour>
			<point x="267" y="83" type="qcurve" smooth="yes"/>
			<point x="302" y="83"/>
			<point x="333" y="100" type="qcurve" smooth="yes"/>
			<point x="364" y="116"/>
			<point x="382" y="144" type="qcurve" smooth="yes"/>
			<point x="399" y="171"/>
			<point x="399" y="207" type="qcurve" smooth="yes"/>
			<point x="399" y="244"/>
			<point x="383" y="272" type="qcurve" smooth="yes"/>
			<point x="364" y="300"/>
			<point x="337" y="316" type="qcurve" smooth="yes"/>
			<point x="308" y="332"/>
			<point x="274" y="332" type="qcurve" smooth="yes"/>
			<point x="241" y="332"/>
			<point x="216" y="320" type="qcurve" smooth="yes"/>
			<point x="192" y="309"/>
			<point x="173" y="289" type="qcurve" smooth="yes"/>
			<point x="155" y="270"/>
			<point x="148" y="243" type="qcurve"/>
			<point x="148" y="173" type="line"/>
			<point x="153" y="149"/>
			<point x="170" y="127" type="qcurve" smooth="yes"/>
			<point x="186" y="107"/>
			<point x="212" y="96" type="qcurve" smooth="yes"/>
			<point x="239" y="83"/>
		</contour>
	</outline>
</glyph>
<glyph name="q" format="2">
	<advance width="529"/>
	<unicode hex="0071"/>
	<note>
		q
	</note>
	<outline>
		<contour>
			<point x="223" y="2" type="qcurve" smooth="yes"/>
			<point x="166" y="2"/>
			<point x="120" y="28" type="qcurve" smooth="yes"/>
			<point x="74" y="51"/>
			<point x="48" y="97" type="qcurve" smooth="yes"/>
			<point x="19" y="147"/>
			<point x="19" y="210" type="qcurve" smooth="yes"/>
			<point x="19" y="271"/>
			<point x="49" y="323" type="qcurve" smooth="yes"/>
			<point x="79" y="371"/>
			<point x="128" y="396" type="qcurve" smooth="yes"/>
			<point x="176" y="423"/>
			<point x="236" y="423" type="qcurve" smooth="yes"/>
			<point x="295" y="423"/>
			<point x="335" y="401" type="qcurve" smooth="yes"/>
			<point x="367" y="384"/>
			<point x="391" y="357" type="qcurve"/>
			<point x="391" y="413" type="line"/>
			<point x="494" y="413" type="line"/>
			<point x="494" y="-179" type="line"/>
			<point x="392" y="-179" type="line"/>
			<point x="386" y="72" type="line"/>
			<point x="367" y="38"/>
			<point x="325" y="21" type="qcurve" smooth="yes"/>
			<point x="278" y="2"/>
		</contour>
		<contour>
			<point x="257" y="85" type="qcurve" smooth="yes"/>
			<point x="289" y="85"/>
			<point x="315" y="96" type="qcurve" smooth="yes"/>
			<point x="338" y="104"/>
			<point x="360" y="128" type="qcurve" smooth="yes"/>
			<point x="378" y="150"/>
			<point x="385" y="174" type="qcurve"/>
			<point x="385" y="245" type="line"/>
			<point x="377" y="270"/>
			<point x="358" y="292" type="qcurve" smooth="yes"/>
			<point x="339" y="314"/>
			<point x="314" y="324" type="qcurve"/>
			<point x="287" y="340"/>
			<point x="257" y="334" type="qcurve"/>
			<point x="223" y="334"/>
			<point x="193" y="319" type="qcurve" smooth="yes"/>
			<point x="163" y="301"/>
			<point x="146" y="273" type="qcurve" smooth="yes"/>
			<point x="128" y="245"/>
			<point x="128" y="209" type="qcurve" smooth="yes"/>
			<point x="128" y="171"/>
			<point x="146" y="146" type="qcurve"/>
			<point x="163" y="116"/>
			<point x="193" y="99" type="qcurve"/>
			<point x="226" y="85"/>
		</contour>
	</outline>
</glyph>
<glyph name="r" format="2">
	<advance width="311"/>
	<unicode hex="0072"/>
	<note>
		r
	</note>
	<outline>
		<contour>
			<point x="133" y="319" type="line"/>
			<point x="152" y="350"/>
			<point x="179" y="375" type="qcurve" smooth="yes"/>
			<point x="213" y="407"/>
			<point x="244" y="415" type="qcurve" smooth="yes"/>
			<point x="275" y="423"/>
			<point x="304" y="422" type="qcurve"/>
			<point x="299" y="322" type="line"/>
			<point x="250" y="323"/>
			<point x="214" y="304" type="qcurve" smooth="yes"/>
			<point x="179" y="282"/>
			<point x="158" y="250" type="qcurve" smooth="yes"/>
			<point x="138" y="214"/>
			<point x="138" y="178" type="qcurve" smooth="yes"/>
			<point x="138" y="1" type="line"/>
			<point x="34" y="1" type="line"/>
			<point x="34" y="406" type="line"/>
			<point x="128" y="406" type="line"/>
		</contour>
	</outline>
</glyph>
<glyph name="s" format="2">
	<advance width="406"/>
	<unicode hex="0073"/>
	<note>
		s
	</note>
	<outline>
		<contour>
			<point x="199" y="2" type="qcurve" smooth="yes"/>
			<point x="148" y="2"/>
			<point x="99" y="17" type="qcurve" smooth="yes"/>
			<point x="51" y="33"/>
			<point x="19" y="62" type="qcurve"/>
			<point x="66" y="118" type="line"/>
			<point x="100" y="95"/>
			<point x="129" y="82" type="qcurve"/>
			<point x="156" y="73"/>
			<point x="189" y="71" type="qcurve" smooth="yes"/>
			<point x="219" y="70"/>
			<point x="246" y="75" type="qcurve" smooth="yes"/>
			<point x="264" y="77"/>
			<point x="279" y="89" type="qcurve"/>
			<point x="290" y="101"/>
			<point x="288" y="117" type="qcurve" smooth="yes"/>
			<point x="286" y="136"/>
			<point x="270" y="149" type="qcurve"/>
			<point x="250" y="161"/>
			<point x="220" y="168" type="qcurve" smooth="yes"/>
			<point x="191" y="175"/>
			<point x="161" y="185" type="qcurve" smooth="yes"/>
			<point x="101" y="203"/>
			<point x="70" y="228" type="qcurve"/>
			<point x="40" y="258"/>
			<point x="40" y="298" type="qcurve" smooth="yes"/>
			<point x="40" y="331"/>
			<point x="58" y="357" type="qcurve" smooth="yes"/>
			<point x="78" y="385"/>
			<point x="115" y="403" type="qcurve" smooth="yes"/>
			<point x="153" y="421"/>
			<point x="210" y="421" type="qcurve" smooth="yes"/>
			<point x="263" y="421"/>
			<point x="303" y="411" type="qcurve" smooth="yes"/>
			<point x="343" y="401"/>
			<point x="377" y="378" type="qcurve"/>
			<point x="332" y="319" type="line"/>
			<point x="309" y="336"/>
			<point x="282" y="345" type="qcurve" smooth="yes"/>
			<point x="257" y="353"/>
			<point x="233" y="355" type="qcurve" smooth="yes"/>
			<point x="204" y="358"/>
			<point x="183" y="353" type="qcurve" smooth="yes"/>
			<point x="167" y="349"/>
			<point x="156" y="340" type="qcurve" smooth="yes"/>
			<point x="143" y="330"/>
			<point x="143" y="311" type="qcurve" smooth="yes"/>
			<point x="143" y="295"/>
			<point x="164" y="281" type="qcurve" smooth="yes"/>
			<point x="178" y="272"/>
			<point x="207" y="265" type="qcurve" smooth="yes"/>
			<point x="237" y="255" type="line"/>
			<point x="267" y="247" type="line" smooth="yes"/>
			<point x="299" y="238"/>
			<point x="329" y="224" type="qcurve" smooth="yes"/>
			<point x="359" y="207"/>
			<point x="372" y="188" type="qcurve" smooth="yes"/>
			<point x="387" y="168"/>
			<point x="387" y="135" type="qcurve" smooth="yes"/>
			<point x="387" y="101"/>
			<point x="367" y="69" type="qcurve" smooth="yes"/>
			<point x="347" y="39"/>
			<point x="305" y="20" type="qcurve" smooth="yes"/>
			<point x="262" y="2"/>
		</contour>
	</outline>
</glyph>
<glyph name="t" format="2">
	<advance width="320"/>
	<unicode hex="0074"/>
	<note>
		t
	</note>
	<outline>
		<contour>
			<point x="84" y="340" type="line"/>
			<point x="9" y="340" type="line"/>
			<point x="9" y="427" type="line"/>
			<point x="84" y="427" type="line"/>
			<point x="84" y="574" type="line"/>
			<point x="189" y="574" type="line"/>
			<point x="189" y="427" type="line"/>
			<point x="307" y="427" type="line"/>
			<point x="307" y="340" type="line"/>
			<point x="189" y="340" type="line"/>
			<point x="189" y="-1" type="line"/>
			<point x="84" y="-1" type="line"/>
		</contour>
	</outline>
</glyph>
<glyph name="u" format="2">
	<advance width="470"/>
	<unicode hex="0075"/>
	<note>
		u
	</note>
	<outline>
		<contour>
			<point x="171" y="1" type="qcurve" smooth="yes"/>
			<point x="114" y="1"/>
			<point x="75" y="35" type="qcurve" smooth="yes"/>
			<point x="38" y="69"/>
			<point x="35" y="122" type="qcurve"/>
			<point x="35" y="422" type="line"/>
			<point x="140" y="422" type="line"/>
			<point x="140" y="158" type="line"/>
			<point x="142" y="127"/>
			<point x="158" y="107" type="qcurve" smooth="yes"/>
			<point x="174" y="88"/>
			<point x="213" y="86" type="qcurve" smooth="yes"/>
			<point x="246" y="86"/>
			<point x="274" y="106" type="qcurve" smooth="yes"/>
			<point x="301" y="126"/>
			<point x="316" y="160" type="qcurve" smooth="yes"/>
			<point x="332" y="193"/>
			<point x="332" y="239" type="qcurve" smooth="yes"/>
			<point x="332" y="422" type="line"/>
			<point x="436" y="422" type="line"/>
			<point x="436" y="18" type="line"/>
			<point x="342" y="18" type="line"/>
			<point x="336" y="92" type="line"/>
			<point x="323" y="68"/>
			<point x="301" y="47" type="qcurve" smooth="yes"/>
			<point x="276" y="27"/>
			<point x="243" y="13" type="qcurve" smooth="yes"/>
			<point x="210" y="1"/>
		</contour>
	</outline>
</glyph>
<glyph name="v" format="2">
	<advance width="433"/>
	<unicode hex="0076"/>
	<note>
		v
	</note>
	<outline>
		<contour>
			<point x="435" y="421" type="line"/>
			<point x="331" y="421" type="line"/>
			<point x="226" y="112" type="line"/>
			<point x="109" y="421" type="line"/>
			<point x="0" y="421" type="line"/>
			<point x="168" y="0" type="line"/>
			<point x="284" y="0" type="line"/>
		</contour>
	</outline>
</glyph>
<glyph name="w" format="2">
	<advance width="703"/>
	<unicode hex="0077"/>
	<note>
		w
	</note>
	<outline>
		<contour>
			<point x="275" y="421" type="line"/>
			<point x="308" y="338" type="line"/>
			<point x="229" y="132" type="line"/>
			<point x="117" y="421" type="line"/>
			<point x="9" y="421" type="line"/>
			<point x="170" y="0" type="line"/>
			<point x="261" y="0" type="line"/>
			<point x="347" y="228" type="line"/>
			<point x="442" y="0" type="line"/>
			<point x="536" y="0" type="line"/>
			<point x="696" y="421" type="line"/>
			<point x="588" y="421" type="line"/>
			<point x="484" y="123" type="line"/>
			<point x="370" y="421" type="line"/>
		</contour>
	</outline>
</glyph>
<glyph name="x" format="2">
	<advance width="477"/>
	<unicode hex="0078"/>
	<note>
		x
	</note>
	<outline>
		<contour>
			<point x="9" y="1" type="line"/>
			<point x="119" y="1" type="line"/>
			<point x="225" y="146" type="line"/>
			<point x="341" y="1" type="line"/>
			<point x="471" y="1" type="line"/>
			<point x="299" y="218" type="line"/>
			<point x="453" y="422" type="line"/>
			<point x="344" y="422" type="line"/>
			<point x="250" y="280" type="line"/>
			<point x="138" y="422" type="line"/>
			<point x="4" y="422" type="line"/>
			<point x="172" y="212" type="line"/>
		</contour>
	</outline>
</glyph>
<glyph name="y" format="2">
	<advance width="477"/>
	<unicode hex="0079"/>
	<note>
		y
	</note>
	<outline>
		<contour>
			<point x="367" y="423" type="line"/>
			<point x="252" y="159" type="line"/>
			<point x="129" y="423" type="line"/>
			<point x="5" y="423" type="line"/>
			<point x="197" y="42" type="line"/>
			<point x="100" y="-165" type="line"/>
			<point x="204" y="-165" type="line"/>
			<point x="473" y="423" type="line"/>
		</contour>
	</outline>
</glyph>
<glyph name="z" format="2">
	<advance width="419"/>
	<unicode hex="007A"/>
	<note>
		z
	</note>
	<outline>
		<contour>
			<point x="167" y="84" type="line"/>
			<point x="170" y="87"/>
			<point x="404" y="421" type="qcurve"/>
			<point x="23" y="422" type="line"/>
			<point x="23" y="339" type="line"/>
			<point x="245" y="338" type="line"/>
			<point x="10" y="3" type="line"/>
			<point x="9" y="1" type="line"/>
			<point x="411" y="1" type="line"/>
			<point x="411" y="84" type="line"/>
		</contour>
	</outline>
</glyph>
<glyph name="uni007B" format="2">
	<advance width="353"/>
	<unicode hex="007B"/>
	<note>
		uni007B
	</note>
	<outline>
		<contour>
			<point x="262" y="755" type="line"/>
			<point x="238" y="755"/>
			<point x="191" y="752"/>
			<point x="135" y="732"/>
			<point x="113" y="682"/>
			<point x="113" y="635" type="qcurve" smooth="yes"/>
			<point x="113" y="469" type="line" smooth="yes"/>
			<point x="113" y="440"/>
			<point x="97" y="383"/>
			<point x="62" y="346"/>
			<point x="33" y="345" type="qcurve"/>
			<point x="33" y="263" type="line"/>
			<point x="33" y="263" type="line"/>
			<point x="62" y="263"/>
			<point x="97" y="225"/>
			<point x="113" y="169"/>
			<point x="113" y="140" type="qcurve" smooth="yes"/>
			<point x="113" y="-18" type="line" smooth="yes"/>
			<point x="113" y="-71"/>
			<point x="135" y="-126"/>
			<point x="191" y="-148"/>
			<point x="237" y="-151"/>
			<point x="262" y="-151" type="qcurve" smooth="yes"/>
			<point x="326" y="-151" type="line"/>
			<point x="326" y="-69" type="line"/>
			<point x="282" y="-69" type="line" smooth="yes"/>
			<point x="261" y="-69"/>
			<point x="238" y="-53"/>
			<point x="229" y="-8"/>
			<point x="229" y="35" type="qcurve" smooth="yes"/>
			<point x="229" y="166" type="line" smooth="yes"/>
			<point x="229" y="207"/>
			<point x="207" y="261"/>
			<point x="177" y="294"/>
			<point x="163" y="303" type="qcurve"/>
			<point x="178" y="312"/>
			<point x="208" y="345"/>
			<point x="229" y="405"/>
			<point x="229" y="452" type="qcurve" smooth="yes"/>
			<point x="229" y="569" type="line" smooth="yes"/>
			<point x="229" y="613"/>
			<point x="238" y="657"/>
			<point x="261" y="673"/>
			<point x="282" y="673" type="qcurve" smooth="yes"/>
			<point x="326" y="673" type="line"/>
			<point x="326" y="755" type="line"/>
		</contour>
	</outline>
</glyph>
<glyph name="uni007C" format="2">
	<advance width="274"/>
	<unicode hex="007C"/>
	<note>
		uni007C
	</note>
	<outline>
		<contour>
			<point x="92" y="-235" type="line"/>
			<point x="177" y="-235" type="line"/>
			<point x="177" y="709" type="line"/>
			<point x="92" y="709" type="line"/>
		</contour>
	</outline>
</glyph>
<glyph name="uni007D" format="2">
	<advance width="371"/>
	<unicode hex="007D"/>
	<note>
		uni007D
	</note>
	<outline>
		<contour>
			<point x="116" y="-151" type="line"/>
			<point x="141" y="-151"/>
			<point x="187" y="-148"/>
			<point x="225" y="-128"/>
			<point x="258" y="-78"/>
			<point x="258" y="-31" type="qcurve" smooth="yes"/>
			<point x="258" y="122" type="line" smooth="yes"/>
			<point x="258" y="143"/>
			<point x="265" y="190"/>
			<point x="282" y="231"/>
			<point x="314" y="259"/>
			<point x="338" y="259" type="qcurve"/>
			<point x="338" y="341" type="line"/>
			<point x="338" y="341" type="line"/>
			<point x="314" y="342"/>
			<point x="282" y="369"/>
			<point x="265" y="411"/>
			<point x="258" y="458"/>
			<point x="258" y="478" type="qcurve" smooth="yes"/>
			<point x="258" y="636" type="line" smooth="yes"/>
			<point x="258" y="683"/>
			<point x="224" y="733"/>
			<point x="186" y="753"/>
			<point x="140" y="755"/>
			<point x="116" y="755" type="qcurve" smooth="yes"/>
			<point x="53" y="755" type="line"/>
			<point x="53" y="673" type="line"/>
			<point x="98" y="673" type="line" smooth="yes"/>
			<point x="119" y="673"/>
			<point x="141" y="658"/>
			<point x="150" y="614"/>
			<point x="150" y="570" type="qcurve" smooth="yes"/>
			<point x="150" y="439" type="line" smooth="yes"/>
			<point x="150" y="398"/>
			<point x="172" y="343"/>
			<point x="204" y="311"/>
			<point x="216" y="301" type="qcurve"/>
			<point x="204" y="294"/>
			<point x="173" y="262"/>
			<point x="150" y="208"/>
			<point x="150" y="166" type="qcurve" smooth="yes"/>
			<point x="150" y="35" type="line" smooth="yes"/>
			<point x="150" y="-8"/>
			<point x="141" y="-53"/>
			<point x="119" y="-69"/>
			<point x="98" y="-69" type="qcurve" smooth="yes"/>
			<point x="53" y="-69" type="line"/>
			<point x="53" y="-151" type="line"/>
		</contour>
	</outline>
</glyph>
<glyph name="uni007E" format="2">
	<advance width="426"/>
	<unicode hex="007E"/>
	<note>
		uni007E
	</note>
	<outline>
		<contour>
			<point x="297" y="436" type="qcurve" smooth="yes"/>
			<point x="327" y="436"/>
			<point x="374" y="474"/>
			<point x="398" y="544"/>
			<point x="393" y="591" type="qcurve"/>
			<point x="335" y="592" type="line"/>
			<point x="335" y="566"/>
			<point x="327" y="526"/>
			<point x="309" y="504"/>
			<point x="294" y="504" type="qcurve" smooth="yes"/>
			<point x="278" y="504"/>
			<point x="248" y="527"/>
			<point x="233" y="542" type="qcurve" smooth="yes"/>
			<point x="214" y="559"/>
			<point x="171" y="591"/>
			<point x="142" y="591" type="qcurve" smooth="yes"/>
			<point x="107" y="591"/>
			<point x="55" y="550"/>
			<point x="30" y="479"/>
			<point x="33" y="435" type="qcurve"/>
			<point x="91" y="435" type="line"/>
			<point x="90" y="460"/>
			<point x="101" y="499"/>
			<point x="122" y="519"/>
			<point x="136" y="519" type="qcurve" smooth="yes"/>
			<point x="153" y="519"/>
			<point x="180" y="499"/>
			<point x="193" y="486" type="qcurve" smooth="yes"/>
			<point x="213" y="469"/>
			<point x="260" y="436"/>
		</contour>
	</outline>
</glyph>
<glyph name="uni00A2" format="2">
	<advance width="456"/>
	<unicode hex="00A2"/>
	<note>
		uni00A2
	</note>
	<outline>
		<contour>
			<point x="369" y="97" type="line"/>
			<point x="351" y="83"/>
			<point x="306" y="67"/>
			<point x="279" y="67" type="qcurve" smooth="yes"/>
			<point x="238" y="67"/>
			<point x="174" y="104"/>
			<point x="138" y="169"/>
			<point x="138" y="207" type="qcurve" smooth="yes"/>
			<point x="138" y="247"/>
			<point x="173" y="311"/>
			<point x="234" y="348"/>
			<point x="270" y="348" type="qcurve" smooth="yes"/>
			<point x="303" y="348"/>
			<point x="355" y="326"/>
			<point x="373" y="312" type="qcurve"/>
			<point x="419" y="372" type="line"/>
			<point x="391" y="396"/>
			<point x="312" y="424"/>
			<point x="262" y="424" type="qcurve" smooth="yes"/>
			<point x="205" y="424"/>
			<point x="106" y="371"/>
			<point x="45" y="273"/>
			<point x="45" y="207" type="qcurve" smooth="yes"/>
			<point x="45" y="141"/>
			<point x="102" y="44"/>
			<point x="204" y="-10"/>
			<point x="272" y="-10" type="qcurve" smooth="yes"/>
			<point x="311" y="-10"/>
			<point x="389" y="16"/>
			<point x="417" y="38" type="qcurve"/>
		</contour>
		<contour>
			<point x="237" y="-68" type="line"/>
			<point x="295" y="-68" type="line"/>
			<point x="295" y="481" type="line"/>
			<point x="237" y="481" type="line"/>
		</contour>
	</outline>
</glyph>
<glyph name="uni00A3" format="2">
	<advance width="632"/>
	<unicode hex="00A3"/>
	<note>
		uni00A3
	</note>
	<outline>
		<contour>
			<point x="154" y="195" type="line"/>
			<point x="154" y="152"/>
			<point x="145" y="108"/>
			<point x="123" y="93"/>
			<point x="101" y="93" type="qcurve" smooth="yes"/>
			<point x="56" y="93" type="line"/>
			<point x="56" y="0" type="line"/>
			<point x="448" y="0" type="line" smooth="yes"/>
			<point x="487" y="0"/>
			<point x="538" y="17"/>
			<point x="568" y="48"/>
			<point x="581" y="90"/>
			<point x="581" y="115" type="qcurve" smooth="yes"/>
			<point x="581" y="180" type="line"/>
			<point x="496" y="179" type="line"/>
			<point x="496" y="137" type="line" smooth="yes"/>
			<point x="496" y="113"/>
			<point x="463" y="93"/>
			<point x="427" y="93" type="qcurve" smooth="yes"/>
			<point x="211" y="93" type="line"/>
			<point x="225" y="87" type="line"/>
			<point x="236" y="97"/>
			<point x="247" y="128"/>
			<point x="250" y="163"/>
			<point x="250" y="177" type="qcurve" smooth="yes"/>
			<point x="250" y="199" type="line"/>
			<point x="250" y="504" type="line" smooth="yes"/>
			<point x="250" y="536"/>
			<point x="273" y="582"/>
			<point x="323" y="606"/>
			<point x="364" y="606" type="qcurve" smooth="yes"/>
			<point x="401" y="606"/>
			<point x="445" y="590"/>
			<point x="473" y="564"/>
			<point x="483" y="549" type="qcurve"/>
			<point x="553" y="597" type="line"/>
			<point x="528" y="644"/>
			<point x="434" y="699"/>
			<point x="363" y="699" type="qcurve" smooth="yes"/>
			<point x="300" y="699"/>
			<point x="206" y="658"/>
			<point x="154" y="585"/>
			<point x="154" y="538" type="qcurve" smooth="yes"/>
		</contour>
		<contour>
			<point x="88" y="384" type="line"/>
			<point x="88" y="290" type="line"/>
			<point x="389" y="290" type="line"/>
			<point x="389" y="384" type="line"/>
		</contour>
	</outline>
</glyph>
<glyph name="uni00A4" format="2">
	<advance width="504"/>
	<unicode hex="00A4"/>
	<note>
		uni00A4
	</note>
	<outline>
		<contour>
			<point x="334" y="483" type="line"/>
			<point x="316" y="495"/>
			<point x="274" y="510"/>
			<point x="250" y="510" type="qcurve" smooth="yes"/>
			<point x="227" y="510"/>
			<point x="185" y="495"/>
			<point x="167" y="483" type="qcurve"/>
			<point x="138" y="512" type="line"/>
			<point x="97" y="472" type="line"/>
			<point x="105" y="464"/>
			<point x="118" y="450"/>
			<point x="126" y="443" type="qcurve"/>
			<point x="114" y="425"/>
			<point x="101" y="384"/>
			<point x="101" y="361" type="qcurve"/>
			<point x="101" y="361" type="line"/>
			<point x="101" y="337"/>
			<point x="115" y="293"/>
			<point x="127" y="275" type="qcurve"/>
			<point x="97" y="245" type="line"/>
			<point x="138" y="205" type="line"/>
			<point x="169" y="236" type="line"/>
			<point x="169" y="236" type="line"/>
			<point x="186" y="225"/>
			<point x="227" y="212"/>
			<point x="250" y="212" type="qcurve" smooth="yes"/>
			<point x="297" y="212"/>
			<point x="332" y="237" type="qcurve"/>
			<point x="341" y="229"/>
			<point x="356" y="213"/>
			<point x="364" y="206" type="qcurve"/>
			<point x="404" y="246" type="line"/>
			<point x="374" y="276" type="line"/>
			<point x="387" y="294"/>
			<point x="402" y="337"/>
			<point x="402" y="361" type="qcurve" smooth="yes"/>
			<point x="402" y="406"/>
			<point x="376" y="443" type="qcurve"/>
			<point x="404" y="471" type="line"/>
			<point x="363" y="512" type="line"/>
			<point x="334" y="483" type="line"/>
		</contour>
		<contour>
			<point x="158" y="361" type="qcurve" smooth="yes"/>
			<point x="158" y="387"/>
			<point x="183" y="429"/>
			<point x="226" y="454"/>
			<point x="251" y="454" type="qcurve" smooth="yes"/>
			<point x="277" y="454"/>
			<point x="318" y="429"/>
			<point x="344" y="387"/>
			<point x="344" y="361" type="qcurve" smooth="yes"/>
			<point x="344" y="335"/>
			<point x="319" y="293"/>
			<point x="277" y="268"/>
			<point x="251" y="268" type="qcurve" smooth="yes"/>
			<point x="226" y="268"/>
			<point x="184" y="293"/>
			<point x="158" y="335"/>
		</contour>
	</outline>
</glyph>
<glyph name="uni00A5" format="2">
	<advance width="691"/>
	<unicode hex="00A5"/>
	<note>
		uni00A5
	</note>
	<outline>
		<contour>
			<point x="165" y="301" type="line"/>
			<point x="165" y="225" type="line"/>
			<point x="296" y="225" type="line"/>
			<point x="296" y="154" type="line"/>
			<point x="166" y="154" type="line"/>
			<point x="166" y="77" type="line"/>
			<point x="296" y="77" type="line"/>
			<point x="296" y="0" type="line"/>
			<point x="393" y="0" type="line"/>
			<point x="393" y="77" type="line"/>
			<point x="532" y="77" type="line"/>
			<point x="532" y="154" type="line"/>
			<point x="393" y="154" type="line"/>
			<point x="393" y="225" type="line"/>
			<point x="533" y="225" type="line"/>
			<point x="533" y="301" type="line"/>
			<point x="393" y="301" type="line"/>
			<point x="393" y="303" type="line"/>
			<point x="663" y="723" type="line"/>
			<point x="545" y="723" type="line"/>
			<point x="348" y="408" type="line"/>
			<point x="147" y="723" type="line"/>
			<point x="28" y="723" type="line"/>
			<point x="296" y="303" type="line"/>
			<point x="296" y="301" type="line"/>
		</contour>
	</outline>
</glyph>
<glyph name="uni00A6" format="2">
	<advance width="217"/>
	<unicode hex="00A6"/>
	<note>
		uni00A6
	</note>
	<outline>
		<contour>
			<point x="70" y="354" type="line"/>
			<point x="154" y="354" type="line"/>
			<point x="154" y="709" type="line"/>
			<point x="70" y="709" type="line"/>
		</contour>
		<contour>
			<point x="70" y="-236" type="line"/>
			<point x="154" y="-236" type="line"/>
			<point x="154" y="118" type="line"/>
			<point x="70" y="118" type="line"/>
		</contour>
	</outline>
</glyph>
<glyph name="uni00A7" format="2">
	<advance width="571"/>
	<unicode hex="00A7"/>
	<note>
		uni00A7
	</note>
	<outline>
		<contour>
			<point x="370" y="137" type="line"/>
			<point x="443" y="152"/>
			<point x="521" y="243"/>
			<point x="521" y="301" type="qcurve" smooth="yes"/>
			<point x="521" y="343"/>
			<point x="488" y="400"/>
			<point x="433" y="438"/>
			<point x="367" y="462"/>
			<point x="334" y="470" type="qcurve" smooth="yes"/>
			<point x="295" y="480"/>
			<point x="231" y="504"/>
			<point x="193" y="541"/>
			<point x="193" y="569" type="qcurve" smooth="yes"/>
			<point x="193" y="590"/>
			<point x="219" y="626"/>
			<point x="271" y="648"/>
			<point x="310" y="648" type="qcurve" smooth="yes"/>
			<point x="346" y="647"/>
			<point x="416" y="623"/>
			<point x="452" y="597" type="qcurve"/>
			<point x="493" y="669" type="line"/>
			<point x="455" y="697"/>
			<point x="355" y="731"/>
			<point x="300" y="731" type="qcurve" smooth="yes"/>
			<point x="247" y="731"/>
			<point x="169" y="702"/>
			<point x="117" y="651"/>
			<point x="92" y="589"/>
			<point x="92" y="557" type="qcurve" smooth="yes"/>
			<point x="92" y="520"/>
			<point x="123" y="457"/>
			<point x="189" y="410"/>
			<point x="239" y="394" type="qcurve"/>
			<point x="247" y="428" type="line"/>
			<point x="203" y="430"/>
			<point x="121" y="397"/>
			<point x="69" y="328"/>
			<point x="69" y="276" type="qcurve" smooth="yes"/>
			<point x="69" y="236"/>
			<point x="103" y="180"/>
			<point x="159" y="141"/>
			<point x="227" y="116"/>
			<point x="260" y="107" type="qcurve" smooth="yes"/>
			<point x="295" y="99"/>
			<point x="357" y="76"/>
			<point x="396" y="40"/>
			<point x="396" y="9" type="qcurve" smooth="yes"/>
			<point x="396" y="-20"/>
			<point x="361" y="-63"/>
			<point x="304" y="-85"/>
			<point x="270" y="-85" type="qcurve" smooth="yes"/>
			<point x="241" y="-85"/>
			<point x="183" y="-69"/>
			<point x="126" y="-38"/>
			<point x="98" y="-17" type="qcurve"/>
			<point x="50" y="-97" type="line"/>
			<point x="77" y="-118"/>
			<point x="148" y="-152"/>
			<point x="231" y="-171"/>
			<point x="276" y="-171" type="qcurve" smooth="yes"/>
			<point x="340" y="-171"/>
			<point x="440" y="-119"/>
			<point x="497" y="-31"/>
			<point x="497" y="22" type="qcurve" smooth="yes"/>
			<point x="497" y="69"/>
			<point x="453" y="132"/>
			<point x="380" y="168"/>
			<point x="336" y="172" type="qcurve"/>
		</contour>
		<contour>
			<point x="427" y="284" type="qcurve" smooth="yes"/>
			<point x="426" y="255"/>
			<point x="388" y="213"/>
			<point x="332" y="190"/>
			<point x="304" y="187" type="qcurve"/>
			<point x="264" y="198"/>
			<point x="200" y="225"/>
			<point x="163" y="267"/>
			<point x="163" y="299" type="qcurve" smooth="yes"/>
			<point x="165" y="335"/>
			<point x="235" y="385"/>
			<point x="294" y="383" type="qcurve"/>
			<point x="326" y="377"/>
			<point x="387" y="352"/>
			<point x="428" y="313"/>
		</contour>
	</outline>
</glyph>
<glyph name="uni00A8" format="2">
	<advance width="415"/>
	<unicode hex="00A8"/>
	<note>
		uni00A8
	</note>
	<outline>
		<contour>
			<point x="62" y="527" type="qcurve" smooth="yes"/>
			<point x="62" y="504"/>
			<point x="94" y="474"/>
			<point x="114" y="474" type="qcurve" smooth="yes"/>
			<point x="133" y="474"/>
			<point x="166" y="503"/>
			<point x="166" y="526" type="qcurve" smooth="yes"/>
			<point x="166" y="549"/>
			<point x="133" y="580"/>
			<point x="114" y="580" type="qcurve" smooth="yes"/>
			<point x="94" y="580"/>
			<point x="62" y="549"/>
		</contour>
		<contour>
			<point x="249" y="527" type="qcurve" smooth="yes"/>
			<point x="249" y="504"/>
			<point x="282" y="474"/>
			<point x="302" y="474" type="qcurve" smooth="yes"/>
			<point x="320" y="474"/>
			<point x="353" y="503"/>
			<point x="353" y="526" type="qcurve" smooth="yes"/>
			<point x="353" y="549"/>
			<point x="320" y="580"/>
			<point x="302" y="580" type="qcurve" smooth="yes"/>
			<point x="282" y="580"/>
			<point x="249" y="549"/>
		</contour>
	</outline>
</glyph>
<glyph name="uni00A9" format="2">
	<advance width="847"/>
	<unicode hex="00A9"/>
	<note>
		uni00A9
	</note>
	<outline>
		<contour>
			<point x="523" y="266" type="line"/>
			<point x="506" y="248"/>
			<point x="463" y="231"/>
			<point x="441" y="231" type="qcurve" smooth="yes"/>
			<point x="411" y="231"/>
			<point x="366" y="261"/>
			<point x="341" y="309"/>
			<point x="341" y="338" type="qcurve" smooth="yes"/>
			<point x="341" y="367"/>
			<point x="367" y="415"/>
			<point x="412" y="445"/>
			<point x="441" y="445" type="qcurve" smooth="yes"/>
			<point x="461" y="445"/>
			<point x="498" y="435"/>
			<point x="514" y="421" type="qcurve"/>
			<point x="551" y="492" type="line"/>
			<point x="537" y="505"/>
			<point x="496" y="520"/>
			<point x="454" y="527"/>
			<point x="434" y="527" type="qcurve" smooth="yes"/>
			<point x="378" y="527"/>
			<point x="292" y="477"/>
			<point x="245" y="391"/>
			<point x="245" y="335" type="qcurve" smooth="yes"/>
			<point x="245" y="285"/>
			<point x="292" y="200"/>
			<point x="375" y="148"/>
			<point x="426" y="147" type="qcurve" smooth="yes"/>
			<point x="472" y="146"/>
			<point x="544" y="181"/>
			<point x="566" y="202" type="qcurve"/>
		</contour>
		<contour>
			<point x="423" y="-1" type="qcurve" smooth="yes"/>
			<point x="496" y="-1"/>
			<point x="619" y="49"/>
			<point x="712" y="140"/>
			<point x="764" y="262"/>
			<point x="764" y="334" type="qcurve" smooth="yes"/>
			<point x="764" y="407"/>
			<point x="711" y="530"/>
			<point x="617" y="620"/>
			<point x="494" y="670"/>
			<point x="424" y="670" type="qcurve" smooth="yes"/>
			<point x="353" y="670"/>
			<point x="230" y="620"/>
			<point x="136" y="530"/>
			<point x="83" y="407"/>
			<point x="83" y="334" type="qcurve" smooth="yes"/>
			<point x="83" y="262"/>
			<point x="136" y="140"/>
			<point x="230" y="49"/>
			<point x="353" y="-1"/>
		</contour>
		<contour>
			<point x="423" y="75" type="qcurve" smooth="yes"/>
			<point x="346" y="75"/>
			<point x="229" y="142"/>
			<point x="164" y="259"/>
			<point x="164" y="333" type="qcurve" smooth="yes"/>
			<point x="164" y="409"/>
			<point x="233" y="527"/>
			<point x="351" y="595"/>
			<point x="423" y="595" type="qcurve" smooth="yes"/>
			<point x="496" y="595"/>
			<point x="613" y="527"/>
			<point x="682" y="410"/>
			<point x="682" y="333" type="qcurve" smooth="yes"/>
			<point x="682" y="260"/>
			<point x="613" y="142"/>
			<point x="496" y="75"/>
		</contour>
	</outline>
</glyph>
<glyph name="guillemotleft" format="2">
	<advance width="606"/>
	<unicode hex="00AB"/>
	<note>
		guillemotleft
	</note>
	<outline>
		<contour>
			<point x="276" y="137" type="line"/>
			<point x="270" y="144"/>
			<point x="238" y="173"/>
			<point x="201" y="206"/>
			<point x="171" y="235"/>
			<point x="164" y="242" type="qcurve"/>
			<point x="171" y="249"/>
			<point x="201" y="278"/>
			<point x="238" y="310"/>
			<point x="270" y="339"/>
			<point x="276" y="345" type="qcurve"/>
			<point x="276" y="430" type="line"/>
			<point x="271" y="425"/>
			<point x="237" y="397"/>
			<point x="190" y="357"/>
			<point x="139" y="315"/>
			<point x="92" y="276"/>
			<point x="58" y="247"/>
			<point x="53" y="242" type="qcurve"/>
			<point x="276" y="53" type="line"/>
		</contour>
		<contour>
			<point x="497" y="137" type="line"/>
			<point x="490" y="144"/>
			<point x="459" y="173"/>
			<point x="422" y="206"/>
			<point x="392" y="235"/>
			<point x="385" y="242" type="qcurve"/>
			<point x="392" y="249"/>
			<point x="422" y="278"/>
			<point x="459" y="310"/>
			<point x="490" y="339"/>
			<point x="497" y="345" type="qcurve"/>
			<point x="497" y="430" type="line"/>
			<point x="492" y="425"/>
			<point x="458" y="397"/>
			<point x="411" y="357"/>
			<point x="359" y="315"/>
			<point x="313" y="276"/>
			<point x="279" y="247"/>
			<point x="274" y="242" type="qcurve"/>
			<point x="497" y="53" type="line"/>
		</contour>
	</outline>
</glyph>
<glyph name="uni00AC" format="2">
	<advance width="501"/>
	<unicode hex="00AC"/>
	<note>
		uni00AC
	</note>
	<outline>
		<contour>
			<point x="336" y="112" type="line"/>
			<point x="433" y="112" type="line"/>
			<point x="433" y="296" type="line"/>
			<point x="69" y="296" type="line"/>
			<point x="69" y="203" type="line"/>
			<point x="336" y="203" type="line"/>
		</contour>
	</outline>
</glyph>
<glyph name="uni00AD" format="2">
	<advance width="600"/>
	<unicode hex="00AD"/>
	<note>
		uni00AD
	</note>
	<outline>
		<contour>
			<point x="53" y="174" type="line"/>
			<point x="240" y="174" type="line"/>
			<point x="240" y="267" type="line"/>
			<point x="53" y="267" type="line"/>
		</contour>
	</outline>
</glyph>
<glyph name="uni00AE" format="2">
	<advance width="486"/>
	<unicode hex="00AE"/>
	<note>
		uni00AE
	</note>
	<outline>
		<contour>
			<point x="243" y="303" type="qcurve" smooth="yes"/>
			<point x="302" y="303"/>
			<point x="398" y="358"/>
			<point x="455" y="452"/>
			<point x="455" y="512" type="qcurve" smooth="yes"/>
			<point x="455" y="572"/>
			<point x="398" y="666"/>
			<point x="302" y="720"/>
			<point x="243" y="720" type="qcurve" smooth="yes"/>
			<point x="185" y="720"/>
			<point x="88" y="666"/>
			<point x="31" y="572"/>
			<point x="31" y="512" type="qcurve" smooth="yes"/>
			<point x="31" y="452"/>
			<point x="88" y="357"/>
			<point x="185" y="303"/>
		</contour>
		<contour>
			<point x="242" y="356" type="qcurve" smooth="yes"/>
			<point x="199" y="356"/>
			<point x="128" y="396"/>
			<point x="87" y="467"/>
			<point x="87" y="512" type="qcurve" smooth="yes"/>
			<point x="87" y="557"/>
			<point x="128" y="628"/>
			<point x="199" y="669"/>
			<point x="242" y="669" type="qcurve" smooth="yes"/>
			<point x="286" y="669"/>
			<point x="357" y="628"/>
			<point x="398" y="557"/>
			<point x="398" y="512" type="qcurve" smooth="yes"/>
			<point x="398" y="467"/>
			<point x="357" y="396"/>
			<point x="286" y="356"/>
		</contour>
		<contour>
			<point x="254" y="482" type="line"/>
			<point x="292" y="482"/>
			<point x="327" y="526"/>
			<point x="327" y="553" type="qcurve" smooth="yes"/>
			<point x="327" y="586"/>
			<point x="287" y="621"/>
			<point x="251" y="621" type="qcurve" smooth="yes"/>
			<point x="167" y="621" type="line"/>
			<point x="167" y="408" type="line"/>
			<point x="220" y="408" type="line"/>
			<point x="220" y="482" type="line"/>
		</contour>
		<contour>
			<point x="242" y="581" type="line"/>
			<point x="256" y="581"/>
			<point x="271" y="564"/>
			<point x="271" y="551" type="qcurve" smooth="yes"/>
			<point x="271" y="539"/>
			<point x="258" y="523"/>
			<point x="240" y="523" type="qcurve" smooth="yes"/>
			<point x="220" y="523" type="line"/>
			<point x="220" y="581" type="line"/>
		</contour>
		<contour>
			<point x="234" y="493" type="line"/>
			<point x="268" y="408" type="line"/>
			<point x="328" y="408" type="line"/>
			<point x="288" y="494" type="line"/>
		</contour>
	</outline>
</glyph>
<glyph name="uni00AF" format="2">
	<advance width="371"/>
	<unicode hex="00AF"/>
	<note>
		uni00AF
	</note>
	<outline>
		<contour>
			<point x="63" y="471" type="line"/>
			<point x="309" y="471" type="line"/>
			<point x="309" y="537" type="line"/>
			<point x="63" y="537" type="line"/>
		</contour>
	</outline>
</glyph>
<glyph name="uni00B0" format="2">
	<advance width="285"/>
	<unicode hex="00B0"/>
	<note>
		uni00B0
	</note>
	<outline>
		<contour>
			<point x="37" y="567" type="qcurve" smooth="yes"/>
			<point x="37" y="539"/>
			<point x="64" y="492"/>
			<point x="111" y="466"/>
			<point x="140" y="466" type="qcurve" smooth="yes"/>
			<point x="168" y="466"/>
			<point x="213" y="492"/>
			<point x="240" y="539"/>
			<point x="240" y="567" type="qcurve" smooth="yes"/>
			<point x="240" y="595"/>
			<point x="213" y="641"/>
			<point x="168" y="668"/>
			<point x="140" y="668" type="qcurve" smooth="yes"/>
			<point x="111" y="668"/>
			<point x="64" y="642"/>
			<point x="37" y="595"/>
		</contour>
		<contour>
			<point x="140" y="517" type="qcurve" smooth="yes"/>
			<point x="120" y="517"/>
			<point x="91" y="546"/>
			<point x="91" y="566" type="qcurve" smooth="yes"/>
			<point x="91" y="587"/>
			<point x="119" y="616"/>
			<point x="140" y="616" type="qcurve" smooth="yes"/>
			<point x="160" y="616"/>
			<point x="190" y="586"/>
			<point x="190" y="567" type="qcurve" smooth="yes"/>
			<point x="190" y="546"/>
			<point x="160" y="517"/>
		</contour>
	</outline>
</glyph>
<glyph name="uni00B1" format="2">
	<advance width="531"/>
	<unicode hex="00B1"/>
	<note>
		uni00B1
	</note>
	<outline>
		<contour>
			<point x="451" y="436" type="line"/>
			<point x="312" y="436" type="line"/>
			<point x="312" y="578" type="line"/>
			<point x="227" y="578" type="line"/>
			<point x="227" y="436" type="line"/>
			<point x="87" y="436" type="line"/>
			<point x="87" y="355" type="line"/>
			<point x="227" y="355" type="line"/>
			<point x="227" y="213" type="line"/>
			<point x="312" y="213" type="line"/>
			<point x="312" y="355" type="line"/>
			<point x="451" y="355" type="line"/>
		</contour>
		<contour>
			<point x="87" y="89" type="line"/>
			<point x="451" y="89" type="line"/>
			<point x="451" y="171" type="line"/>
			<point x="87" y="171" type="line"/>
		</contour>
	</outline>
</glyph>
<glyph name="uni00B2" format="2">
	<advance width="403"/>
	<unicode hex="00B2"/>
	<note>
		uni00B2
	</note>
	<outline>
		<contour>
			<point x="97" y="575" type="line"/>
			<point x="108" y="592"/>
			<point x="150" y="616"/>
			<point x="174" y="616" type="qcurve" smooth="yes"/>
			<point x="203" y="616"/>
			<point x="236" y="583"/>
			<point x="236" y="544" type="qcurve" smooth="yes"/>
			<point x="236" y="518"/>
			<point x="205" y="466"/>
			<point x="156" y="418"/>
			<point x="101" y="375"/>
			<point x="76" y="357" type="qcurve"/>
			<point x="76" y="306" type="line"/>
			<point x="348" y="306" type="line"/>
			<point x="348" y="384" type="line"/>
			<point x="147" y="384" type="line"/>
			<point x="135" y="321" type="line"/>
			<point x="161" y="343"/>
			<point x="228" y="397"/>
			<point x="292" y="458"/>
			<point x="333" y="529"/>
			<point x="333" y="569" type="qcurve" smooth="yes"/>
			<point x="333" y="628"/>
			<point x="259" y="694"/>
			<point x="198" y="695" type="qcurve" smooth="yes"/>
			<point x="159" y="695"/>
			<point x="85" y="661"/>
			<point x="68" y="636" type="qcurve"/>
		</contour>
	</outline>
</glyph>
<glyph name="uni00B3" format="2">
	<advance width="390"/>
	<unicode hex="00B3"/>
	<note>
		uni00B3
	</note>
	<outline>
		<contour>
			<point x="165" y="303" type="qcurve" smooth="yes"/>
			<point x="208" y="303"/>
			<point x="272" y="339"/>
			<point x="307" y="401"/>
			<point x="307" y="439" type="qcurve" smooth="yes"/>
			<point x="307" y="475"/>
			<point x="271" y="525"/>
			<point x="218" y="550"/>
			<point x="191" y="549" type="qcurve" smooth="yes"/>
			<point x="169" y="549"/>
			<point x="136" y="535"/>
			<point x="124" y="525" type="qcurve"/>
			<point x="185" y="509" type="line"/>
			<point x="289" y="688" type="line"/>
			<point x="69" y="688" type="line"/>
			<point x="69" y="620" type="line"/>
			<point x="210" y="620" type="line"/>
			<point x="189" y="636" type="line"/>
			<point x="100" y="503" type="line"/>
			<point x="105" y="494" type="line"/>
			<point x="113" y="498"/>
			<point x="136" y="504"/>
			<point x="154" y="504" type="qcurve" smooth="yes"/>
			<point x="182" y="504"/>
			<point x="222" y="472"/>
			<point x="222" y="436" type="qcurve" smooth="yes"/>
			<point x="222" y="402"/>
			<point x="185" y="365"/>
			<point x="155" y="365" type="qcurve" smooth="yes"/>
			<point x="129" y="364"/>
			<point x="92" y="394"/>
			<point x="82" y="404" type="qcurve"/>
			<point x="55" y="350" type="line"/>
			<point x="70" y="334"/>
			<point x="125" y="303"/>
		</contour>
	</outline>
</glyph>
<glyph name="uni00B4" format="2">
	<advance width="276"/>
	<unicode hex="00B4"/>
	<note>
		uni00B4
	</note>
	<outline>
		<contour>
			<point x="128" y="619" type="line"/>
			<point x="45" y="485" type="line"/>
			<point x="104" y="485" type="line"/>
			<point x="231" y="619" type="line"/>
		</contour>
	</outline>
</glyph>
<glyph name="uni00B9" format="2">
	<advance width="270"/>
	<unicode hex="00B9"/>
	<note>
		uni00B9
	</note>
	<outline>
		<contour>
			<point x="105" y="288" type="line"/>
			<point x="192" y="288" type="line"/>
			<point x="192" y="660" type="line"/>
			<point x="45" y="660" type="line"/>
			<point x="45" y="577" type="line"/>
			<point x="105" y="577" type="line"/>
		</contour>
	</outline>
</glyph>
<glyph name="guillemotright" format="2">
	<advance width="606"/>
	<unicode hex="00BB"/>
	<note>
		guillemotright
	</note>
	<outline>
		<contour>
			<point x="538" y="242" type="line"/>
			<point x="533" y="247"/>
			<point x="499" y="276"/>
			<point x="452" y="315"/>
			<point x="400" y="357"/>
			<point x="353" y="397"/>
			<point x="320" y="425"/>
			<point x="314" y="430" type="qcurve"/>
			<point x="314" y="345" type="line"/>
			<point x="321" y="339"/>
			<point x="352" y="310"/>
			<point x="389" y="278"/>
			<point x="419" y="249"/>
			<point x="426" y="242" type="qcurve"/>
			<point x="419" y="235"/>
			<point x="389" y="206"/>
			<point x="352" y="173"/>
			<point x="321" y="144"/>
			<point x="314" y="137" type="qcurve"/>
			<point x="314" y="53" type="line"/>
		</contour>
		<contour>
			<point x="317" y="242" type="line"/>
			<point x="312" y="247"/>
			<point x="278" y="276"/>
			<point x="231" y="315"/>
			<point x="180" y="357"/>
			<point x="133" y="397"/>
			<point x="99" y="425"/>
			<point x="94" y="430" type="qcurve"/>
			<point x="94" y="345" type="line"/>
			<point x="100" y="339"/>
			<point x="131" y="310"/>
			<point x="168" y="278"/>
			<point x="199" y="249"/>
			<point x="205" y="242" type="qcurve"/>
			<point x="199" y="235"/>
			<point x="168" y="206"/>
			<point x="131" y="173"/>
			<point x="100" y="144"/>
			<point x="94" y="137" type="qcurve"/>
			<point x="94" y="53" type="line"/>
		</contour>
	</outline>
</glyph>
<glyph name="uni00BC" format="2">
	<advance width="811"/>
	<unicode hex="00BC"/>
	<note>
		uni00BC
	</note>
	<outline>
		<contour>
			<point x="549" y="684" type="line"/>
			<point x="142" y="0" type="line"/>
			<point x="230" y="0" type="line"/>
			<point x="637" y="684" type="line"/>
		</contour>
		<contour>
			<point x="49" y="660" type="line"/>
			<point x="49" y="577" type="line"/>
			<point x="108" y="577" type="line"/>
			<point x="108" y="288" type="line"/>
			<point x="195" y="288" type="line"/>
			<point x="195" y="660" type="line"/>
		</contour>
		<contour>
			<point x="732" y="0" type="line"/>
			<point x="732" y="100" type="line"/>
			<point x="776" y="100" type="line"/>
			<point x="776" y="153" type="line"/>
			<point x="732" y="153" type="line"/>
			<point x="732" y="380" type="line"/>
			<point x="675" y="380" type="line"/>
			<point x="477" y="124" type="line"/>
			<point x="479" y="100" type="line"/>
			<point x="651" y="100" type="line"/>
			<point x="651" y="0" type="line"/>
		</contour>
		<contour>
			<point x="651" y="153" type="line"/>
			<point x="571" y="153" type="line"/>
			<point x="651" y="257" type="line"/>
		</contour>
	</outline>
</glyph>
<glyph name="uni00BD" format="2">
	<advance width="876"/>
	<unicode hex="00BD"/>
	<note>
		uni00BD
	</note>
	<outline>
		<contour>
			<point x="557" y="263" type="line"/>
			<point x="568" y="280"/>
			<point x="610" y="304"/>
			<point x="634" y="304" type="qcurve" smooth="yes"/>
			<point x="663" y="304"/>
			<point x="696" y="271"/>
			<point x="696" y="232" type="qcurve" smooth="yes"/>
			<point x="696" y="206"/>
			<point x="665" y="154"/>
			<point x="616" y="106"/>
			<point x="561" y="63"/>
			<point x="536" y="45" type="qcurve"/>
			<point x="536" y="-6" type="line"/>
			<point x="808" y="-6" type="line"/>
			<point x="808" y="72" type="line"/>
			<point x="607" y="72" type="line"/>
			<point x="595" y="9" type="line"/>
			<point x="621" y="31"/>
			<point x="688" y="85"/>
			<point x="752" y="146"/>
			<point x="793" y="217"/>
			<point x="793" y="257" type="qcurve" smooth="yes"/>
			<point x="793" y="316"/>
			<point x="719" y="382"/>
			<point x="658" y="383" type="qcurve" smooth="yes"/>
			<point x="619" y="383"/>
			<point x="545" y="349"/>
			<point x="528" y="324" type="qcurve"/>
		</contour>
		<contour>
			<point x="542" y="685" type="line"/>
			<point x="135" y="0" type="line"/>
			<point x="222" y="0" type="line"/>
			<point x="629" y="685" type="line"/>
		</contour>
		<contour>
			<point x="109" y="291" type="line"/>
			<point x="196" y="291" type="line"/>
			<point x="196" y="663" type="line"/>
			<point x="49" y="663" type="line"/>
			<point x="49" y="580" type="line"/>
			<point x="109" y="580" type="line"/>
		</contour>
	</outline>
</glyph>
<glyph name="uni00BE" format="2">
	<advance width="824"/>
	<unicode hex="00BE"/>
	<note>
		uni00BE
	</note>
	<outline>
		<contour>
			<point x="160" y="303" type="qcurve" smooth="yes"/>
			<point x="203" y="303"/>
			<point x="267" y="339"/>
			<point x="302" y="401"/>
			<point x="302" y="439" type="qcurve" smooth="yes"/>
			<point x="302" y="475"/>
			<point x="266" y="525"/>
			<point x="213" y="550"/>
			<point x="186" y="549" type="qcurve" smooth="yes"/>
			<point x="164" y="549"/>
			<point x="131" y="535"/>
			<point x="119" y="525" type="qcurve"/>
			<point x="180" y="509" type="line"/>
			<point x="284" y="688" type="line"/>
			<point x="64" y="688" type="line"/>
			<point x="64" y="620" type="line"/>
			<point x="205" y="620" type="line"/>
			<point x="184" y="636" type="line"/>
			<point x="95" y="503" type="line"/>
			<point x="100" y="494" type="line"/>
			<point x="108" y="498"/>
			<point x="131" y="504"/>
			<point x="149" y="504" type="qcurve" smooth="yes"/>
			<point x="177" y="504"/>
			<point x="217" y="472"/>
			<point x="217" y="436" type="qcurve" smooth="yes"/>
			<point x="217" y="402"/>
			<point x="180" y="365"/>
			<point x="150" y="365" type="qcurve" smooth="yes"/>
			<point x="124" y="364"/>
			<point x="87" y="394"/>
			<point x="77" y="404" type="qcurve"/>
			<point x="50" y="350" type="line"/>
			<point x="65" y="334"/>
			<point x="120" y="303"/>
		</contour>
		<contour>
			<point x="571" y="685" type="line"/>
			<point x="164" y="0" type="line"/>
			<point x="251" y="0" type="line"/>
			<point x="658" y="685" type="line"/>
		</contour>
		<contour>
			<point x="726" y="1" type="line"/>
			<point x="726" y="100" type="line"/>
			<point x="770" y="100" type="line"/>
			<point x="770" y="154" type="line"/>
			<point x="726" y="154" type="line"/>
			<point x="726" y="381" type="line"/>
			<point x="669" y="381" type="line"/>
			<point x="472" y="125" type="line"/>
			<point x="473" y="100" type="line"/>
			<point x="645" y="100" type="line"/>
			<point x="645" y="1" type="line"/>
		</contour>
		<contour>
			<point x="645" y="154" type="line"/>
			<point x="565" y="154" type="line"/>
			<point x="645" y="258" type="line"/>
		</contour>
	</outline>
</glyph>
<glyph name="uni0300" format="2">
	<advance width="0"/>
	<unicode hex="0300"/>
	<note>
		uni0300
	</note>
	<outline>
		<contour>
			<point x="130" y="485" type="line"/>
			<point x="190" y="485" type="line"/>
			<point x="117" y="619" type="line"/>
			<point x="14" y="619" type="line"/>
		</contour>
	</outline>
</glyph>
<glyph name="uni0301" format="2">
	<advance width="0"/>
	<unicode hex="0301"/>
	<note>
		uni0301
	</note>
	<outline>
		<contour>
			<point x="170" y="619" type="line"/>
			<point x="87" y="485" type="line"/>
			<point x="146" y="485" type="line"/>
			<point x="273" y="619" type="line"/>
		</contour>
	</outline>
</glyph>
<glyph name="uni0302" format="2">
	<advance width="0"/>
	<unicode hex="0302"/>
	<note>
		uni0302
	</note>
	<outline>
		<contour>
			<point x="210" y="668" type="line"/>
			<point x="209" y="668" type="line"/>
			<point x="44" y="497" type="line"/>
			<point x="130" y="497" type="line"/>
			<point x="209" y="583" type="line"/>
			<point x="291" y="497" type="line"/>
			<point x="377" y="497" type="line"/>
		</contour>
	</outline>
</glyph>
<glyph name="uni0306" format="2">
	<advance width="0"/>
	<unicode hex="0306"/>
	<note>
		uni0306
	</note>
	<outline>
		<contour>
			<point x="201" y="481" type="qcurve" smooth="yes"/>
			<point x="243" y="481"/>
			<point x="305" y="521"/>
			<point x="344" y="600"/>
			<point x="351" y="657" type="qcurve"/>
			<point x="287" y="657" type="line"/>
			<point x="283" y="625"/>
			<point x="263" y="574"/>
			<point x="228" y="545"/>
			<point x="201" y="545" type="qcurve" smooth="yes"/>
			<point x="176" y="545"/>
			<point x="139" y="574"/>
			<point x="118" y="625"/>
			<point x="113" y="657" type="qcurve"/>
			<point x="50" y="657" type="line"/>
			<point x="57" y="601"/>
			<point x="96" y="522"/>
			<point x="159" y="481"/>
		</contour>
	</outline>
</glyph>
<glyph name="uni0307" format="2">
	<advance width="0"/>
	<unicode hex="0307"/>
	<note>
		uni0307
	</note>
	<outline>
		<contour>
			<point x="52" y="571" type="qcurve" smooth="yes"/>
			<point x="52" y="549"/>
			<point x="87" y="519"/>
			<point x="108" y="519" type="qcurve" smooth="yes"/>
			<point x="129" y="519"/>
			<point x="162" y="548"/>
			<point x="162" y="571" type="qcurve" smooth="yes"/>
			<point x="162" y="593"/>
			<point x="129" y="623"/>
			<point x="108" y="623" type="qcurve" smooth="yes"/>
			<point x="87" y="623"/>
			<point x="52" y="593"/>
		</contour>
	</outline>
</glyph>
<glyph name="uni0308" format="2">
	<advance width="0"/>
	<unicode hex="0308"/>
	<note>
		uni0308
	</note>
	<outline>
		<contour>
			<point x="74" y="527" type="qcurve" smooth="yes"/>
			<point x="74" y="504"/>
			<point x="106" y="474"/>
			<point x="126" y="474" type="qcurve" smooth="yes"/>
			<point x="145" y="474"/>
			<point x="178" y="503"/>
			<point x="178" y="526" type="qcurve" smooth="yes"/>
			<point x="178" y="549"/>
			<point x="145" y="580"/>
			<point x="126" y="580" type="qcurve" smooth="yes"/>
			<point x="106" y="580"/>
			<point x="74" y="549"/>
		</contour>
		<contour>
			<point x="261" y="527" type="qcurve" smooth="yes"/>
			<point x="261" y="504"/>
			<point x="294" y="474"/>
			<point x="314" y="474" type="qcurve" smooth="yes"/>
			<point x="332" y="474"/>
			<point x="365" y="503"/>
			<point x="365" y="526" type="qcurve" smooth="yes"/>
			<point x="365" y="549"/>
			<point x="332" y="580"/>
			<point x="314" y="580" type="qcurve" smooth="yes"/>
			<point x="294" y="580"/>
			<point x="261" y="549"/>
		</contour>
	</outline>
</glyph>
<glyph name="uni030A" format="2">
	<advance width="0"/>
	<unicode hex="030A"/>
	<note>
		uni030A
	</note>
	<outline>
		<contour>
			<point x="94" y="530" type="qcurve" smooth="yes"/>
			<point x="94" y="491"/>
			<point x="147" y="441"/>
			<point x="187" y="441" type="qcurve" smooth="yes"/>
			<point x="227" y="441"/>
			<point x="281" y="491"/>
			<point x="281" y="530" type="qcurve" smooth="yes"/>
			<point x="281" y="570"/>
			<point x="227" y="619"/>
			<point x="188" y="619" type="qcurve" smooth="yes"/>
			<point x="147" y="619"/>
			<point x="94" y="570"/>
		</contour>
		<contour>
			<point x="145" y="529" type="qcurve" smooth="yes"/>
			<point x="145" y="549"/>
			<point x="169" y="573"/>
			<point x="188" y="573" type="qcurve" smooth="yes"/>
			<point x="206" y="573"/>
			<point x="230" y="549"/>
			<point x="230" y="529" type="qcurve" smooth="yes"/>
			<point x="230" y="510"/>
			<point x="206" y="485"/>
			<point x="188" y="485" type="qcurve" smooth="yes"/>
			<point x="169" y="485"/>
			<point x="145" y="510"/>
		</contour>
	</outline>
</glyph>
<glyph name="uni030B" format="2">
	<advance width="0"/>
	<unicode hex="030B"/>
	<note>
		uni030B
	</note>
	<outline>
		<contour>
			<point x="127" y="619" type="line"/>
			<point x="44" y="485" type="line"/>
			<point x="103" y="485" type="line"/>
			<point x="230" y="619" type="line"/>
		</contour>
		<contour>
			<point x="277" y="618" type="line"/>
			<point x="194" y="484" type="line"/>
			<point x="253" y="484" type="line"/>
			<point x="380" y="618" type="line"/>
		</contour>
	</outline>
</glyph>
<glyph name="uni030C" format="2">
	<advance width="0"/>
	<unicode hex="030C"/>
	<note>
		uni030C
	</note>
	<outline>
		<contour>
			<point x="191" y="570" type="line"/>
			<point x="108" y="657" type="line"/>
			<point x="22" y="657" type="line"/>
			<point x="190" y="485" type="line"/>
			<point x="191" y="485" type="line"/>
			<point x="356" y="657" type="line"/>
			<point x="270" y="657" type="line"/>
		</contour>
	</outline>
</glyph>
<glyph name="uni2013" format="2">
	<advance width="515"/>
	<unicode hex="2013"/>
	<note>
		uni2013
	</note>
	<outline>
		<contour>
			<point x="101" y="170" type="line"/>
			<point x="406" y="170" type="line"/>
			<point x="406" y="265" type="line"/>
			<point x="101" y="265" type="line"/>
		</contour>
	</outline>
</glyph>
<glyph name="uni2014" format="2">
	<advance width="709"/>
	<unicode hex="2014"/>
	<note>
		uni2014
	</note>
	<outline>
		<contour>
			<point x="100" y="170" type="line"/>
			<point x="608" y="170" type="line"/>
			<point x="608" y="267" type="line"/>
			<point x="100" y="267" type="line"/>
		</contour>
	</outline>
</glyph>
<glyph name="uni2018" format="2">
	<advance width="181"/>
	<unicode hex="2018"/>
	<note>
		uni2018
	</note>
	<outline>
		<contour>
			<point x="102" y="732" type="line"/>
			<point x="80" y="716"/>
			<point x="45" y="669"/>
			<point x="30" y="610"/>
			<point x="36" y="576" type="qcurve"/>
			<point x="110" y="583" type="line"/>
			<point x="104" y="616"/>
			<point x="128" y="684"/>
			<point x="150" y="708" type="qcurve"/>
		</contour>
	</outline>
</glyph>
<glyph name="uni2019" format="2">
	<advance width="185"/>
	<unicode hex="2019"/>
	<note>
		uni2019
	</note>
	<outline>
		<contour>
			<point x="82" y="564" type="line"/>
			<point x="104" y="579"/>
			<point x="138" y="631"/>
			<point x="154" y="692"/>
			<point x="148" y="720" type="qcurve"/>
			<point x="74" y="713" type="line"/>
			<point x="81" y="678"/>
			<point x="56" y="608"/>
			<point x="35" y="588" type="qcurve"/>
		</contour>
	</outline>
</glyph>
<glyph name="uni201A" format="2">
	<advance width="185"/>
	<unicode hex="201A"/>
	<note>
		uni201A
	</note>
	<outline>
		<contour>
			<point x="82" y="-85" type="line"/>
			<point x="104" y="-70"/>
			<point x="138" y="-18"/>
			<point x="154" y="43"/>
			<point x="148" y="71" type="qcurve"/>
			<point x="74" y="64" type="line"/>
			<point x="81" y="29"/>
			<point x="56" y="-41"/>
			<point x="35" y="-61" type="qcurve"/>
		</contour>
	</outline>
</glyph>
<glyph name="uni201C" format="2">
	<advance width="293"/>
	<unicode hex="201C"/>
	<note>
		uni201C
	</note>
	<outline>
		<contour>
			<point x="231" y="732" type="line"/>
			<point x="209" y="716"/>
			<point x="174" y="669"/>
			<point x="159" y="610"/>
			<point x="165" y="576" type="qcurve"/>
			<point x="239" y="583" type="line"/>
			<point x="233" y="616"/>
			<point x="257" y="684"/>
			<point x="279" y="708" type="qcurve"/>
		</contour>
		<contour>
			<point x="107" y="732" type="line"/>
			<point x="85" y="716"/>
			<point x="50" y="669"/>
			<point x="35" y="610"/>
			<point x="41" y="576" type="qcurve"/>
			<point x="115" y="583" type="line"/>
			<point x="109" y="616"/>
			<point x="133" y="684"/>
			<point x="155" y="708" type="qcurve"/>
		</contour>
	</outline>
</glyph>
<glyph name="uni201D" format="2">
	<advance width="290"/>
	<unicode hex="201D"/>
	<note>
		uni201D
	</note>
	<outline>
		<contour>
			<point x="82" y="564" type="line"/>
			<point x="104" y="579"/>
			<point x="138" y="631"/>
			<point x="154" y="692"/>
			<point x="148" y="720" type="qcurve"/>
			<point x="74" y="713" type="line"/>
			<point x="81" y="678"/>
			<point x="56" y="608"/>
			<point x="35" y="588" type="qcurve"/>
		</contour>
		<contour>
			<point x="199" y="564" type="line"/>
			<point x="221" y="579"/>
			<point x="255" y="631"/>
			<point x="271" y="692"/>
			<point x="265" y="720" type="qcurve"/>
			<point x="191" y="713" type="line"/>
			<point x="198" y="678"/>
			<point x="173" y="608"/>
			<point x="152" y="588" type="qcurve"/>
		</contour>
	</outline>
</glyph>
<glyph name="uni201E" format="2">
	<advance width="302"/>
	<unicode hex="201E"/>
	<note>
		uni201E
	</note>
	<outline>
		<contour>
			<point x="82" y="-84" type="line"/>
			<point x="104" y="-69"/>
			<point x="138" y="-17"/>
			<point x="154" y="44"/>
			<point x="148" y="72" type="qcurve"/>
			<point x="74" y="65" type="line"/>
			<point x="81" y="30"/>
			<point x="56" y="-40"/>
			<point x="35" y="-60" type="qcurve"/>
		</contour>
		<contour>
			<point x="199" y="-84" type="line"/>
			<point x="221" y="-69"/>
			<point x="255" y="-17"/>
			<point x="271" y="44"/>
			<point x="265" y="72" type="qcurve"/>
			<point x="191" y="65" type="line"/>
			<point x="198" y="30"/>
			<point x="173" y="-40"/>
			<point x="152" y="-60" type="qcurve"/>
		</contour>
	</outline>
</glyph>
<glyph name="uni2022" format="2">
	<advance width="484"/>
	<unicode hex="2022"/>
	<note>
		uni2022
	</note>
	<outline>
		<contour>
			<point x="115" y="304" type="qcurve" smooth="yes"/>
			<point x="115" y="268"/>
			<point x="149" y="210"/>
			<point x="207" y="176"/>
			<point x="242" y="176" type="qcurve" smooth="yes"/>
			<point x="278" y="176"/>
			<point x="337" y="210"/>
			<point x="371" y="269"/>
			<point x="371" y="304" type="qcurve" smooth="yes"/>
			<point x="371" y="340"/>
			<point x="337" y="399"/>
			<point x="278" y="433"/>
			<point x="242" y="433" type="qcurve" smooth="yes"/>
			<point x="207" y="433"/>
			<point x="149" y="399"/>
			<point x="115" y="340"/>
		</contour>
	</outline>
</glyph>
<glyph name="uni2026" format="2">
	<advance width="544"/>
	<unicode hex="2026"/>
	<note>
		uni2026
	</note>
	<outline>
		<contour>
			<point x="10" y="60" type="qcurve" smooth="yes"/>
			<point x="10" y="33"/>
			<point x="47" y="0"/>
			<point x="69" y="0" type="qcurve" smooth="yes"/>
			<point x="90" y="0"/>
			<point x="129" y="33"/>
			<point x="129" y="60" type="qcurve" smooth="yes"/>
			<point x="129" y="86"/>
			<point x="90" y="121"/>
			<point x="69" y="121" type="qcurve" smooth="yes"/>
			<point x="47" y="121"/>
			<point x="10" y="86"/>
		</contour>
		<contour>
			<point x="212" y="60" type="qcurve" smooth="yes"/>
			<point x="212" y="33"/>
			<point x="251" y="0"/>
			<point x="273" y="0" type="qcurve" smooth="yes"/>
			<point x="294" y="0"/>
			<point x="331" y="33"/>
			<point x="331" y="60" type="qcurve" smooth="yes"/>
			<point x="331" y="86"/>
			<point x="294" y="121"/>
			<point x="273" y="121" type="qcurve" smooth="yes"/>
			<point x="251" y="121"/>
			<point x="212" y="86"/>
		</contour>
		<contour>
			<point x="416" y="60" type="qcurve" smooth="yes"/>
			<point x="416" y="33"/>
			<point x="453" y="0"/>
			<point x="477" y="0" type="qcurve" smooth="yes"/>
			<point x="498" y="0"/>
			<point x="534" y="33"/>
			<point x="534" y="60" type="qcurve" smooth="yes"/>
			<point x="534" y="86"/>
			<point x="498" y="121"/>
			<point x="477" y="121" type="qcurve" smooth="yes"/>
			<point x="453" y="121"/>
			<point x="416" y="86"/>
		</contour>
	</outline>
</glyph>
<glyph name="uni2030" format="2">
	<advance width="1105"/>
	<unicode hex="2030"/>
	<note>
		uni2030
	</note>
	<outline>
		<contour>
			<point x="205" y="267" type="qcurve" smooth="yes"/>
			<point x="250" y="267"/>
			<point x="313" y="310"/>
			<point x="347" y="387"/>
			<point x="347" y="438" type="qcurve" smooth="yes"/>
			<point x="347" y="488"/>
			<point x="313" y="565"/>
			<point x="250" y="608"/>
			<point x="205" y="608" type="qcurve" smooth="yes"/>
			<point x="159" y="608"/>
			<point x="95" y="565"/>
			<point x="63" y="488"/>
			<point x="63" y="438" type="qcurve" smooth="yes"/>
			<point x="63" y="387"/>
			<point x="95" y="310"/>
			<point x="159" y="267"/>
		</contour>
		<contour>
			<point x="145" y="437" type="qcurve" smooth="yes"/>
			<point x="145" y="490"/>
			<point x="176" y="541"/>
			<point x="205" y="541" type="qcurve" smooth="yes"/>
			<point x="234" y="541"/>
			<point x="264" y="489"/>
			<point x="264" y="437" type="qcurve" smooth="yes"/>
			<point x="264" y="389"/>
			<point x="234" y="333"/>
			<point x="205" y="333" type="qcurve" smooth="yes"/>
			<point x="176" y="333"/>
			<point x="145" y="389"/>
		</contour>
		<contour>
			<point x="580" y="-16" type="qcurve" smooth="yes"/>
			<point x="626" y="-16"/>
			<point x="689" y="27"/>
			<point x="723" y="104"/>
			<point x="723" y="155" type="qcurve" smooth="yes"/>
			<point x="723" y="205"/>
			<point x="689" y="282"/>
			<point x="626" y="325"/>
			<point x="580" y="325" type="qcurve" smooth="yes"/>
			<point x="534" y="325"/>
			<point x="471" y="282"/>
			<point x="438" y="205"/>
			<point x="438" y="155" type="qcurve" smooth="yes"/>
			<point x="438" y="104"/>
			<point x="471" y="28"/>
			<point x="534" y="-16"/>
		</contour>
		<contour>
			<point x="520" y="154" type="qcurve" smooth="yes"/>
			<point x="520" y="207"/>
			<point x="551" y="258"/>
			<point x="580" y="258" type="qcurve" smooth="yes"/>
			<point x="609" y="258"/>
			<point x="640" y="206"/>
			<point x="640" y="154" type="qcurve" smooth="yes"/>
			<point x="640" y="106"/>
			<point x="609" y="50"/>
			<point x="580" y="50" type="qcurve" smooth="yes"/>
			<point x="551" y="50"/>
			<point x="520" y="106"/>
		</contour>
		<contour>
			<point x="907" y="-16" type="qcurve" smooth="yes"/>
			<point x="953" y="-16"/>
			<point x="1016" y="27"/>
			<point x="1050" y="104"/>
			<point x="1050" y="155" type="qcurve" smooth="yes"/>
			<point x="1050" y="205"/>
			<point x="1016" y="282"/>
			<point x="953" y="325"/>
			<point x="907" y="325" type="qcurve" smooth="yes"/>
			<point x="862" y="325"/>
			<point x="798" y="282"/>
			<point x="765" y="205"/>
			<point x="765" y="155" type="qcurve" smooth="yes"/>
			<point x="765" y="104"/>
			<point x="798" y="28"/>
			<point x="862" y="-16"/>
		</contour>
		<contour>
			<point x="847" y="154" type="qcurve" smooth="yes"/>
			<point x="847" y="207"/>
			<point x="878" y="258"/>
			<point x="907" y="258" type="qcurve" smooth="yes"/>
			<point x="936" y="258"/>
			<point x="967" y="206"/>
			<point x="967" y="154" type="qcurve" smooth="yes"/>
			<point x="967" y="106"/>
			<point x="936" y="50"/>
			<point x="907" y="50" type="qcurve" smooth="yes"/>
			<point x="878" y="50"/>
			<point x="847" y="106"/>
		</contour>
		<contour>
			<point x="559" y="609" type="line"/>
			<point x="144" y="0" type="line"/>
			<point x="236" y="-1" type="line"/>
			<point x="653" y="609" type="line"/>
		</contour>
	</outline>
</glyph>
<glyph name="uni2039" format="2">
	<advance width="371"/>
	<unicode hex="2039"/>
	<note>
		uni2039
	</note>
	<outline>
		<contour>
			<point x="275" y="160" type="line"/>
			<point x="271" y="165"/>
			<point x="246" y="188"/>
			<point x="217" y="214"/>
			<point x="183" y="242"/>
			<point x="183" y="242" type="qcurve"/>
			<point x="183" y="242"/>
			<point x="217" y="270"/>
			<point x="246" y="295"/>
			<point x="271" y="317"/>
			<point x="275" y="322" type="qcurve"/>
			<point x="276" y="430" type="line"/>
			<point x="271" y="425"/>
			<point x="237" y="397"/>
			<point x="190" y="357"/>
			<point x="139" y="315"/>
			<point x="92" y="276"/>
			<point x="58" y="247"/>
			<point x="53" y="242" type="qcurve"/>
			<point x="276" y="53" type="line"/>
		</contour>
	</outline>
</glyph>
<glyph name="uni203A" format="2">
	<advance width="365"/>
	<unicode hex="203A"/>
	<note>
		uni203A
	</note>
	<outline>
		<contour>
			<point x="182" y="242" type="qcurve"/>
			<point x="182" y="242"/>
			<point x="148" y="214"/>
			<point x="119" y="188"/>
			<point x="94" y="165"/>
			<point x="90" y="160" type="qcurve"/>
			<point x="89" y="53" type="line"/>
			<point x="312" y="242" type="line"/>
			<point x="307" y="247"/>
			<point x="273" y="276"/>
			<point x="226" y="315"/>
			<point x="175" y="357"/>
			<point x="128" y="397"/>
			<point x="94" y="425"/>
			<point x="89" y="430" type="qcurve"/>
			<point x="90" y="322" type="line"/>
			<point x="94" y="317"/>
			<point x="119" y="295"/>
			<point x="148" y="270"/>
			<point x="182" y="242"/>
		</contour>
	</outline>
</glyph>
<glyph name="uni2044" format="2">
	<advance width="566"/>
	<unicode hex="2044"/>
	<note>
		uni2044
	</note>
	<outline>
		<contour>
			<point x="419" y="685" type="line"/>
			<point x="12" y="0" type="line"/>
			<point x="125" y="0" type="line"/>
			<point x="532" y="685" type="line"/>
		</contour>
	</outline>
</glyph>
<glyph name="uni2074" format="2">
	<advance width="386"/>
	<unicode hex="2074"/>
	<note>
		uni2074
	</note>
	<outline>
		<contour>
			<point x="290" y="297" type="line"/>
			<point x="290" y="396" type="line"/>
			<point x="334" y="396" type="line"/>
			<point x="334" y="450" type="line"/>
			<point x="290" y="450" type="line"/>
			<point x="290" y="677" type="line"/>
			<point x="233" y="677" type="line"/>
			<point x="36" y="421" type="line"/>
			<point x="37" y="396" type="line"/>
			<point x="209" y="396" type="line"/>
			<point x="209" y="297" type="line"/>
		</contour>
		<contour>
			<point x="209" y="450" type="line"/>
			<point x="129" y="450" type="line"/>
			<point x="209" y="554" type="line"/>
		</contour>
	</outline>
</glyph>
<glyph name="uni2122" format="2">
	<advance width="577"/>
	<unicode hex="2122"/>
	<note>
		uni2122
	</note>
	<outline>
		<contour>
			<point x="520" y="462" type="line"/>
			<point x="520" y="732" type="line"/>
			<point x="391" y="582" type="line"/>
			<point x="263" y="732" type="line"/>
			<point x="263" y="462" type="line"/>
			<point x="320" y="462" type="line"/>
			<point x="320" y="592" type="line"/>
			<point x="391" y="496" type="line"/>
			<point x="460" y="591" type="line"/>
			<point x="460" y="462" type="line"/>
		</contour>
		<contour>
			<point x="44" y="667" type="line"/>
			<point x="101" y="667" type="line"/>
			<point x="101" y="462" type="line"/>
			<point x="163" y="462" type="line"/>
			<point x="163" y="667" type="line"/>
			<point x="221" y="667" type="line"/>
			<point x="221" y="721" type="line"/>
			<point x="44" y="721" type="line"/>
		</contour>
	</outline>
</glyph>
<glyph name="uni2264" format="2">
	<advance width="555"/>
	<unicode hex="2264"/>
	<note>
		uni2264
	</note>
	<outline>
		<contour>
			<point x="206" y="472" type="line"/>
			<point x="469" y="627" type="line"/>
			<point x="469" y="728" type="line"/>
			<point x="26" y="473" type="line"/>
			<point x="469" y="218" type="line"/>
			<point x="469" y="319" type="line"/>
		</contour>
		<contour>
			<point x="65" y="61" type="line"/>
			<point x="455" y="61" type="line"/>
			<point x="455" y="143" type="line"/>
			<point x="65" y="143" type="line"/>
		</contour>
	</outline>
</glyph>
<glyph name="uni2265" format="2">
	<advance width="555"/>
	<unicode hex="2265"/>
	<note>
		uni2265
	</note>
	<outline>
		<contour>
			<point x="73" y="319" type="line"/>
			<point x="73" y="218" type="line"/>
			<point x="516" y="473" type="line"/>
			<point x="73" y="728" type="line"/>
			<point x="73" y="627" type="line"/>
			<point x="349" y="469" type="line"/>
		</contour>
		<contour>
			<point x="72" y="61" type="line"/>
			<point x="475" y="61" type="line"/>
			<point x="475" y="143" type="line"/>
			<point x="72" y="143" type="line"/>
		</contour>
	</outline>
</glyph>
<glyph name="periodcentered.loclCAT.case" format="2">
	<advance width="170"/>
	<note>
		periodcentered.loclCAT.case
	</note>
	<outline>
		<contour>
			<point x="26" y="372" type="qcurve" smooth="yes"/>
			<point x="26" y="344"/>
			<point x="64" y="311"/>
			<point x="87" y="311" type="qcurve" smooth="yes"/>
			<point x="108" y="311"/>
			<point x="146" y="344"/>
			<point x="146" y="372" type="qcurve" smooth="yes"/>
			<point x="146" y="397"/>
			<point x="108" y="433"/>
			<point x="87" y="433" type="qcurve" smooth="yes"/>
			<point x="64" y="433"/>
			<point x="26" y="397"/>
		</contour>
		<contour>
			<point x="26" y="372" type="qcurve" smooth="yes"/>
			<point x="26" y="344"/>
			<point x="64" y="311"/>
			<point x="87" y="311" type="qcurve" smooth="yes"/>
			<point x="108" y="311"/>
			<point x="146" y="344"/>
			<point x="146" y="372" type="qcurve" smooth="yes"/>
			<point x="146" y="397"/>
			<point x="108" y="433"/>
			<point x="87" y="433" type="qcurve" smooth="yes"/>
			<point x="64" y="433"/>
			<point x="26" y="397"/>
		</contour>
	</outline>
</glyph>
<glyph name="periodcentered.loclCAT" format="2">
	<advance width="170"/>
	<note>
		periodcentered.loclCAT
	</note>
	<outline>
		<contour>
			<point x="25" y="286" type="qcurve" smooth="yes"/>
			<point x="25" y="258"/>
			<point x="64" y="224"/>
			<point x="87" y="224" type="qcurve" smooth="yes"/>
			<point x="108" y="224"/>
			<point x="147" y="258"/>
			<point x="147" y="286" type="qcurve" smooth="yes"/>
			<point x="147" y="312"/>
			<point x="108" y="348"/>
			<point x="87" y="348" type="qcurve" smooth="yes"/>
			<point x="64" y="348"/>
			<point x="25" y="312"/>
		</contour>
		<contour>
			<point x="25" y="286" type="qcurve" smooth="yes"/>
			<point x="25" y="258"/>
			<point x="64" y="224"/>
			<point x="87" y="224" type="qcurve" smooth="yes"/>
			<point x="108" y="224"/>
			<point x="147" y="258"/>
			<point x="147" y="286" type="qcurve" smooth="yes"/>
			<point x="147" y="312"/>
			<point x="108" y="348"/>
			<point x="87" y="348" type="qcurve" smooth="yes"/>
			<point x="64" y="348"/>
			<point x="25" y="312"/>
		</contour>
	</outline>
</glyph>
